<svg xmlns="http://www.w3.org/2000/svg" viewBox="0 0 908.107 632.701"><defs><style>.cls-1,.cls-3,.cls-4,.cls-5,.cls-6{fill:none;}.cls-2{fill:#231f20;}.cls-3,.cls-4,.cls-5,.cls-6{stroke:#000;}.cls-3,.cls-4,.cls-5{stroke-miterlimit:10;}.cls-3{stroke-width:1.168px;}.cls-4{stroke-width:0.873px;}.cls-5{stroke-width:1.688px;}.cls-6{stroke-width:4px;}.cls-7{fill:#fff;}</style></defs><title>farm_1</title><g id="Layer_2" data-name="Layer 2"><g id="Layer_3" data-name="Layer 3"><rect class="cls-1" x="405.861" y="191.145" width="79.345" height="7.604"/><path class="cls-2" d="M469.876,198.3l2.934-2.652H418.04l-3.412,3.1h-1.753l3.741-3.4h-1.752l-3.742,3.4h-1.754l3.742-3.4h-1.754l-3.741,3.4h-1.754l3.743-3.4H407.81v-.8H409.6l-3.743-3.4h1.754l3.741,3.4h1.754l-3.742-3.4h1.754l3.742,3.4h1.752l-3.741-3.4h1.753l3.484,3.168h54.63l-2.866-2.589,15.331,3.287Z"/><rect x="445.534" y="160.051" width="1.467" height="77.396" transform="translate(892.535 397.499) rotate(180)"/><circle cx="446.268" cy="158.942" r="3.8"/><path d="M426.182,177.984h-2.445v12.568h-3.763v-27.81h3.763v12.3H425.8l10.314-12.3h4.24l.039.1L429.123,176,441.2,190.457l-.038.095h-4.565Z"/><path d="M465.962,221.694a4.184,4.184,0,0,0-1.356-3.171,11.3,11.3,0,0,0-4.775-2.177,15.9,15.9,0,0,1-6.618-3.094,6.492,6.492,0,0,1-2.378-5.138,6.857,6.857,0,0,1,2.559-5.444,9.9,9.9,0,0,1,6.647-2.177,9.709,9.709,0,0,1,7,2.492,7.548,7.548,0,0,1,2.531,5.816l-.057.115h-3.591A5.137,5.137,0,0,0,464.272,205a5.946,5.946,0,0,0-4.231-1.547,5.8,5.8,0,0,0-4.04,1.28,4.291,4.291,0,0,0-1.4,3.323,3.712,3.712,0,0,0,1.537,3.028,14.17,14.17,0,0,0,5,2.129,14.183,14.183,0,0,1,6.4,3.209,6.986,6.986,0,0,1,2.2,5.234,6.5,6.5,0,0,1-2.645,5.405,10.979,10.979,0,0,1-6.9,2.044,11.74,11.74,0,0,1-7.115-2.254,6.869,6.869,0,0,1-2.989-6.036l.038-.114H453.7a4.672,4.672,0,0,0,1.986,4.039,7.52,7.52,0,0,0,4.489,1.423,6.752,6.752,0,0,0,4.231-1.2A3.91,3.91,0,0,0,465.962,221.694Z"/><path d="M430.263,224.417V210.253h-1.614v-2.209h1.614v-2.073a7.866,7.866,0,0,1,.864-4.048,2.726,2.726,0,0,1,3.066-1.347,6.94,6.94,0,0,1,.731.234l-.23,2.27a2.955,2.955,0,0,0-.415-.106,2.808,2.808,0,0,0-.511-.045,1.3,1.3,0,0,0-1.222.779,5.067,5.067,0,0,0-.4,2.263v2.073h1.871v2.209h-1.871v14.164Z"/><path d="M817.667,61.992a28.186,28.186,0,1,1-28.219-28.08A28.19,28.19,0,0,1,817.667,61.992Z"/><path d="M735.755,30.959l26.717,12.458-2.7,4.707L735.531,31.317Z"/><path d="M735.265,92.8,759.5,75.84c.892,1.528,1.731,2.968,2.73,4.681L735.5,93.134Z"/><path d="M842.756,31.972,818.9,48.67l-2.73-4.679,26.412-12.46Z"/><path d="M802.645,92.045l4.694-2.7c4.19,8.879,8.338,17.667,12.485,26.456l-.382.234C813.894,108.11,808.345,100.186,802.645,92.045Z"/><path d="M775.487,32.648l-4.667,2.745L758.15,8.575l.339-.2Z"/><path d="M756.413,59.273l.012,5.365L726.1,62.132l-.01-.2Z"/><path d="M770.209,88.8l4.681,2.731-16.558,23.9-.424-.218C761.968,106.492,766.027,97.776,770.209,88.8Z"/><path d="M803.352,32.9l16.7-24.055.381.217c-4.084,8.764-8.167,17.529-12.37,26.547Z"/><path d="M786,94.89l5.367-.012c-.837,10.093-1.666,20.079-2.494,30.064l-.247-.008C787.752,114.987,786.882,105.041,786,94.89Z"/><path d="M851.631,62.764l-30.039,2.641-.012-5.377,29.94,2.493Z"/><path d="M792.124,29.789l-5.359.012c.822-10.012,1.634-19.893,2.446-29.774L789.5,0C790.368,9.872,791.239,19.744,792.124,29.789Z"/><path d="M841.76,93.442,815.7,81.27l2.672-4.688L842.11,93.026Z"/><path class="cls-1" d="M111.53,48.625a22.375,22.375,0,0,1-3.388,2.984c.429-.033.861-.056,1.3-.057A17.052,17.052,0,0,1,118,53.822a18.46,18.46,0,0,1,1.444-4.042c-.386.024-.774.04-1.166.041A19.263,19.263,0,0,1,111.53,48.625Z"/><path class="cls-1" d="M76.583,45.692a21.774,21.774,0,0,1-4.008,1.979A19.517,19.517,0,0,1,68.609,63.99a16.094,16.094,0,0,1,1.533,1.658,43.768,43.768,0,0,1,12.549-1.781,45.421,45.421,0,0,1,10.073,1.075,17.127,17.127,0,0,1,5.76-9.429,22.252,22.252,0,0,1-21.941-9.821Z"/><path class="cls-3" d="M136.052,39.436c-.237,0-.472.011-.708.02a19.308,19.308,0,0,0-28.22-24.74,22.233,22.233,0,0,0-24.1.168,21.826,21.826,0,0,0-33.543-3.042A17.608,17.608,0,0,0,28.718,23.336c-.311-.016-.625-.027-.94-.026A16.37,16.37,0,0,0,14.2,48.771C6.077,51.768.569,57.6.584,64.3c.022,9.727,11.687,17.586,26.054,17.553a37.452,37.452,0,0,0,8.12-.9c3.48,4.736,10.2,7.937,17.91,7.919a24.723,24.723,0,0,0,12.991-3.544,39.61,39.61,0,0,0,17.089,3.476c7.776-.017,14.7-1.87,19.192-4.744A17.133,17.133,0,0,0,125.9,73.548a18.578,18.578,0,1,0,10.149-34.112Z"/><path class="cls-1" d="M246.919,83.4a16.752,16.752,0,0,1-2.533,2.231c.321-.025.643-.042.97-.042a12.735,12.735,0,0,1,6.4,1.7,13.783,13.783,0,0,1,1.08-3.021c-.289.018-.579.03-.872.03A14.4,14.4,0,0,1,246.919,83.4Z"/><path class="cls-1" d="M220.8,81.211a16.241,16.241,0,0,1-3,1.48,14.6,14.6,0,0,1-2.965,12.2,11.88,11.88,0,0,1,1.146,1.239,32.747,32.747,0,0,1,9.381-1.331,33.971,33.971,0,0,1,7.53.8,12.8,12.8,0,0,1,4.306-7.048,16.636,16.636,0,0,1-16.4-7.342Z"/><path class="cls-4" d="M265.249,76.536c-.177,0-.353.007-.528.014a14.365,14.365,0,0,0,1.642-6.72,14.722,14.722,0,0,0-10.031-13.644,13.8,13.8,0,0,0-9.058.018c-1.312.475-2.43,1.437-3.787,1.532-1.961.138-4.368-1.315-6.273-1.747a15.454,15.454,0,0,0-11.632,2.05c.7-.451-5.993-5.022-6.648-5.313a15.95,15.95,0,0,0-9.824-1.013c-3.432.761-6.522,2.649-9.926,3.524-2.651.681-5.48.746-7.977,1.866a10.234,10.234,0,0,0-5.074,5.045c-1.282,2.816-3.1,2.2-5.829,3.121a12.077,12.077,0,0,0-6.152,18.22c-.557-.822-5.295,2.954-5.924,3.507-2.213,1.947-4.047,4.528-4.241,7.556-.318,4.988,3.868,9.211,8.4,11.328a25.414,25.414,0,0,0,14.925,2.017,4.172,4.172,0,0,1,1.662-.076c2.6.621,4.934,3.562,7.645,4.511a18.626,18.626,0,0,0,10.63.529,28.9,28.9,0,0,1,5.2-1.239c2.144-.133,4.236.586,6.328,1.074a30.282,30.282,0,0,0,18.657-1.641,7.06,7.06,0,0,1,2.407-.742,8.4,8.4,0,0,1,2.418.454,13.284,13.284,0,0,0,15.441-8.683,13.9,13.9,0,1,0,7.557-25.548Z"/><path d="M332.435,231.074l58.392-.132c3.861-.009,3.868-6.009,0-6l-58.392.132c-3.86.009-3.867,6.009,0,6Z"/><path d="M497.011,233.185l64.6-.146c3.86-.009,3.867-6.009,0-6l-64.6.146c-3.86.009-3.867,6.009,0,6Z"/><path d="M315.126,268.385l90.694-.2c3.861-.009,3.868-6.009,0-6l-90.694.2c-3.86.009-3.867,6.009,0,6Z"/><path d="M475.4,269.264l94.421-.213c3.861-.009,3.868-6.009,0-6l-94.421.213c-3.861.009-3.868,6.009,0,6Z"/><path class="cls-5" d="M253.095,206.228h.287a44.21,44.21,0,0,1,44.21,44.21v0a0,0,0,0,1,0,0H208.884a0,0,0,0,1,0,0v0A44.21,44.21,0,0,1,253.095,206.228Z" transform="translate(-0.517 0.574) rotate(-0.13)"/><path d="M59.207,512.663c-1.124-5.324,123.537-47.245,227.156-62.081,266.967-38.224,556.086,75.894,499.569,60.333-1.845-.508-61.226-22.1-178.424-35.924C331.911,442.47,61.146,521.838,59.207,512.663Z"/><line class="cls-6" x1="259.568" y1="458.685" x2="582.767" y2="457.953"/><path d="M266.836,250.955c23.132-19.272,46.2-38.623,69.412-57.8,33.522-27.688,67.214-55.169,100.66-82.947,4.642-3.855,7.877-4.366,12.809-.322Q531.439,176.9,613.453,243.555c1.825,1.489,4.107,2.753,5.221,4.675.943,1.627,1.374,4.772.425,5.929s-4.523,1.595-5.842.707c-5.335-3.589-10.244-7.811-16.77-12.95l.024,10.6q.213,94.344.423,188.687c.024,11.356-.054,11.429-11.272,11.455q-141.122.327-282.243.641c-11.862.027-11.881.016-11.909-11.606q-.224-93.951-.429-187.9c-.007-3.118-.014-6.235-.026-11.237-5.779,4.659-10.441,8.181-14.822,12.024-3.467,3.042-6.424,2.931-9.39-.476ZM369.082,443.708l-.291-128.249c-6.366.015-12.37.435-18.266-.177-2.089-.217-3.917-2.952-5.864-4.537,1.876-1.443,3.568-3.358,5.685-4.186,1.826-.714,4.136-.207,6.231-.212q77.426-.18,154.85-.352c8.384-.019,16.792-.379,25.137.189,2.322.158,4.455,3.082,6.674,4.737-2.18,1.388-4.264,3.745-6.561,3.975-5.841.584-11.778.216-17.415.229l.29,128,68.349-.155c-.007-3.437-.014-6.279-.02-9.122-.145-63.931-.387-127.862-.274-191.792.01-5.969-2.038-9.536-6.455-13.092-27.741-22.336-55.293-44.907-82.911-67.4q-27.324-22.25-54.785-44.595c-46.96,38.625-93.522,76.826-139.842,115.316-2.254,1.873-3.373,6.289-3.375,9.522q-.07,97.076.312,194.151c.007,2.532.259,5.064.414,7.906ZM409.1,389.479l-27.449,54.163,55.072-.124Zm69.969-.151c-9.582,19-18.31,36.312-27.247,54.034l54.939-.125Zm-42.949-73.4-54.451.124c9.234,17.925,18.038,35.018,27.38,53.155Zm42.946,53.16,27.109-53.408-54.47.123Zm-39.948-35.343-1.5-.3c-3.862,7.635-6.761,15.983-11.779,22.763-11.768,15.9-11.415,30.738.155,46.533,5.023,6.856,8.1,15.135,12.066,22.768l1.268-.6Zm11.212-.339-1.231.328.207,91.333c8.463-14.1,15.842-28.412,22.9-42.879a8.332,8.332,0,0,0-.281-6.435C464.886,361.555,457.567,347.5,450.333,333.4Zm-71.036-1.73.217,95.7c8.311-16.419,15.65-30.8,22.81-45.261a6.369,6.369,0,0,0,.247-4.939C395.267,362.585,387.749,348.107,379.3,331.672Zm129.7,2.07-1.351-.337c-7.23,14.137-14.608,28.2-21.523,42.494-.984,2.035-.449,5.517.629,7.719,6.194,12.653,12.746,25.132,19.234,37.639a43.628,43.628,0,0,0,3.219,4.484Z"/><path class="cls-7" d="M450.333,333.4c7.234,14.1,14.553,28.153,21.593,42.347a8.332,8.332,0,0,1,.281,6.435c-7.056,14.467-14.435,28.776-22.9,42.879L449.1,333.73Z"/><path d="M546.382,454.62c17.05-1.442,33.582,2.937,50.024,6.855l49.929,11.9v-5.786c-7.016,2.587-13.956.187-20.766-1.929q-9.744-3.029-19.483-6.071l-39.895-12.429v5.785a43.241,43.241,0,0,1,29.817,2.336l1.514-5.59-20.8.449v6c15.373-1.929,30.3,5.612,44.883,9.379,15.166,3.917,30.624,6.536,46.057,9.152l.8-5.893C648.082,466.43,629.7,459.865,610.9,452c-8.627-3.613-17.346-6.239-26.757-6.515-9.832-.29-19.617,1.51-29.249,3.258-3.61.655-2.273,5.536.8,5.893a1033.906,1033.906,0,0,1,178.885,37.079l.8-5.893a274.593,274.593,0,0,1-64.451-14.858l-.8,5.893c41.212,4.59,80.284,21.3,118.951,35.33,3.643,1.322,5.181-4.453,1.6-5.786a600.075,600.075,0,0,0-90.3-25.8c-14.8-2.987-29.712-5.364-44.691-7.269-15.437-1.963-30.9-3.843-45.508-9.508-3.6-1.4-5.162,4.4-1.595,5.786,13.947,5.41,28.72,7.4,43.473,9.264,15.664,1.981,31.247,4.389,46.726,7.513a599.991,599.991,0,0,1,90.3,25.8l1.6-5.786c-39.254-14.244-78.713-30.885-120.546-35.544-3.563-.4-3.767,4.822-.8,5.893a281.049,281.049,0,0,0,66.047,15.072c3.462.364,3.92-4.952.8-5.893a1042.769,1042.769,0,0,0-180.48-37.293l.8,5.892c10.348-1.877,20.881-3.783,31.439-2.827,9.584.869,18.36,4.782,27.089,8.561a187.612,187.612,0,0,0,53.445,14.516c3.331.383,4.129-5.328.8-5.893-16.061-2.722-32.153-5.448-47.91-9.637-14.553-3.869-29.23-11.04-44.625-9.108-3.709.466-3.973,6.086,0,6l20.8-.449c2.764-.06,4.36-4.282,1.515-5.591a49.779,49.779,0,0,0-34.441-2.94,3.025,3.025,0,0,0,0,5.785L608.2,466.527c7,2.18,13.963,4.547,21.023,6.51,6.222,1.73,12.512,2.618,18.7.334,2.593-.957,3.1-5.048,0-5.786l-51.849-12.354c-16.31-3.886-32.8-8.04-49.7-6.611-3.82.323-3.854,6.326,0,6Z"/><path d="M207.937,251.634l.484,213.707c.009,3.838,5.973,3.845,5.965,0L213.9,251.634c-.008-3.838-5.973-3.845-5.964,0Z"/><path d="M218.3,303.392l57.833-.131v-6l-4.411.01c-3.86.008-3.867,6.008,0,6l4.411-.01c3.86-.009,3.867-6.009,0-6l-57.833.131c-3.861.008-3.868,6.008,0,6Z"/><path d="M218.417,355.572l57.15-.13c3.86-.008,3.867-6.008,0-6l-57.15.13c-3.86.009-3.868,6.009,0,6Z"/><path d="M258.723,274.2l.36,159.025c.009,3.861,6.009,3.868,6,0l-.36-159.025c-.009-3.86-6.009-3.868-6,0Z"/><path d="M232.644,279.232l.391,172.691c.009,3.861,6.009,3.868,6,0l-.391-172.691c-.009-3.861-6.009-3.868-6,0Z"/><path d="M222.285,417.683l59.634-.135c3.861-.009,3.868-6.009,0-6l-59.634.135c-3.861.008-3.868,6.008,0,6Z"/><path d="M315.185,294.475l119.269-.27c3.861-.009,3.868-6.009,0-6l-119.269.27c-3.86.009-3.867,6.009,0,6Z"/><path d="M469.241,294.126l88.21-.2c3.86-.008,3.867-6.008,0-6l-88.21.2c-3.86.009-3.867,6.009,0,6Z"/><path d="M322.763,349.123l32.3-.073c3.861-.009,3.868-6.009,0-6l-32.3.073c-3.86.009-3.867,6.009,0,6Z"/><path d="M315.444,408.775l36.029-.082c3.861-.008,3.868-6.008,0-6l-36.029.082c-3.86.009-3.867,6.009,0,6Z"/><path d="M330.294,382.651l14.908-.034c3.861-.009,3.868-6.009,0-6l-14.908.034c-3.861.009-3.868,6.009,0,6Z"/><path d="M526.518,349.9l28.575-.065c3.86-.008,3.867-6.008,0-6l-28.575.065c-3.861.009-3.868,6.009,0,6Z"/><path d="M530.318,382.2l16.151-.037c3.86-.009,3.867-6.009,0-6l-16.151.037c-3.86.009-3.868,6.009,0,6Z"/><path d="M529.171,424.442l44.726-.1c3.861-.008,3.868-6.008,0-6l-44.726.1c-3.86.009-3.867,6.009,0,6Z"/><path d="M206.489,430.624a194.394,194.394,0,0,1-52.373,47.219c-3.281,2.022-.271,7.214,3.028,5.181a202.29,202.29,0,0,0,54.526-49.372c2.347-3.064-2.862-6.055-5.181-3.028Z"/><path d="M208.631,464.49l-.023-12.86c0-3.174.682-7.464-.408-10.494a3.075,3.075,0,0,0-3.69-2.1l-.383.094a3.048,3.048,0,0,0-2.2,2.893l0,.321c-.037,3.869,5.874,3.854,6,0l.7-1.153-4.242-4.242c-5.808,6.789-11.341,15.048-18.435,20.539-3.434,2.658-7.5,4.329-11.08,6.763a48.208,48.208,0,0,0-9.442,8.5c-1.372,1.593-1.041,4.51,1.324,5.015,5.605,1.194,11.371-1.468,16.8-2.713a206.532,206.532,0,0,1,21.345-3.709c2.39-.29,4.2-3.164,2.121-5.121a14.172,14.172,0,0,1-1.876-18.689l-5.483-.717A37.163,37.163,0,0,1,197.3,467.76h5.786a57.584,57.584,0,0,1-1.46-14.148,3.033,3.033,0,0,0-5.121-2.121,65.529,65.529,0,0,1-19.373,12.966c-2.1.924-1.817,4.173,0,5.181,7.946,4.409,14.037-2.266,20.908-5.409l-4.514-2.59c.058,2.694-6.677,2.49-8.706,2.824a59.7,59.7,0,0,0-8.536,2.126l2.312,5.483a40.952,40.952,0,0,1,12.878-5q1.264-.3,2.534-.587-1.2-2.69-3.778-1.855c-2.677-.514-5.708-.146-8.457-.6l-.8,5.893a52.659,52.659,0,0,0,23.408-6.875l-4.515-2.591a18.182,18.182,0,0,1-1.991,7.786c-1.729,3.441,3.445,6.483,5.18,3.028a25.581,25.581,0,0,0,2.811-10.814,3.026,3.026,0,0,0-4.514-2.59,45.865,45.865,0,0,1-20.379,6.056c-3.165.181-4.324,5.316-.8,5.893,3.951.646,23.641,3.041,19.552-6.55-1.4-3.289-5.3-2.955-8.162-2.378a46.57,46.57,0,0,0-16,6c-2.761,1.763-1.054,6.564,2.311,5.483,5.3-1.7,11.156-1.494,16.288-3.331,3.361-1.2,5.436-3.79,5.359-7.4a3.041,3.041,0,0,0-4.514-2.59c-4.2,1.921-9.935,8.136-14.852,5.408v5.181a70.163,70.163,0,0,0,20.588-13.9l-5.122-2.122a64.637,64.637,0,0,0,1.674,15.743c.731,3.176,4.771,2.5,5.786,0a42.679,42.679,0,0,0,2.358-24.129c-.5-2.763-4.156-2.633-5.483-.716a20.151,20.151,0,0,0,2.815,25.959l2.121-5.121c-5.847.709-11.669,1.585-17.445,2.743q-4.132.828-8.229,1.828c-3.173.772-7.624,2.758-10.877,2.065L169.667,477a43.976,43.976,0,0,1,11.1-9.348c3.345-1.975,6.794-3.667,9.8-6.168,6.84-5.7,12.294-13.542,18.064-20.287a3,3,0,0,0-4.242-4.242,6.531,6.531,0,0,0-2.46,5.4h6l0-.321-2.2,2.893.383-.094-3.691-2.1c1.071,2.976.192,7.741.2,10.877l.019,10.882c.006,3.86,6.006,3.867,6,0Z"/><path d="M367.448,473.315c1.14,21.717,19.841,35,28.452,53.527,11.671,25.113-1.887,53.679-13.147,76.31-2,4.021,4.035,7.571,6.044,3.533,11.247-22.6,23.668-49.212,16.343-74.948-3.091-10.863-9.865-19.8-16.525-28.711-6.623-8.859-13.566-18.262-14.167-29.711-.235-4.481-7.237-4.509-7,0Z"/><path d="M512.75,466.183c11.25,8.729,21.126,19.335,27.122,32.387,6.242,13.586,7.708,28.964,6.17,43.715-3.265,31.305-20.142,58.9-36.142,85.219-2.346,3.859,3.705,7.381,6.045,3.533,16.991-27.952,34.375-57.134,37.258-90.453,1.316-15.209-.628-30.794-6.931-44.777-6.244-13.853-16.661-25.332-28.572-34.574-3.517-2.728-8.506,2.191-4.95,4.95Z"/><path d="M340.648,561.485c-.518-10.766-11.663-17.525-19.2-23.544l-.606.786a102.846,102.846,0,0,1,18.905,18.383c.32.4.968-.035.835-.487a105.519,105.519,0,0,0-8.477-20.521c-.314-.579-1.115-.07-.864.5l9.105,20.846c.248.566.988.12.914-.385-1.846-12.75-3.587-27.81,5.308-38.455l-.835-.486c-2.884,14.279-3.184,28.946-6.067,43.225a.5.5,0,0,0,.965.266c4.485-11.792,11.406-25.533,23.787-30.567l-.385-.914a85.508,85.508,0,0,0-22.345,25.047l.932.252a56.567,56.567,0,0,1,12-30.74l-.836-.486c-4.57,12.384-8.184,25.163-14.07,37.022l.931.253c.72-6.088-3.8-11.994-6.569-17.043L322.133,522.7l-.785.606a67.338,67.338,0,0,1,17.477,32.026l.965-.266a132.916,132.916,0,0,1-7.013-38.622l-.982.133c4.456,14.641,4.652,30.143,7.871,45.044a.506.506,0,0,0,.914.119c7.83-11.135,18.178-21.909,30.187-28.516l-.5-.863c-5.445,3.727-11.133,7.117-16.478,10.988A86.775,86.775,0,0,0,339.747,556.4c-.425.48.28,1.19.707.707a85.584,85.584,0,0,1,14.308-13.24c5.213-3.724,10.718-7.03,16-10.649a.5.5,0,0,0-.5-.863c-12.177,6.7-22.61,17.589-30.545,28.874l.914.12c-3.219-14.9-3.416-30.4-7.872-45.044a.5.5,0,0,0-.982.133,133.871,133.871,0,0,0,7.048,38.888.5.5,0,0,0,.965-.266A68.353,68.353,0,0,0,322.055,522.6a.5.5,0,0,0-.785.606q5.5,10.02,11.009,20.039c2.917,5.311,8.122,11.877,7.369,18.244-.058.494.72.679.932.252,5.926-11.938,9.571-24.795,14.171-37.261.168-.455-.528-.877-.835-.487a57.74,57.74,0,0,0-12.3,31.447c-.039.511.693.659.932.253A84.264,84.264,0,0,1,364.538,531c.4-.3.189-1.148-.385-.914-12.765,5.191-19.856,19.094-24.487,31.266l.965.266c2.883-14.28,3.183-28.946,6.066-43.226.09-.443-.489-.9-.836-.486-9.167,10.97-7.471,26.268-5.565,39.428l.914-.386-9.1-20.846-.864.5a104.237,104.237,0,0,1,8.377,20.282l.836-.486a103.768,103.768,0,0,0-19.107-18.54c-.451-.337-1.05.431-.606.785,7.265,5.8,18.408,12.46,18.907,22.837.031.64,1.031.644,1,0Z"/><path d="M339.773,561.025l.029.5a.509.509,0,0,0,.5.5l2.35.028a.5.5,0,0,0,0-1,22.618,22.618,0,0,0-5.37.276l.266.964a11.43,11.43,0,0,1,5.378.166.5.5,0,0,0,.265-.964,12.589,12.589,0,0,0-5.909-.166c-.636.132-.36,1.07.266.964a21.488,21.488,0,0,1,5.1-.24v-1l-2.35-.028.5.5-.029-.5c-.037-.64-1.037-.644-1,0Z"/><path d="M334.441,504.262c-.442-7.432-7.98-12.034-13.217-16.2l-.417.54a71.721,71.721,0,0,1,13.013,12.654c.221.276.668-.024.575-.335a73.847,73.847,0,0,0-5.835-14.126c-.215-.4-.767-.048-.594.348l6.267,14.349c.17.39.679.083.629-.265-1.273-8.824-2.437-19.083,3.654-26.47l-.576-.335c-1.967,9.833-2.208,19.922-4.175,29.754a.344.344,0,0,0,.663.183c3.116-8.157,7.847-17.509,16.374-21.041l-.265-.629a59.373,59.373,0,0,0-15.38,17.241l.641.174a39.217,39.217,0,0,1,8.262-21.16l-.576-.334c-3.139,8.529-5.649,17.31-9.685,25.483l.642.174c.405-4.043-2.337-7.76-4.191-11.128q-4.284-7.782-8.554-15.57l-.54.417a46.677,46.677,0,0,1,12.03,22.044l.664-.183a92.371,92.371,0,0,1-4.827-26.585l-.676.092c3.041,10.086,3.219,20.743,5.418,31a.348.348,0,0,0,.629.082c5.42-7.676,12.508-15.041,20.778-19.628l-.347-.595c-3.775,2.58-7.718,4.929-11.418,7.618a60.219,60.219,0,0,0-9.587,8.933c-.293.331.192.819.487.487a59.4,59.4,0,0,1,9.924-9.168c3.566-2.541,7.326-4.805,10.941-7.275a.345.345,0,0,0-.347-.595c-8.391,4.655-15.53,12.094-21.026,19.875l.629.083c-2.2-10.261-2.377-20.919-5.417-31a.346.346,0,0,0-.677.091,93.043,93.043,0,0,0,4.852,26.768.345.345,0,0,0,.664-.183,47.392,47.392,0,0,0-12.208-22.348.345.345,0,0,0-.54.417l7.6,13.84c2.029,3.692,5.489,8.1,5.047,12.511a.347.347,0,0,0,.642.174c4.062-8.227,6.594-17.063,9.754-25.648.115-.313-.364-.605-.575-.335A40,40,0,0,0,335.11,500.1c-.029.352.477.452.641.174a58.543,58.543,0,0,1,15.134-16.994c.277-.211.13-.793-.266-.629-8.792,3.641-13.638,13.1-16.854,21.521l.663.183c1.968-9.833,2.208-19.921,4.176-29.754.061-.3-.337-.623-.575-.335-6.278,7.615-5.145,18.03-3.831,27.14l.629-.265-6.267-14.35-.594.348a73.026,73.026,0,0,1,5.766,13.961l.575-.335A72.436,72.436,0,0,0,321.155,488c-.31-.233-.723.3-.417.54,5.052,4.025,12.589,8.554,13.014,15.719.027.44.715.443.689,0Z"/><path d="M333.838,503.946l.02.345a.351.351,0,0,0,.344.344l1.618.019a.344.344,0,0,0,0-.688,15.52,15.52,0,0,0-3.7.19l.183.663a7.883,7.883,0,0,1,3.7.114.344.344,0,0,0,.183-.663,8.663,8.663,0,0,0-4.068-.114c-.438.091-.247.736.183.663a14.822,14.822,0,0,1,3.514-.165v-.688l-1.618-.019.344.344-.02-.345c-.025-.441-.714-.444-.688,0Z"/><path d="M256.132,526.344c-.442-7.433-7.98-12.034-13.217-16.206l-.417.54a71.787,71.787,0,0,1,13.013,12.654c.22.276.667-.024.575-.335a73.838,73.838,0,0,0-5.835-14.125c-.216-.4-.767-.049-.595.347l6.268,14.349c.17.39.679.083.629-.265-1.273-8.823-2.437-19.083,3.653-26.469l-.575-.335c-1.968,9.832-2.208,19.921-4.175,29.753a.344.344,0,0,0,.663.183c3.116-8.156,7.847-17.509,16.374-21.04l-.265-.629a59.378,59.378,0,0,0-15.381,17.241l.642.173a39.214,39.214,0,0,1,8.262-21.159l-.576-.335c-3.139,8.53-5.649,17.311-9.685,25.484l.642.174c.4-4.044-2.337-7.761-4.191-11.129q-4.284-7.782-8.554-15.57l-.54.417a46.682,46.682,0,0,1,12.03,22.044l.663-.183a92.4,92.4,0,0,1-4.826-26.584l-.676.091c3.041,10.086,3.219,20.743,5.418,31a.348.348,0,0,0,.629.082c5.42-7.675,12.508-15.04,20.778-19.628l-.347-.594c-3.776,2.58-7.719,4.928-11.418,7.618a60.216,60.216,0,0,0-9.587,8.932c-.293.331.192.82.487.487a59.392,59.392,0,0,1,9.924-9.167c3.566-2.541,7.326-4.8,10.941-7.276a.344.344,0,0,0-.347-.594c-8.391,4.654-15.53,12.093-21.026,19.875l.629.082c-2.2-10.261-2.377-20.919-5.418-31a.346.346,0,0,0-.676.092,93.009,93.009,0,0,0,4.852,26.767.344.344,0,0,0,.663-.183,47.39,47.39,0,0,0-12.207-22.348.345.345,0,0,0-.54.417l7.6,13.84c2.028,3.692,5.489,8.1,5.047,12.512a.347.347,0,0,0,.642.173c4.062-8.226,6.594-17.062,9.754-25.648.115-.312-.364-.6-.575-.335A40,40,0,0,0,256.8,522.18c-.028.352.477.453.642.174a58.525,58.525,0,0,1,15.133-16.994c.278-.21.13-.793-.265-.629-8.793,3.641-13.639,13.1-16.854,21.521l.663.183c1.968-9.832,2.208-19.921,4.176-29.753.061-.3-.337-.624-.575-.335-6.278,7.615-5.145,18.029-3.831,27.139l.629-.265-6.267-14.349-.595.347a72.924,72.924,0,0,1,5.766,13.961l.576-.335a72.41,72.41,0,0,0-13.153-12.761c-.309-.232-.722.3-.417.541,5.053,4.025,12.59,8.554,13.015,15.719.026.44.715.443.689,0Z"/><path d="M255.529,526.027l.02.345a.351.351,0,0,0,.344.344l1.618.02a.345.345,0,0,0,0-.689,15.572,15.572,0,0,0-3.7.19l.183.664a7.87,7.87,0,0,1,3.7.114.345.345,0,0,0,.183-.664,8.664,8.664,0,0,0-4.068-.114c-.438.091-.247.737.183.664a14.769,14.769,0,0,1,3.514-.165v-.689l-1.618-.019.344.344-.02-.345c-.025-.44-.714-.443-.688,0Z"/><path d="M594.782,551.1c-.483-9.42-10.188-15.32-16.792-20.589l-.529.686a90.243,90.243,0,0,1,16.532,16.077c.28.352.848-.031.731-.425A92.74,92.74,0,0,0,587.31,528.9c-.274-.506-.974-.061-.755.441l7.963,18.231c.216.5.863.106.8-.337-1.615-11.165-3.126-24.3,4.642-33.63l-.731-.425c-2.514,12.489-2.79,25.313-5.3,37.8a.437.437,0,0,0,.843.232c3.935-10.329,9.973-22.3,20.8-26.732l-.337-.8a74.984,74.984,0,0,0-19.541,21.9l.814.221A49.586,49.586,0,0,1,607,518.925l-.731-.425c-3.994,10.832-7.162,22-12.305,32.377l.815.221c.586-5.165-3.079-10.052-5.438-14.345L578.59,517.177l-.687.53a59.015,59.015,0,0,1,15.285,28.007l.843-.232a116.554,116.554,0,0,1-6.132-33.776l-.859.116c3.887,12.807,4.074,26.359,6.883,39.392a.443.443,0,0,0,.8.1c6.861-9.743,15.895-19.144,26.4-24.938l-.441-.755c-4.773,3.265-9.758,6.235-14.44,9.631a76.128,76.128,0,0,0-12.248,11.4c-.371.42.245,1.041.619.618a75.1,75.1,0,0,1,12.542-11.6c4.55-3.249,9.354-6.136,13.968-9.292a.437.437,0,0,0-.441-.755C610.026,531.5,600.922,541,593.967,550.877l.8.105c-2.808-13.032-3-26.586-6.883-39.393a.439.439,0,0,0-.859.117,117.386,117.386,0,0,0,6.164,34.008.437.437,0,0,0,.843-.232,59.892,59.892,0,0,0-15.509-28.393.439.439,0,0,0-.687.53l9.8,17.835c2.52,4.587,6.9,10.15,6.275,15.644-.049.432.629.6.814.221,5.177-10.443,8.373-21.683,12.394-32.587.146-.4-.463-.766-.731-.425a50.608,50.608,0,0,0-10.753,27.5c-.035.446.606.575.815.22a73.939,73.939,0,0,1,19.227-21.591c.354-.267.166-1-.337-.8-11.166,4.568-17.352,16.681-21.414,27.343l.843.232c2.515-12.489,2.791-25.313,5.306-37.8.078-.387-.428-.789-.731-.425-8.006,9.618-6.535,22.954-4.867,34.481l.8-.337L587.31,528.9l-.755.441a91.765,91.765,0,0,1,7.326,17.738l.731-.425A91.051,91.051,0,0,0,577.9,530.44c-.394-.3-.918.377-.53.687,6.37,5.083,16.07,10.889,16.536,19.971.028.56.9.564.874,0Z"/><path d="M594.016,550.7l.026.439a.445.445,0,0,0,.437.437l2.055.024a.437.437,0,0,0,0-.874,19.751,19.751,0,0,0-4.7.241l.232.843a10,10,0,0,1,4.7.145.438.438,0,0,0,.233-.843,11,11,0,0,0-5.168-.145c-.557.115-.314.936.232.843a18.8,18.8,0,0,1,4.464-.21v-.874l-2.055-.025.437.438-.025-.439c-.032-.559-.907-.563-.875,0Z"/><path d="M560.9,496.835c-.411-6.04-6.436-9.736-10.714-13.138l-.338.439A58.776,58.776,0,0,1,560.4,494.393c.179.224.542-.019.466-.271a60.567,60.567,0,0,0-4.73-11.451c-.174-.324-.622-.039-.482.281l5.081,11.633c.138.316.55.067.51-.215-1.033-7.184-1.958-15.428,2.962-21.458l-.467-.272c-1.585,7.973-1.8,16.148-3.385,24.121a.279.279,0,0,0,.538.148c2.543-6.637,6.355-14.154,13.274-17.057l-.215-.51a48.477,48.477,0,0,0-12.468,13.977l.52.141a31.974,31.974,0,0,1,6.7-17.154l-.466-.271c-2.542,6.917-4.588,14.029-7.852,20.659l.52.141c.283-3.336-1.933-6.369-3.469-9.153q-3.441-6.24-6.862-12.491l-.438.338a38.043,38.043,0,0,1,9.752,17.871l.538-.149A75.391,75.391,0,0,1,556.51,471.7l-.548.074c2.45,8.181,2.621,16.813,4.392,25.135a.283.283,0,0,0,.51.067c4.413-6.229,10.137-12.169,16.845-15.912l-.282-.482C571.3,484.761,565.369,488.4,560.4,494c-.238.268.156.664.395.394,4.939-5.565,10.834-9.179,16.915-13.329a.279.279,0,0,0-.282-.482,45.5,45.5,0,0,0-9.326,7.156q-2.067,2-3.956,4.168c-.329.378-2.947,4.255-3.358,4.217-.681-.062-1.667-10.644-1.793-11.569a84.149,84.149,0,0,0-2.494-12.928.28.28,0,0,0-.548.074,75.944,75.944,0,0,0,3.933,21.7.279.279,0,0,0,.538-.149,38.615,38.615,0,0,0-9.9-18.116.28.28,0,0,0-.438.338l5.947,10.825c1.711,3.114,4.623,6.829,4.308,10.537a.281.281,0,0,0,.52.141c3.285-6.674,5.349-13.83,7.908-20.793.093-.253-.3-.49-.466-.271a32.61,32.61,0,0,0-6.861,17.548c-.024.285.386.366.519.14a47.778,47.778,0,0,1,12.269-13.776c.224-.17.105-.644-.215-.51-7.131,2.992-11.039,10.6-13.664,17.447l.538.148c1.586-7.973,1.8-16.147,3.385-24.12.049-.246-.274-.507-.466-.272-5.067,6.211-4.172,14.586-3.105,22l.51-.215-5.081-11.632-.482.281a59.926,59.926,0,0,1,4.674,11.318l.467-.271a59.338,59.338,0,0,0-10.662-10.345c-.251-.189-.586.241-.338.438,4.124,3.28,10.154,6.925,10.55,12.743.025.356.583.359.558,0Z"/><path d="M560.414,496.578l.016.28a.285.285,0,0,0,.279.279l1.311.016a.279.279,0,0,0,0-.558,12.581,12.581,0,0,0-3,.153l.148.539a6.373,6.373,0,0,1,3,.092.279.279,0,0,0,.148-.538,7.029,7.029,0,0,0-3.3-.093c-.355.074-.2.6.148.539a11.916,11.916,0,0,1,2.848-.134V496.6l-1.311-.016.279.279-.016-.28c-.021-.357-.579-.359-.558,0Z"/><polygon points="294.14 250.346 208.935 250.539 210.002 240.786 294.118 240.595 294.14 250.346"/><line x1="167.841" y1="509.362" x2="167.841" y2="509.362"/><path d="M685.116,454.43c3,1.737,6.072,3.358,8.945,5.282a4.812,4.812,0,0,1,1.782,3.077,32.045,32.045,0,0,1,.027,6.437c-.923,12.187.881,23.986,4.446,35.64a47.662,47.662,0,0,1,1.55,11.455c.357,7.052.428,14.12.526,21.183a6.628,6.628,0,0,1-4.371,6.715,6.2,6.2,0,0,1-7.353-2.259,8.309,8.309,0,0,1-1.26-3.678,49.442,49.442,0,0,1-.325-8.277c.922-12.968-1.777-25.384-5.446-37.673-.144-.484-.246-.98-.557-2.236a15.811,15.811,0,0,0-.764,2.683c-.958,17.107-8.071,32.343-14.55,47.761a6.5,6.5,0,1,1-12.027-4.929c1.282-3.443,2.6-6.885,4.136-10.219,4.826-10.461,8.461-21.3,9.215-32.829.809-12.388,1.053-24.814,1.575-38.019l-10.024,4.434c2.082,6.433,4.159,12.605,6.069,18.828,1.434,4.67-1.708,8.7-6.01,7.473a7.126,7.126,0,0,1-4.136-3.877c-2.764-7.678-5.151-15.492-7.589-23.284-1.083-3.458-.071-5.753,3.192-7.253,7.143-3.283,14.15-7,21.556-9.533,6.026-2.062,12.5-1.432,18.693-.026l0,.871h-5.245l-.132.439a9.722,9.722,0,0,0,1.591.788c4.407,1.276,8.9,2.314,13.214,3.838,2.705.955,4.522.385,6.528-1.483,3.442-3.205,7.1-6.179,10.718-9.193,3.053-2.545,6.371-2.577,8.458-.183,2.265,2.6,1.8,5.713-1.43,8.5-5.109,4.42-10.314,8.728-15.41,13.161a6.727,6.727,0,0,1-7.075,1.389c-6.094-1.955-12.245-3.738-18.372-5.591Z"/><path d="M681.619,436.826a11.056,11.056,0,0,1-11.18-11.277,11.283,11.283,0,1,1,22.566-.148A11.17,11.17,0,0,1,681.619,436.826Z"/><path d="M826.564,543.787c1.584-2.157,2.928-4,4.3-5.837.408-.546,1.15-.986,1.286-1.574,1.466-6.325,5.178-12.307,3.923-19.035-.785-4.205-2.449-8.264-3.841-12.349-.652-1.916-1.855-3.676-2.353-5.616-1.585-6.171-3.31-12.2-8.4-16.733-.681-.607-.725-1.994-.871-3.045-.395-2.846-.557-5.729-1.109-8.542-.132-.671-1.352-1.439-2.2-1.632-9.078-2.066-17.617-5.408-25.023-10.912-4.339-3.225-8.093-7.192-12.11-10.826l.385-1.258a49.72,49.72,0,0,1,7.545-.769c2.735.116,4.57-.744,5.821-3.017q1.779-3.231,3.573-6.455l-1.025-.528c-1.137,1.844-2.336,3.657-3.395,5.543-.971,1.728-2.226,2.313-4.371,2.507-8.522.772-16.921,2.609-24.336,6.8-5.481,3.1-7.321,8.835-8.041,14.76a15.569,15.569,0,0,0,.239,2.8c.1,1.484-.213,2.476-2.187,2.258a2.59,2.59,0,0,0-2.138,1.088,2.779,2.779,0,0,0,.455,2.43c1.857,2.211,1.478,4.795-1.481,5.686-2.627.79-5.531.709-8.313,1.012l-.534-.979c1.167-2.135,2.43-4.227,3.472-6.418.972-2.042,1.716-4.187,2.547-6.291.4-1.009.489-2.278,1.188-3,3.686-3.834,4.66-8.769,5.679-13.553a10.9,10.9,0,0,1,6.067-7.807,64.71,64.71,0,0,0,19.548-16.473,3.674,3.674,0,0,0,.855-2.046L768.645,435.66l-3.27-5.344c-1.136,2.639.828,4.088,1.515,6.221a26.306,26.306,0,0,1-4.029.721c-4.295.106-8.6.019-12.893.094-5.865.1-6.858.784-8.928,6.029a39.883,39.883,0,0,0-2.358,6.764,16.017,16.017,0,0,0,.115,5.9c.284,1.524.187,2.439-1.4,3.006-1.858.666-2.209,1.514-.357,2.769,2.627,1.779,2.419,5.122-.57,6.4a49.678,49.678,0,0,1-7.2,1.914l-.621-.685c.641-1.961,1.256-3.93,1.933-5.878.418-1.2,1.421-2.42,1.314-3.555-.414-4.378,1.675-7.874,3.4-11.655s2.339-8.03,3.847-11.925c1.015-2.619,3.576-3.7,6.341-4.408,5.584-1.429,11.116-3.053,16.661-4.626a17.041,17.041,0,0,0,2.105-.943c-2.327-5.349.346-9.412,3.551-13.331.109-.134.206-.277.324-.4a35.364,35.364,0,0,0,9.8-24.177c.016-.765.2-1.526.212-2.291.084-4,.576-7.349,5.76-8.523,3.034-.687,4.395-3.979,5.26-6.916.178-.606-.267-1.384-1.046-2.045a5.305,5.305,0,0,0-.519,1.285c-.73,5.893-5.726,9.216-11.6,7.6-2.606-.717-5.1-1.929-7.747-2.349-1.975-.314-4.1.283-6.615.516l-3.824-3.063c.231-2.154.444-5.017.929-7.835.084-.487,1.275-.97,2.03-1.144,3.707-.856,6.808-2.5,8.852-5.769a4.411,4.411,0,0,1,1.56-1.275c2.636-1.522,5.34-2.937,7.932-4.525a13.631,13.631,0,0,0,2.129-2.174c1.038-1.028,2.105-2.028,3.626-3.486v4.118c1.852.363,3.786,1.21,5.545.948,1.6-.238,3.014-1.679,5.007-2.5-1.723,4.208,1.353,6.549,2.969,9.519,4.036,7.419,5.489,15.584,6.352,23.838.469,4.491.771,9,1.046,13.509a14.393,14.393,0,0,0,4.134,9.133c2.5,2.718,4.672,5.717,6.989,8.591,8.557,10.61,18.168,19.843,30.958,25.871C864.393,447.37,872,466.839,863.6,482.426c-.366.679-.673,1.39-1.063,2.055-3.771,6.437-3.827,10.887,2.545,18.408a7.632,7.632,0,0,1,1.7,8.107c-1.54,5.056-2.927,10.168-4.074,15.32-1.219,5.478-1.065,5.51,1.074,10.243-2.894,2.511-2.8,3.593.476,5.635,1.959,1.221,1.8,4.3-.693,5.662-2.355,1.29-5.09,1.927-7.657,2.851l-.863-.773a56.782,56.782,0,0,1,1.721-6.441c.828-2.13,1.294-3.981-.419-5.945a3.579,3.579,0,0,1-.382-2.55c.861-6.234,2.126-12.433,2.624-18.692.361-4.537-2.094-8.507-4.413-12.353-4.562-7.565-9.184-15.1-13.584-22.749a52.015,52.015,0,0,1-3.2-7.822,2.78,2.78,0,0,0-3.131-2.056c-2.668.126-5.347.034-8.207.034,1.1,1.877,2.982,1.45,4.6,1.587a13.706,13.706,0,0,1,4.39.694c2.419,4.286,4.865,8.558,7.22,12.878a3.936,3.936,0,0,1,.082,1.957c-.232,3.907-.844,7.833-.611,11.712.155,2.6,1.3,5.218,2.383,7.668a4.993,4.993,0,0,1,.205,4.284c-2.122,5.664-3.942,11.435-5.865,17.168a1.772,1.772,0,0,0-.143,1,7.023,7.023,0,0,1-.8,6.776c-.4.565.308,2.116.848,3.023,1.051,1.762.552,2.972-1.163,3.731C833.855,545.323,830.48,545.068,826.564,543.787ZM760.646,368.794c.307.274,1.05,1.337,1.45,1.227,1.429-.4,3.455-.9,3.891-1.915.411-.955-.9-2.609-1.546-4.165l-2.893,2c1.7-.178,3.25-.681,3.835,2.222Zm23.744-7.964c-3.936-2.135-4.856-2.115-6.559.526Z"/><path d="M874.473,464.475q-.627,1.861-1.252,3.725l-.373-.074v-2.718l-.586-.123c-1.087,3.419-2.174,6.838-3.5,11.011a49.14,49.14,0,0,1,.035-5.159c.217-1.856,1.034-3.7.96-5.518a11.852,11.852,0,0,0-1.571-4.909c-1.15-2.135-2.662-4.085-4.093-6.222,8.466-2.805,16.355.4,19.068,7.9,1.489,4.119,2.021,8.6,2.659,12.967,1.2,8.218,4.231,15.252,12.033,19.76l-5.677-2.426c2.984,5.49,9.275,6.351,12.621,10.577-3.276-1.754-6.287-4.131-10.245-4.107l-.528.73a70.606,70.606,0,0,0,6.4,4.427,82.17,82.17,0,0,0,7.687,3.282c-5.309.089-9.656-1.7-13.956-3.877,2,3.725,5.4,5.676,9.225,7.446l-6.44-1.121c1.807,3.21,4.913,4.61,7.818,6.254-4.382-.578-7.894-2.848-10.982-5.611-11.736-10.5-18.982-23.073-18.507-39.072.07-2.362.01-4.729.01-7.093Z"/><path d="M795.93,348.333c-3.5-.079-5.816,4.684-9.74,1.352l4.387-2.873-.736,2.076,9.159-3.1-2.374,3.333,5.118.339-4.569,2.38h16.081l-8.406,3.028,12.363,4.022-.041.436-12.288-1.479-.163.417,6.826,3.414-.113.312-3.382-.488,10.26,11.562-.364.524-4.009-2.436-.278.2,6.582,7.044-5.8-1.782c3.268,3.872,6.663,7,11.747,7.865l-.292.927-9.856-1.963,10.157,7.174.031.316-8.012-2.329,2.544,3.806-.334.327-5.313-4.877-.594.437,7.4,9.948-.107.255-5.7-4.468-.406.2,5.966,8.962-.163.262-8.151-6.719-.568.453,9.22,11.143-.143.182-7.079-5.094-.618.616c1.006,3.478,3.716,5.858,5.958,8.739a22.819,22.819,0,0,1-2.588-1.835c-2.779-2.592-5.549-5.2-8.214-7.9-2.573-2.608-2.627-6.081-2.828-9.356-.519-8.506-.846-17.034-3.283-25.286-1.445-4.889-2.708-9.9-6.694-13.667a3.4,3.4,0,0,1-.569-2.1C795.869,351.288,795.93,349.93,795.93,348.333Z"/><path class="cls-7" d="M760.646,368.794l4.737-.63c-.585-2.9-2.137-2.4-3.835-2.222l2.893-2c.642,1.556,1.957,3.21,1.546,4.165-.436,1.016-2.462,1.519-3.891,1.915C761.7,370.131,760.953,369.068,760.646,368.794Z"/><path class="cls-7" d="M784.39,360.83l-6.559.526C779.534,358.715,780.454,358.7,784.39,360.83Z"/></g></g></svg>