<svg xmlns="http://www.w3.org/2000/svg" viewBox="0 0 30 30"><defs><style>.cls-1{fill:#fff;}</style></defs><title>fb</title><g id="Layer_2" data-name="Layer 2"><g id="Layer_1-2" data-name="Layer 1"><path d="M30,15A15,15,0,1,1,15,0,15,15,0,0,1,30,15Z"/><path class="cls-1" d="M22.3,6.8H7.7A.9.9,0,0,0,6.8,7.7V22.3A.9.9,0,0,0,7.7,23.2H15.56V16.85H13.422V14.374H15.56V12.548a2.983,2.983,0,0,1,3.185-3.273,17.63,17.63,0,0,1,1.91.1v2.215H19.344c-1.028,0-1.227.489-1.227,1.206v1.581h2.452L20.25,16.85H18.117V23.2H22.3A.9.9,0,0,0,23.2,22.3V7.7A.9.9,0,0,0,22.3,6.8Z"/></g></g></svg>