<svg xmlns="http://www.w3.org/2000/svg" viewBox="0 0 1280 624.54"><defs><style>.cls-1{fill:#828484;}.cls-2{fill:#fff;}</style></defs><title>header_1</title><g id="Layer_2" data-name="Layer 2"><g id="Layer_1-2" data-name="Layer 1"><rect y="477.24" width="1280" height="147.236"/><path class="cls-1" d="M805.824,239.454s-3.34-17.367,0-18.7,82.827,18.7,82.827,18.7L894,250.141l4.675,7.348s7.348,4.007,12.024,8.683,14.027,16.031,16.7,16.7,8.683,1.336,10.019,6.68,2,5.508,0,11.437-8.015,5.93-8.683,9.27-13.36-.668-18.7,0-22.711,4.007-34.734,4.675-18.035-2.672-26.719,4.676-18.7,19.371-18.7,24.047,2.672,17.367-2.672,23.378-13.359,12.692-19.37,14.7-60.381,58.778-60.381,58.778H643.276l-84.7-79.832,101.25-82.752,50.626-26.287,12.03.23s39.627-1.933,48.809-4.349,21.525.332,28.029-3.866Z"/><path d="M1029.1,624.54H150.4c.091-9.07.283-18.14.256-27.21q-.153-51.075-.421-102.15c-.056-13.5,8.235-24.982,21.8-28.269,8.3-2.013,12.244-7.329,14.845-14.465,4.958-13.606,13.9-23.576,26.65-30.375a19.96,19.96,0,0,0,6.589-5.81,56.134,56.134,0,0,1,29.335-21.216,14.85,14.85,0,0,0,6.684-4.568,60.463,60.463,0,0,1,21.048-16.892,18.358,18.358,0,0,0,6-4.786c7.112-8.73,15.618-15.75,26.534-18.535,5.864-1.5,8.044-4.885,10.34-9.7,12.94-27.161,28.17-52.692,55.257-68.3,8.6-4.952,17.755-9.557,27.251-12.1,6.528-1.744,8.49-3.725,8.513-10.252.02-5.382.87-11.561,8.677-12.526,1.568-.194,3.219-2.372,4.212-4.011,2.265-3.737,3.566-8.19,6.305-11.48,5.366-6.443,12.285-11.723,11.917-21.434-.078-2.065,1.259-4.4,2.475-6.255,2.985-4.565,2.443-8.73-.213-13.245-1.969-3.348-4.537-7.093-4.561-10.677-.049-7.091.449-14.516,2.548-21.231,6.135-19.62,13.565-38.837,19.642-58.474a27.016,27.016,0,0,1,12.11-15.5c11.133-7.1,22.441-13.917,33.579-21,1.785-1.136,3.831-2.822,4.425-4.68,1.442-4.508,2.1-9.267,3.209-14.565l-28.89-1.521c4.139-7.5,7.032-9.267,17.387-11.1,4.217-.749,9.764-.136,12.28-2.609,2.477-2.435,1.481-8.126,2.8-12.131.736-2.246,2.91-5.492,4.7-5.676C534.019.736,544.429.213,554.824,0c6.832-.138,11.3,4.4,12.669,10.944.367,1.756,2.176,3.6,3.813,4.6,1.859,1.137,4.246,1.463,6.44,1.99,10.718,2.573,16.65,9.786,19.5,20,1.157,4.15.149,7.149-4.6,7.7-7.3.855-14.6,1.816-21.935,2.223-3.2.178-5.659.729-4.929,4.254,2.2,10.639-3.092,17.859-10,24.876-3.769,3.831-7.206,8.542-3.862,14.564,4.269,7.688,7.767,16,13.13,22.843,11.712,14.942,27.112,22.739,46.709,20.315,4.489-.556,9.087-1.3,13.533-.872,5.56.53,9.361-1.591,12.986-5.366,1.186-1.235,3.5-1.382,5.305-2.027.618,1.846,1.284,3.677,1.843,5.541.924,3.085.809,7.346,2.853,9.06,5.169,4.337,11.156,7.463,18.5,7.449,11.986-.025,22.023-4.617,31.128-11.866,8.42-6.7,16.4-14.073,25.386-19.894,3.092-2,9.784-1.908,12.844.164,8.561,5.8,16.848,7.646,26.589,3.945,4.364-1.658,8.8-2.424,13.367.979,2.078,1.548,6.706,2.049,8.611.741,1.7-1.166,1.471-5.46,1.675-8.4.248-3.579.059-7.189.059-12.011,1.88,1.588,2.525,1.86,2.676,2.3,4.193,12.236,8.1,14.659,21.127,13.035a4.554,4.554,0,0,1,1.681-.171c7.438,2.2,10.6-2.328,13.388-8.057,1.592-3.265,3.994-6.135,6.031-9.184l1.445.874c-.7,3.448-2.493,7.121-1.845,10.294,1.025,5.015,5.025,3.716,8.718,1.356,1.482,2.64,2.922,4.83,3.992,7.187a8.479,8.479,0,0,1-4.413,11.757c-2.232,1.021-4.625,1.69-6.945,2.519,1.852,2.1,3.71,4.2,5.547,6.309.243.28.335.693.58.97,9.1,10.3,18.262,20.534,27.273,30.906,2.8,3.22,4.99,6.971,7.838,10.139,1.3,1.448,3.614,3.053,5.306,2.891,6.269-.6,8.518.854,7.6,7.293-.7,4.949.968,8.411,4.048,11.748,5.755,6.233,11.516,12.463,17.182,18.776,3.678,4.1,3.983,8.775.458,12.854-2.572,2.978-3.146,5.692-2.094,9.285,1.029,3.513.012,6.286-3.7,7.767a16.052,16.052,0,0,0-3.827,2.4c-7.3,5.744-14.8,5.86-21.948.121-1.752-1.408-3.045-3.406-4.851-4.718a5.193,5.193,0,0,0-4.092-.933c-.816.3-1.387,2.357-1.388,3.631-.007,7.583-.612,14.687-5.594,21.242-3.413,4.489-7.537,6.722-12.041,4.985-5.3-2.043-9.884-.676-14.874-.12-3.665.408-7.734.652-11.125-.5-18.93-6.424-37.659-13.441-56.56-19.956-10.142-3.5-20.419-6.673-30.809-9.308-1.893-.48-6.3,2-6.664,3.721-1.215,5.806-1.284,11.879-1.5,17.86-.283,7.73,3.477,15.655-1.5,23.239-.58.883,1.1,4.718,2.378,5.118,10.766,3.371,21.517,7.381,32.595,9.035,16.959,2.532,27.185,10.468,31.962,27.256a25.984,25.984,0,0,0,4.348,8.5c5.986,7.787,12.594,15.108,18.348,23.053,2.983,4.118,4.784,9.12,6.912,13.816a72.718,72.718,0,0,1,4.349,11.231,15.623,15.623,0,0,1-.229,7.351,23.428,23.428,0,0,1-2.357,5.284c6.908,4.322,13.94,7.055,18.5,12.046s6.643,12.226,10.11,19.067c.553-.061,2.221-.3,3.9-.423,12.033-.9,23.831,5.589,28.4,16.733,1.89,4.607,4.837,5.62,8.876,6.234,46,6.99,90.291,19.971,133.157,38,3.588,1.509,4.674,3.331,4.593,7.11C1030.535,543.963,1029.843,584.252,1029.1,624.54ZM374.033,356.65l-.16-.175,4.384,9.229c6.248-2.117,12.772-3.459,13.708-11.4,8.126,1.775,11.751-3.837,15.326-9.354a5.792,5.792,0,0,0-4.037,2.187c-3.139,4.7-7.629,6.671-10.759,3.848-1.716-1.547-3.729-5.284-3.012-6.491a16.282,16.282,0,0,1,7.358-6.009c3.291-1.418,3.518-.892,2.885-3.9-6.019,2.019-12.577,3.485-13.528,11.651-8.255-2.172-11.6,3.773-16.008,8.789ZM637.57,369.889c3.765,7.773,7.3,14.41,10.221,21.308a22.4,22.4,0,0,0,12.16,12.095c14.188,6.109,28.349,12.483,43.017,17.211,11.342,3.656,23.359,5.54,35.22,7.147,7.7,1.044,12.464-4.1,12.415-11.977a63.044,63.044,0,0,0-1.562-13.372c-1.767-7.836,1.61-13.068,9.222-14.63,2.867-.588,6.244-2.21,7.915-4.456,5.575-7.494,1.345-19.316-7.494-23-4.841-2.016-9.8-4.085-14.078-7.035-6.311-4.348-12.788-4.939-19.954-3.311q-20.427,4.641-40.928,8.947c-9.019,1.876-18.178,3.111-27.146,5.19C650.073,365.515,643.779,367.934,637.57,369.889ZM831.158,252.223c4.659-.592,11.272-1.111,17.72-2.435,2.077-.426,3.72-2.968,5.561-4.543-1.311-1.413-2.416-3.137-3.976-4.178-4.044-2.7-8.2-5.261-12.492-7.544-2.034-1.082-4.693-2.356-6.692-1.9-8.8,2.015-16.015-1.848-20.679-7.839-6.255-8.035-14.248-10.655-23.318-12.168-8.219-1.371-16.652-2.321-24.124,2.048-4.292,2.509-7.58,6.736-11.32,10.189,3,2.552,5.614,5.979,9.068,7.493,10.7,4.688,21.824,8.4,32.589,12.959A100.853,100.853,0,0,0,831.158,252.223ZM407.016,498.016c7.355,2.99,8.549,8.62,8.157,15.471a187.244,187.244,0,0,0-.009,20.422c.363,6.977-.489,13.1-9.462,16.809,12.523,0,23.1.009,33.679-.007a29.718,29.718,0,0,0,6.227-.211c9.531-2.087,19.48-3.232,28.406-6.863,11.263-4.581,15.69-17.459,11.031-28.028-3.731-8.467-11.2-12.578-19.66-14.914C446.274,495.421,426.72,498.115,407.016,498.016ZM254.943,551.231c-15.76-7.627-27.745-18.567-39.686-31.688l40.263-22.657H226.15c2.47,2.687,8.443,3.8,3.974,6.9-10.262,7.121-21.394,12.989-33.208,19.977,0-6.375-.618-11.009.184-15.383.721-3.938,3-7.59,4.634-11.473H172.856c6.761,4.612,7.156,5.281,7.169,13.378.013,8.891-.306,17.8.107,26.669.3,6.391-1.227,11.166-7.673,14.233h31.746c-6.582-4.442-9.432-13.491-7.16-19.739,1.048-2.882,6.431-4.76,8.72-2.8,5.166,4.422,10.209,8.993,15.207,13.605,2.909,2.685,3.355,5.571-1.641,8.976Zm61.667-.061h27.477c-10.26-5.852-10.71-6.654-10.709-17.365v-26.14c2.741,2.156,4.386,3.387,5.963,4.7q21.135,17.6,42.229,35.252c2.87,2.414,5.672,4.3,9.941,2.21,0-11.26.195-22.588-.068-33.906-.176-7.536-.351-14.777,7.98-18.888H375.248c2.875,3.366,7.157,6.085,7.528,9.26,1,8.587.344,17.368.344,27.012-12.7-10.521-25.155-19.565-36.019-30.231-9.372-9.2-19.932-5.765-30.356-6-.184,0-.379.513-.9,1.267,8.292,2.395,10.2,8.289,9.54,16.178a127.053,127.053,0,0,0,0,20.973C325.979,542.746,323.462,547.528,316.61,551.17Zm208.292-.016.487-1.086c-1.045-.737-2.463-1.252-3.059-2.256-1.406-2.364-3.555-5.07-3.326-7.438.344-3.567,3.171-5.436,7.374-5.23,7.16.351,14.36-.1,21.523.23a8.586,8.586,0,0,1,5.542,2.828c3.752,4.5,3.174,6.314-3.593,12.874h29.435c-17.884-15.6-27.29-36.506-41.93-53.826-8.5,11.81-16.583,23.4-25.076,34.686-5.008,6.655-10.67,12.817-16.052,19.218Zm396.226.022h37.231c-1.7-1.179-2.1-1.521-2.547-1.762-10.048-5.348-12.143-16.731-4.647-25.354,9.01-10.363,18.43-20.25,30.96-27.212H955.442c4.275,3.117,9.261,5.062,5.307,9.473-5.709,6.368-12.2,12.033-18.609,18.239-4.219-5.469-7.624-10.492-11.66-14.942s-5.278-8.195.467-12.8H900.232c3.351,2.962,6.387,5.115,8.76,7.844q10.029,11.535,19.547,23.508a15.023,15.023,0,0,1,2.655,6.413C932.757,542.871,928.885,547.9,921.128,551.176Zm-25.5-14.766c-13.769,12.45-29.541,6.705-44.876,8.062,0-10.878.291-20.879-.095-30.855-.289-7.449.235-13.934,10.084-15.508l-1.111-1.245H825.9c6.837,3.187,8.832,8.081,8.41,14.993a214.339,214.339,0,0,0-.021,23.26c.308,6.475-.723,11.94-8.545,15.233h69.894ZM677.2,499.775c-5.264-.577-10.166-.7-14.877-1.714-10.414-2.242-20.652-2.9-30.34,2.38-9.339,5.088-9.615,15.215-.521,20.618,3.349,1.989,7.252,3.11,10.99,4.367,7.148,2.4,14.488,4.3,21.467,7.109,2.173.874,4.928,4.148,4.741,6.062-.232,2.358-2.85,5.211-5.181,6.45-2.864,1.522-6.468,1.983-9.8,2.226a36.758,36.758,0,0,1-28.456-9.822v11.485c6.043.419,11.664.239,17.039,1.3,11.049,2.183,21.753,2.279,32.1-2.709,4.721-2.274,8.1-5.8,8.413-11.215.322-5.65-3.285-9.29-7.929-11.377-5.478-2.462-11.318-4.121-17.012-6.1-4.99-1.732-10.168-3.053-14.909-5.3-1.986-.942-4.5-4.082-4.187-5.737.4-2.157,3.087-4.4,5.331-5.553,2.224-1.143,5.121-1.33,7.721-1.325,9.372.019,18.206,1.867,25.408,9.63Zm99.356-1.534-.658-1.265H742.58c6.861,3.136,8.441,8.144,8.1,14.739-.381,7.357-.309,14.758-.023,22.124.265,6.821.2,13.249-8.74,16.459h70.029V536.512c-13.445,12.432-29.262,6.525-44.787,8.037,0-11.361.283-21.914-.1-32.443C766.8,505.028,768.421,499.741,776.552,498.241ZM697.191,551.1h29.841c-5.032-3.3-6.9-7.312-6.77-12.8.219-9.068.329-18.156-.034-27.214-.25-6.242,1.238-11.037,7.4-14.264H696.2q-.39.624-.778,1.248c7.846,1.812,8.574,7.319,8.4,13.62-.238,8.5-.283,17.018.018,25.514C704.046,543.072,702.37,547.564,697.191,551.1Zm-395.882.244c-5.155-3.585-6.815-7.85-6.617-13.524.3-8.494.256-17.011.018-25.508-.179-6.394-.031-12.352,7.328-15.483h-31.48c6.891,3.361,8.214,8.712,7.919,15.343-.344,7.733-.366,15.506.008,23.236.313,6.486-1.146,11.788-6.983,15.936ZM626.755,172.515q.078-1.326.158-2.654c-2.149-.718-4.25-1.825-6.453-2.094-15.167-1.852-30.395-3.243-45.52-5.37-8.965-1.261-17.78-3.593-26.686-5.448-.074,4.4.2,9.712,6.4,11.8,6.521,2.2,12.52,4.826,18.108,9.246,6.517,5.154,14.615,5.267,22.729,2.909C605.854,177.9,616.33,175.293,626.755,172.515Zm106.277,71.637c1.92.294,3.851.6,5.784.883,11.545,1.708,23.459,2.167,34.542,5.441,13.129,3.88,25.681,9.876,38.222,15.534,10.263,4.631,20.041,2.385,30.078-.807a25.72,25.72,0,0,0-8.25-1.381c-6.753-.378-13.925.582-20.182-1.378-19.3-6.046-37.306-15.164-54.737-25.48-16.534-9.785-15.837-9.611-25.235,5.446C733.08,242.689,733.153,243.123,733.032,244.152ZM652.688,587c-5.575-5.345-8.129-5.477-15.27-.8l-2.894-2.746c-.547,1.169-1.542,2.328-1.567,3.509-.14,6.424-.142,12.858.074,19.28.036,1.053,1.392,2.061,2.137,3.09.743-1.032,2.055-2.026,2.126-3.1.263-3.953.088-7.934.126-11.9.04-4.08,1.718-7.359,6.029-7.532,4.638-.185,5.831,3.545,6.035,7.381.2,3.771-.123,7.574.168,11.334.1,1.309,1.35,2.53,2.074,3.792.658-1.33,1.784-2.625,1.883-4,.271-3.762-.013-7.561.154-11.336.179-4.037,2.006-7.191,6.4-7.172,4.338.019,5.524,3.383,5.624,7.1.112,4.156-.1,8.328.177,12.47.069,1.034,1.468,1.979,2.256,2.964.7-.885,1.977-1.757,2-2.658a127.683,127.683,0,0,0-.205-15.861c-.573-5.677-5.309-9.006-10.43-7.55C657.148,583.948,655.014,585.7,652.688,587Zm-53.229,23.032c0-7.26.264-13.093-.083-18.89-.281-4.7-3.191-7.628-7.97-8.036-3.676-.314-7.5-.411-10.538,3.779,12.962-.142,12.962-.142,13.542,4.973-3.6,1.03-7.358,1.636-10.683,3.18-4.146,1.926-5.427,5.859-3.95,10.033,1.373,3.881,4.922,5.381,8.746,4.466C592.1,608.676,595.421,606.479,599.459,610.027Zm-41.3-33.1c4.392,0,8.152.128,11.892-.088.962-.055,1.861-1.195,2.789-1.837-.951-.624-1.885-1.757-2.855-1.788-5.393-.176-10.794-.085-16.616-.085,0,11.481-.059,22.2.089,32.925.016,1.1,1.273,2.185,1.954,3.276.841-1.125,2.324-2.206,2.4-3.384.294-4.254.116-8.54.116-12.485,4.87-1.95,10.176.977,13.915-2.124l-.359-2.266h-13.33Zm57.739,9.529-3.266-3.009c-.5,1.054-1.4,2.1-1.419,3.165-.125,6.587-.152,13.182.063,19.765.033,1.01,1.48,1.975,2.273,2.961.777-1,2.133-1.94,2.224-2.994a96.631,96.631,0,0,0,.1-10.158c-.084-4.373,1.08-7.7,5.936-8.937,1.036-.265,1.632-2.252,2.43-3.445l-1.75-1.413Z"/><path class="cls-2" d="M831.158,252.223a100.853,100.853,0,0,1-37.663-7.916c-10.765-4.555-21.888-8.271-32.589-12.959-3.454-1.514-6.069-4.941-9.068-7.493,3.74-3.453,7.028-7.68,11.32-10.189,7.472-4.369,15.9-3.419,24.124-2.048,9.07,1.513,17.063,4.133,23.318,12.168,4.664,5.991,11.878,9.854,20.679,7.839,2-.458,4.658.816,6.692,1.9,4.29,2.283,8.448,4.845,12.492,7.544,1.56,1.041,2.665,2.765,3.976,4.178-1.841,1.575-3.484,4.117-5.561,4.543C842.43,251.112,835.817,251.631,831.158,252.223Z"/><path class="cls-2" d="M407.016,498.016c19.7.1,39.258-2.6,58.369,2.679,8.463,2.336,15.929,6.447,19.66,14.914,4.659,10.569.232,23.447-11.031,28.028-8.926,3.631-18.875,4.776-28.406,6.863a29.718,29.718,0,0,1-6.227.211c-10.578.016-21.156.007-33.679.007,8.973-3.709,9.825-9.832,9.462-16.809a187.244,187.244,0,0,1,.009-20.422C415.565,506.636,414.371,501.006,407.016,498.016Zm24.331,48.149c11.725.236,22.271-1.708,31.144-9.159,9.145-7.681,9.224-19.779-.039-27.344-8.973-7.327-19.775-8.214-31.105-8.242Z"/><path class="cls-2" d="M254.943,551.231H219.331c5-3.4,4.55-6.291,1.641-8.976-5-4.612-10.041-9.183-15.207-13.605-2.289-1.96-7.672-.082-8.72,2.8-2.272,6.248.578,15.3,7.16,19.739H172.459c6.446-3.067,7.971-7.842,7.673-14.233-.413-8.872-.094-17.778-.107-26.669-.013-8.1-.408-8.766-7.169-13.378h28.878c-1.635,3.883-3.913,7.535-4.634,11.473-.8,4.374-.184,9.008-.184,15.383,11.814-6.988,22.946-12.856,33.208-19.977,4.469-3.1-1.5-4.215-3.974-6.9h29.37l-40.263,22.657C227.2,532.664,239.183,543.6,254.943,551.231Z"/><path class="cls-2" d="M316.61,551.17c6.852-3.642,9.369-8.424,8.774-15.674a127.053,127.053,0,0,1,0-20.973c.665-7.889-1.248-13.783-9.54-16.178.522-.754.717-1.271.9-1.267,10.424.231,20.984-3.2,30.356,6,10.864,10.666,23.321,19.71,36.019,30.231,0-9.644.66-18.425-.344-27.012-.371-3.175-4.653-5.894-7.528-9.26h24.175c-8.331,4.111-8.156,11.352-7.98,18.888.263,11.318.068,22.646.068,33.906-4.269,2.085-7.071.2-9.941-2.21q-21.051-17.7-42.229-35.252c-1.577-1.313-3.222-2.544-5.963-4.7V533.8c0,10.711.449,11.513,10.709,17.365Z"/><path class="cls-2" d="M524.9,551.154H496.227c5.382-6.4,11.044-12.563,16.052-19.218,8.493-11.283,16.573-22.876,25.076-34.686,14.64,17.32,24.046,38.226,41.93,53.826H549.85c6.767-6.56,7.345-8.374,3.593-12.874a8.586,8.586,0,0,0-5.542-2.828c-7.163-.33-14.363.121-21.523-.23-4.2-.206-7.03,1.663-7.374,5.23-.229,2.368,1.92,5.074,3.326,7.438.6,1,2.014,1.519,3.059,2.256Zm24.075-20.309-11.971-16.581-12.644,16.581Z"/><path class="cls-2" d="M921.128,551.176c7.757-3.275,11.629-8.305,10.066-16.593a15.023,15.023,0,0,0-2.655-6.413q-9.526-11.952-19.547-23.508c-2.373-2.729-5.409-4.882-8.76-7.844h30.715c-5.745,4.605-4.493,8.36-.467,12.8s7.441,9.473,11.66,14.942c6.407-6.206,12.9-11.871,18.609-18.239,3.954-4.411-1.032-6.356-5.307-9.473h26.683c-12.53,6.962-21.95,16.849-30.96,27.212-7.5,8.623-5.4,20.006,4.647,25.354.452.241.851.583,2.547,1.762Z"/><path class="cls-2" d="M895.633,536.41v13.94H825.739c7.822-3.293,8.853-8.758,8.545-15.233a214.339,214.339,0,0,1,.021-23.26c.422-6.912-1.573-11.806-8.41-14.993h33.74l1.111,1.245c-9.849,1.574-10.373,8.059-10.084,15.508.386,9.976.095,19.977.095,30.855C866.092,543.115,881.864,548.86,895.633,536.41Z"/><path class="cls-2" d="M677.2,499.775v10.776c-7.2-7.763-16.036-9.611-25.408-9.63-2.6,0-5.5.182-7.721,1.325-2.244,1.153-4.926,3.4-5.331,5.553-.311,1.655,2.2,4.8,4.187,5.737,4.741,2.25,9.919,3.571,14.909,5.3,5.694,1.976,11.534,3.635,17.012,6.1,4.644,2.087,8.251,5.727,7.929,11.377-.309,5.413-3.692,8.941-8.413,11.215-10.351,4.988-21.055,4.892-32.1,2.709-5.375-1.062-11-.882-17.039-1.3V537.451a36.758,36.758,0,0,0,28.456,9.822c3.334-.243,6.938-.7,9.8-2.226,2.331-1.239,4.949-4.092,5.181-6.45.187-1.914-2.568-5.188-4.741-6.062-6.979-2.807-14.319-4.7-21.467-7.109-3.738-1.257-7.641-2.378-10.99-4.367-9.094-5.4-8.818-15.53.521-20.618,9.688-5.277,19.926-4.622,30.34-2.38C667.03,499.075,671.932,499.2,677.2,499.775Z"/><path class="cls-2" d="M776.552,498.241c-8.131,1.5-9.748,6.787-9.492,13.865.382,10.529.1,21.082.1,32.443,15.525-1.512,31.342,4.395,44.787-8.037V550.3H741.917c8.936-3.21,9-9.638,8.74-16.459-.286-7.366-.358-14.767.023-22.124.341-6.595-1.239-11.6-8.1-14.739h33.314Z"/><path class="cls-2" d="M697.191,551.1c5.179-3.54,6.855-8.032,6.648-13.892-.3-8.5-.256-17.015-.018-25.514.177-6.3-.551-11.808-8.4-13.62q.389-.624.778-1.248h31.429c-6.165,3.227-7.653,8.022-7.4,14.264.363,9.058.253,18.146.034,27.214-.133,5.484,1.738,9.5,6.77,12.8Z"/><path class="cls-2" d="M301.309,551.348H271.5c5.837-4.148,7.3-9.45,6.983-15.936-.374-7.73-.352-15.5-.008-23.236.3-6.631-1.028-11.982-7.919-15.343h31.48c-7.359,3.131-7.507,9.089-7.328,15.483.238,8.5.278,17.014-.018,25.508C294.494,543.5,296.154,547.763,301.309,551.348Z"/><path class="cls-2" d="M626.755,172.515c-10.425,2.778-20.9,5.381-31.259,8.391-8.114,2.358-16.212,2.245-22.729-2.909-5.588-4.42-11.587-7.048-18.108-9.246-6.2-2.09-6.479-7.4-6.4-11.8,8.906,1.855,17.721,4.187,26.686,5.448,15.125,2.127,30.353,3.518,45.52,5.37,2.2.269,4.3,1.376,6.453,2.094Q626.834,171.189,626.755,172.515Z"/><path class="cls-2" d="M733.032,244.152c.121-1.029.048-1.463.222-1.742,9.4-15.057,8.7-15.231,25.235-5.446,17.431,10.316,35.434,19.434,54.737,25.48,6.257,1.96,13.429,1,20.182,1.378a25.72,25.72,0,0,1,8.25,1.381c-10.037,3.192-19.815,5.438-30.078.807-12.541-5.658-25.093-11.654-38.222-15.534-11.083-3.274-23-3.733-34.542-5.441C736.883,244.748,734.952,244.446,733.032,244.152Z"/><path class="cls-2" d="M652.688,587c2.326-1.3,4.46-3.047,6.894-3.739,5.121-1.456,9.857,1.873,10.43,7.55a127.683,127.683,0,0,1,.205,15.861c-.022.9-1.3,1.773-2,2.658-.788-.985-2.187-1.93-2.256-2.964-.276-4.142-.065-8.314-.177-12.47-.1-3.718-1.286-7.082-5.624-7.1-4.392-.019-6.219,3.135-6.4,7.172-.167,3.775.117,7.574-.154,11.336-.1,1.37-1.225,2.665-1.883,4-.724-1.262-1.973-2.483-2.074-3.792-.291-3.76.032-7.563-.168-11.334-.2-3.836-1.4-7.566-6.035-7.381-4.311.173-5.989,3.452-6.029,7.532-.038,3.97.137,7.951-.126,11.9-.071,1.077-1.383,2.071-2.126,3.1-.745-1.029-2.1-2.037-2.137-3.09-.216-6.422-.214-12.856-.074-19.28.025-1.181,1.02-2.34,1.567-3.509l2.894,2.746C644.559,581.518,647.113,581.65,652.688,587Z"/><path class="cls-2" d="M599.459,610.027c-4.038-3.548-7.361-1.351-10.936-.5-3.824.915-7.373-.585-8.746-4.466-1.477-4.174-.2-8.107,3.95-10.033,3.325-1.544,7.086-2.15,10.683-3.18-.58-5.115-.58-5.115-13.542-4.973,3.039-4.19,6.862-4.093,10.538-3.779,4.779.408,7.689,3.333,7.97,8.036C599.723,596.934,599.459,602.767,599.459,610.027Zm-4.994-13.81c-7.289-.349-10.52,1.542-10.38,5.818.114,3.465,2.2,4.5,5.254,4.239C593.746,605.9,595.355,602.833,594.465,596.217Z"/><path class="cls-2" d="M558.154,576.931v12.144h13.33l.359,2.266c-3.739,3.1-9.045.174-13.915,2.124,0,3.945.178,8.231-.116,12.485-.081,1.178-1.564,2.259-2.4,3.384-.681-1.091-1.938-2.175-1.954-3.276-.148-10.72-.089-21.444-.089-32.925,5.822,0,11.223-.091,16.616.085.97.031,1.9,1.164,2.855,1.788-.928.642-1.827,1.782-2.789,1.837C566.306,577.059,562.546,576.931,558.154,576.931Z"/><path class="cls-2" d="M374.033,356.65l-3.843-1.628c4.4-5.016,7.753-10.961,16.008-8.789.951-8.166,7.509-9.632,13.528-11.651.633,3.009.406,2.483-2.885,3.9a16.282,16.282,0,0,0-7.358,6.009c-.717,1.207,1.3,4.944,3.012,6.491,3.13,2.823,7.62.852,10.759-3.848a5.792,5.792,0,0,1,4.037-2.187c-3.575,5.517-7.2,11.129-15.326,9.354-.936,7.943-7.46,9.285-13.708,11.4-1.325-2.789-2.854-6.009-4.381-9.227,1.122.908,2.734,1.587,3.277,2.76,2.269,4.907,5.521,2.666,8.347,1.16,3.441-1.832,4.739-4.966,2.736-8.542-1.813-3.236-4.935-5.442-8.356-2.946C377.38,350.734,375.943,354.017,374.033,356.65Z"/><path class="cls-2" d="M615.893,586.46l6.592-4.065,1.75,1.413c-.8,1.193-1.394,3.18-2.43,3.445-4.856,1.242-6.02,4.564-5.936,8.937a96.631,96.631,0,0,1-.1,10.158c-.091,1.054-1.447,2-2.224,2.994-.793-.986-2.24-1.951-2.273-2.961-.215-6.583-.188-13.178-.063-19.765.02-1.064.924-2.111,1.419-3.165Z"/><path d="M431.347,546.165V501.42c11.33.028,22.132.915,31.105,8.242,9.263,7.565,9.184,19.663.039,27.344C453.618,544.457,443.072,546.4,431.347,546.165Z"/><path d="M548.977,530.845H524.362l12.644-16.581Z"/><path d="M594.465,596.217c.89,6.616-.719,9.679-5.126,10.057-3.056.261-5.14-.774-5.254-4.239C583.945,597.759,587.176,595.868,594.465,596.217Z"/><path d="M374.033,356.65c1.91-2.633,3.347-5.916,5.847-7.741,3.421-2.5,6.543-.29,8.356,2.946,2,3.576.7,6.71-2.736,8.542-2.826,1.506-6.078,3.747-8.347-1.16-.543-1.173-2.155-1.852-3.277-2.76Z"/></g></g></svg>