<svg xmlns="http://www.w3.org/2000/svg" viewBox="0 0 30 30"><defs><style>.cls-1{fill:#fff;fill-rule:evenodd;}</style></defs><title>insta</title><g id="Layer_2" data-name="Layer 2"><g id="Layer_1-2" data-name="Layer 1"><path d="M30,15A15,15,0,1,1,15,0,15,15,0,0,1,30,15Z"/><path class="cls-1" d="M21.462,23.4H8.538A1.939,1.939,0,0,1,6.6,21.461V8.538A1.938,1.938,0,0,1,8.538,6.6H21.462A1.938,1.938,0,0,1,23.4,8.538V21.461A1.939,1.939,0,0,1,21.462,23.4M15,11.769A3.231,3.231,0,1,0,18.231,15,3.23,3.23,0,0,0,15,11.769m6.462-2.585a.647.647,0,0,0-.647-.646H18.877a.646.646,0,0,0-.646.646v1.939a.646.646,0,0,0,.646.646h1.938a.647.647,0,0,0,.647-.646V9.184Zm0,4.523H20a5.169,5.169,0,1,1-10,0H8.538v7.108a.646.646,0,0,0,.647.646h11.63a.647.647,0,0,0,.647-.646V13.707Z"/></g></g></svg>