<svg xmlns="http://www.w3.org/2000/svg" viewBox="0 0 776.308 550.182"><defs><style>.cls-1{fill:#828484;}.cls-2{fill:#fff;}</style></defs><title>KSFlogo</title><g id="Layer_2" data-name="Layer 2"><g id="Layer_40" data-name="Layer 40"><path class="cls-1" d="M491.145,214.082c21.9-.674,44.213-5.02,65.967-7.578,1.624-.191,3.389-.45,4.508-1.642a7.082,7.082,0,0,0,1.427-3.971c.6-4.228-.08-13.606,4.294-15.432,1.529-.638,3.888-.181,5.467-.048,6.46.544,12.895,2.1,19.193,3.565,12.9,3,25.676,6.538,38.374,10.283q1.386.408,2.77.823v10c6.349,4.041,12.729,8.039,19.057,12.113,4.192,2.7,5.742,6.87,9.206,10.454a31.52,31.52,0,0,0,14.548,8.6,6.808,6.808,0,0,1,2.918,1.221c1.349,1.2,1.371,3.266,1.291,5.071-.16,3.607-.338,7.3-1.7,10.643s-4.155,6.338-7.72,6.912c-2.262.365-4.549-.259-6.819-.564-7.7-1.034-15.339,1.6-22.924,3.261a93.366,93.366,0,0,1-21.428,2.156c-5.085-.079-10.3-.557-15.152.968-6.195,1.946-11.094,7.084-13.617,13.066s-2.846,12.723-1.863,19.141c.454,2.963,1.146,6.146-.174,8.836-.924,1.884-2.69,3.189-4.391,4.417q-16.549,11.952-33.235,23.706l-21,62-114-16-80-78,90-92Z"/><path d="M774.145,550.082H.145C.226,540.592.4,531.1.37,521.614Q.247,478.876,0,436.139c-.052-11.894,7.25-22.008,19.2-24.9,7.313-1.772,10.789-6.45,13.079-12.736a48.044,48.044,0,0,1,23.469-26.759,17.566,17.566,0,0,0,5.807-5.114,49.458,49.458,0,0,1,25.834-18.693,13.085,13.085,0,0,0,5.892-4.016,53.243,53.243,0,0,1,18.535-14.884,16.176,16.176,0,0,0,5.285-4.21c6.261-7.693,13.753-13.872,23.365-16.335,5.153-1.319,7.095-4.29,9.117-8.535,11.4-23.926,24.807-46.414,48.663-60.162,7.57-4.363,15.637-8.409,24-10.662,5.714-1.54,7.511-3.231,7.519-9.012.006-4.73.744-10.188,7.622-11.046,1.388-.173,2.848-2.078,3.731-3.519,2.1-3.419,3.324-7.5,5.884-10.476,4.75-5.511,10.422-10.192,10.174-18.514-.059-1.972,1.255-4.157,2.39-5.958,2.347-3.722,1.908-7.1-.155-10.778-1.761-3.136-4.2-6.53-4.257-9.846a59.934,59.934,0,0,1,2.229-18.7c5.562-17.755,11.978-35.242,17.877-52.894,1.245-3.726,2.584-7.018,6.114-9.242q16.648-10.485,33.089-21.3c1.8-1.183,3.752-2.932,4.424-4.844,1.326-3.767,1.8-7.833,2.757-12.369L296.1,29.3c3.383-7.082,9.131-8.82,15.385-9.79,3.73-.579,8.6-.091,10.831-2.266,2.185-2.134,1.321-7.147,2.477-10.673.652-1.986,2.546-4.878,4.113-5.034C338.178.616,347.515.105,356.835,0c5.793-.065,9.536,4.005,10.7,9.555a7.242,7.242,0,0,0,3.323,4.078c1.805,1.053,4.067,1.351,6.154,1.889,9.409,2.428,14.458,8.933,16.847,17.939.958,3.615-.355,5.879-4.119,6.33-6.428.771-12.861,1.668-19.318,1.969-3.19.148-5.072.894-4.355,4.206,1.9,8.78-2.5,14.922-8.114,20.707-3.806,3.924-7.192,8.149-4,14.006,3.633,6.656,6.762,13.76,11.4,19.659,10.331,13.151,23.865,20.06,41.126,17.93,3.793-.468,7.69-1.24,11.42-.816,5.27.6,8.948-1.221,12.265-5.036.864-.993,3.253-1.749,4.246-1.244,1.06.537,1.43,2.658,1.863,4.157.829,2.868.555,6.862,2.405,8.469,4.478,3.889,9.794,6.61,16.261,6.612,10.561,0,19.4-4.045,27.43-10.414,7.426-5.893,14.446-12.393,22.358-17.525,2.734-1.774,8.647-1.754,11.316.069,7.529,5.142,14.822,6.779,23.409,3.535,3.842-1.451,7.742-2.195,11.777.812,1.842,1.373,5.89,1.853,7.6.719,1.5-1,1.355-4.791,1.544-7.378.232-3.174.055-6.377.055-9.568,1.727.394,2.324.81,2.491,1.358,3.021,9.944,7.541,12.782,17.891,11.171a5.048,5.048,0,0,1,1.971-.235c6.508,1.891,9.384-1.932,11.832-7.046,1.393-2.911,3.539-5.462,5.347-8.175l1.266.743c-.62,3.033-2.191,6.251-1.643,9.056.869,4.455,4.346,3.462,7.7,1.211,1.36,2.471,2.7,4.543,3.684,6.776a7.6,7.6,0,0,1-4.422,10.169c-1.834.656-3.787.976-5.686,1.448q2.1,2.627,4.191,5.255c.309.391.545.843.873,1.216,8.212,9.329,16.482,18.608,24.62,28,2.354,2.717,4.166,5.908,6.558,8.586,1.148,1.286,3.145,2.764,4.625,2.635,5.695-.5,6.867.808,6.984,6.839a15.765,15.765,0,0,0,2.795,8.979c4.835,6.1,10.434,11.6,15.641,17.412,3.391,3.788,3.038,7.63.392,11.865a11.952,11.952,0,0,0-1.723,7.106c.4,3.608.02,6.239-3.682,7.651a7.509,7.509,0,0,0-2.561,1.526c-6.468,6.352-17.307,4.75-22.328-1.8-.6-.788-1.2-1.793-2.035-2.139a5.833,5.833,0,0,0-3.7-.411c-.559.18-.879,1.933-.857,2.965.151,6.885-.586,13.318-5.106,19.145-2.9,3.741-6.545,5.523-10.319,4.06-4.641-1.8-8.7-.671-13.1-.149-3.224.382-6.814.611-9.8-.4-16.677-5.649-33.176-11.82-49.825-17.557-8.933-3.079-17.98-5.89-27.13-8.22-1.7-.433-5.634,1.684-5.948,3.171-1.08,5.112-1.147,10.462-1.347,15.731-.259,6.807,3.095,13.781-1.274,20.472-.53.812.882,4.215,1.979,4.56,9.48,2.98,18.945,6.541,28.7,7.984,15.022,2.22,24.072,9.2,28.234,23.922a24.248,24.248,0,0,0,4.1,7.9c5.156,6.737,10.882,13.05,15.848,19.916,2.626,3.63,5.1,7.878,5.935,12.179,1.376,7.1,8.675,14.041,1.506,21.772-.1.105.2.578.39,1.073,14.1,2.609,21.847,11.419,23.517,25.42a5.337,5.337,0,0,0,1.41.24c12.485-2.68,25.907,4.955,29.813,16.455.428,1.26,2.558,2.439,4.082,2.745,7.828,1.569,15.756,2.64,23.575,4.249a511.713,511.713,0,0,1,100.258,31.595v58c-.255,2.614-.661,5.225-.742,7.845C774.941,519.977,774.557,535.03,774.145,550.082ZM197.128,314.112l-.14-.155,3.862,8.13c5.5-1.866,11.25-3.048,12.074-10.044,7.158,1.563,10.351-3.38,13.5-8.239a5.1,5.1,0,0,0-3.556,1.926c-2.765,4.14-6.72,5.876-9.477,3.39-1.512-1.364-3.285-4.655-2.653-5.719a14.351,14.351,0,0,1,6.481-5.293c2.9-1.248,3.1-.785,2.541-3.435-5.3,1.778-11.078,3.069-11.916,10.262-7.271-1.913-10.222,3.324-14.1,7.742Zm232.136,11.661c3.312,6.838,6.428,12.684,9,18.76a19.731,19.731,0,0,0,10.707,10.658c12.5,5.381,24.97,11,37.89,15.162,9.991,3.221,20.576,4.881,31.023,6.3,6.788.921,10.987-3.611,10.946-10.54a55.361,55.361,0,0,0-1.374-11.779c-1.559-6.906,1.413-11.522,8.112-12.895,2.526-.517,5.5-1.94,6.977-3.918,4.9-6.577,1.173-17.027-6.587-20.262a67.338,67.338,0,0,1-12.4-6.195c-5.558-3.83-11.262-4.358-17.575-2.924q-17.993,4.086-36.051,7.88c-7.945,1.653-16.013,2.741-23.912,4.571C440.287,321.917,434.741,324.048,429.264,325.773ZM599.9,222.12c4.062-.519,9.875-1.023,15.57-2.134,1.738-.339,3.149-2.348,4.71-3.593-1.138-1.392-2.041-3.125-3.462-4.109a100.787,100.787,0,0,0-10.57-6.395c-1.94-1.016-4.422-2.284-6.32-1.873-7.761,1.683-14.077-1.711-18.2-6.987-5.394-6.9-12.243-9.242-20.065-10.6-7.582-1.318-15.32-2.041-22.212,1.917-3.642,2.091-6.322,5.855-9.436,8.864,2.518,2.155,4.709,5.059,7.614,6.327,9.583,4.184,19.507,7.583,29.146,11.65A88.619,88.619,0,0,0,599.9,222.12ZM226.842,484.989c10.658,0,21.328.314,31.971-.092,9.831-.376,19.7-1.44,28.291-6.946,11.96-7.667,12.8-24,.98-31.68a45.173,45.173,0,0,0-19.432-6.834c-13.049-1.3-26.264-.949-39.411-1.248a20.59,20.59,0,0,0-2.916.34c6.213,2.706,7.338,7.463,7.043,13.362a195.416,195.416,0,0,0,0,19.989C233.676,477.622,232.073,481.96,226.842,484.989Zm-159.2-47.474c5.245,3.8,5.352,5.022.283,8.258-4.344,2.773-8.823,5.346-13.327,7.854-4.226,2.354-8.565,4.507-12.854,6.749,1.048-7.982-4.612-16.86,6.172-22.635H20.021c4.828,2.513,6.482,5.885,6.295,10.89-.292,7.822-.29,15.669,0,23.491.208,5.727-.358,10.687-6.715,13.269H46.405c-7.079-3.561-5.3-9.742-5.11-15,.064-1.754,1.913-3.986,3.561-4.952,1.113-.653,3.71.008,4.934.977,4.17,3.3,8.048,6.975,11.992,10.557,2.709,2.46,3.908,5.124-.449,8.456H92.214c-13.761-6.557-24.43-16.244-34.934-27.852l35.636-20.066ZM205.363,469.9c-11.365-9.411-22.391-17.312-31.87-26.763-8.266-8.242-17.6-4.915-26.742-5.372-.2-.01-.414.425-1.014,1.083,7.4,2.093,9.115,7.294,8.531,14.231a108.733,108.733,0,0,0-.006,17.478c.52,6.683-1.048,11.8-7.8,14.941h22.687c-2.685-2.862-7.106-5.369-7.384-8.274-.921-9.619-.348-19.382-.348-29.992,2.25,1.76,3.691,2.827,5.066,3.972,12.413,10.335,24.748,20.766,37.284,30.95,2.139,1.737,5.122,2.435,8.753,4.085,0-12.131.252-22.441-.091-32.73-.218-6.538.418-12.244,7.151-15.785H198.65c2.334,3.317,5.947,6.229,6.417,9.582C206.046,454.3,205.363,461.524,205.363,469.9ZM330.077,485.47l.311-.979c-.916-.665-2.162-1.137-2.682-2.032-1.214-2.09-3.067-4.481-2.858-6.57.318-3.179,2.866-4.734,6.536-4.55,6.141.307,12.318-.112,18.459.2a8.613,8.613,0,0,1,5.36,2.544c4.217,4.58.967,7.753-3.916,11.254h26.281c-15.185-13.934-23.835-32.06-36.549-47.391-3.46,4.79-6.43,9.413-9.907,13.617-9.125,11.033-14.588,25.078-28.723,33.9Zm402.8-47.719H709.442c4.007,2.772,7.916,4.6,4.311,8.473-5.048,5.422-10.614,10.362-16.221,15.76-3.706-4.8-6.861-9.291-10.449-13.407-3.3-3.787-4.62-7.038.585-10.867H660.846c2.839,2.514,5.406,4.334,7.407,6.643,5.987,6.909,11.7,14.056,17.624,21.021,4.228,4.97,2.817,14.025-2.847,17.228-1.31.74-2.683,1.367-4.027,2.046l.189.695H710.52c-7.726-4.928-11.856-15.267-7.321-20.909C711.44,454.182,720.324,444.463,732.879,437.751ZM594.985,484.745h61.45V472.589c-11.949,10.828-25.854,5.764-39.384,6.972,0-9.56.248-18.367-.081-27.152-.247-6.561.183-12.309,8.847-13.7q-.461-.552-.92-1.1H595.138c6.384,2.831,7.758,7.541,7.413,13.686a180.919,180.919,0,0,0,0,20.488C602.881,477.438,601.584,481.879,594.985,484.745Zm-176.778-1.308c5.472.451,10.706.485,15.786,1.385,9.749,1.727,19.276,1.842,28.244-2.848,9.019-4.716,9.317-14.042.57-19.146-3.392-1.979-7.313-3.089-11.055-4.419-6.1-2.168-12.35-3.959-18.32-6.433-1.559-.646-3.3-3.306-3.172-4.892.136-1.633,2.183-3.7,3.892-4.466a19.8,19.8,0,0,1,7.768-1.414c8.213-.054,15.907,1.73,22.187,8.291v-9.674c-3.672-.161-6.968-.256-10.258-.458-7.238-.445-14.508-1.62-21.7-1.241-7.943.418-13.5,5.591-14.041,11.274-.51,5.361,3.45,9.536,11.765,12.223,7.274,2.351,14.7,4.294,21.806,7.067,2.195.857,5.173,4.093,4.909,5.794-.356,2.307-3.208,5.493-5.486,5.98-5.258,1.125-11.008,1.861-16.2.874-5.789-1.1-11.183-4.286-16.695-6.541Zm125.207-3.857c0-9.176.127-17.634-.041-26.087-.131-6.568-.768-13.2,7.695-15.754H521.784c5.8,2.68,7.39,6.824,7.11,12.51-.318,6.482-.176,12.994-.043,19.489.122,6.011.662,12.083-7.863,14.931h61.853v-12.1C570.974,483.455,557.066,478.335,543.414,479.58Zm-62.432-42.006c5.33,2.895,6.84,6.761,6.653,12.022-.26,7.316-.235,14.655-.009,21.974.172,5.552-.294,10.59-5.911,13.867H508.1c-4.673-2.955-6.135-6.754-6-11.72.208-7.82.283-15.658-.022-23.472-.216-5.517.956-9.855,6.591-12.671ZM133.164,485.585c-5.017-4.162-5.842-5.629-5.852-11.519-.013-8.156.231-16.322-.085-24.466-.212-5.465,1.269-9.432,6.75-11.956H106c5.427,2.9,7.254,6.914,6.966,12.6-.338,6.642-.235,13.318-.033,19.97.181,5.943.111,11.614-6.022,15.374Zm286.611-333.7.075-2.354c-1.907-.618-3.775-1.565-5.728-1.8-13.525-1.646-27.105-2.888-40.593-4.787-7.717-1.086-15.3-3.162-22.887-4.782-.268,4.07.258,8.708,5.662,10.45a51.3,51.3,0,0,1,15.923,8.188c5.835,4.476,12.918,4.559,20.047,2.5C401.393,156.659,410.6,154.34,419.775,151.884Zm92.955,63.08c2.107.362,3.532.743,4.975.834,15.837,1,31.249,3.581,45.73,10.637a228.778,228.778,0,0,0,21.659,8.857c8.132,2.976,16.094,1.067,23.957-1.958-2.849-.928-5.7-.8-8.534-.956-5.78-.324-11.928.334-17.255-1.432-16.9-5.6-32.754-13.571-48.122-22.66-13.258-7.84-13.255-8.33-20.929,4.158C513.876,212.989,513.562,213.547,512.73,214.964ZM426.475,513.49l-1.293.78c0,6.646-.06,13.293.076,19.936.017.836,1.068,1.65,1.639,2.474.738-.825,2.053-1.611,2.111-2.482.246-3.648.06-7.322.138-10.985.076-3.626,1.751-6.385,5.538-6.407,3.748-.022,4.887,3.061,5.059,6.27.187,3.488-.059,7,.156,10.485.065,1.055,1.032,2.054,1.586,3.079.662-1.083,1.809-2.129,1.894-3.256.264-3.479.006-6.993.171-10.483.16-3.361,1.8-5.958,5.366-6.078,3.809-.127,5.074,2.677,5.18,6.01.121,3.827-.037,7.665.17,11.485.044.817,1.135,1.576,1.744,2.362.7-.7,1.981-1.379,2-2.09.109-4.822.379-9.7-.229-14.462-.785-6.144-6.887-8.571-12.092-5.2-1.057.685-2,1.547-2.961,2.3-5.015-4.948-7.708-5.05-13.439-.8Zm-35.226,7.8c-3.169.908-6.469,1.463-9.415,2.8-3.439,1.56-5,5.021-3.465,8.286a9.124,9.124,0,0,0,6.253,4.4c3.561.394,7.294-.764,11.073-1.28,0-4.6.232-9.735-.073-14.841-.248-4.144-2.812-6.719-7.022-7.078-3.237-.276-6.6-.362-9.28,3.331C390.739,516.778,390.739,516.778,391.249,521.29Zm-36.156-16.482c0,10.087-.054,19.685.091,29.28.013.876,1.3,1.732,1.991,2.6.646-.918,1.8-1.809,1.848-2.759.212-3.888.089-7.8.089-11.172,4.462-1.869,9.07,1.181,12.218-2.134L371.157,519H359.418V508.151c3.578,0,6.874.1,10.155-.068.905-.048,1.767-.925,2.649-1.421-.759-.618-1.5-1.744-2.28-1.771C365.17,504.725,360.39,504.808,355.093,504.808Zm62.488,9.408-1.316-1.283-6.135,3.574-2.979-2.6a12.38,12.38,0,0,0-1.113,3.414c-.116,5.3-.176,10.62.064,15.917.053,1.182,1.4,2.3,2.15,3.456.635-1.092,1.7-2.139,1.818-3.285a62.019,62.019,0,0,0,.078-7.952c-.1-4,.772-7.186,5.383-8.241C416.4,517.018,416.907,515.256,417.581,514.216Z"/><path class="cls-2" d="M774.145,550.082c.412-15.052.8-30.105,1.258-45.155.081-2.62.487-5.231.742-7.845,0,16.666.018,33.333-.034,50C776.107,548.351,777.23,550.694,774.145,550.082Z"/><path class="cls-2" d="M226.842,484.989c5.231-3.029,6.834-7.367,6.531-13.109a195.416,195.416,0,0,1,0-19.989c.3-5.9-.83-10.656-7.043-13.362a20.59,20.59,0,0,1,2.916-.34c13.147.3,26.362-.053,39.411,1.248a45.173,45.173,0,0,1,19.432,6.834c11.819,7.683,10.98,24.013-.98,31.68-8.589,5.506-18.46,6.57-28.291,6.946C248.17,485.3,237.5,484.989,226.842,484.989Zm20.766-3.949c10.659.2,20.107-1.612,27.935-8.506,7.109-6.26,7.561-15.808.781-22.377-7.994-7.745-18.164-8.462-28.716-8.47Z"/><path class="cls-2" d="M67.642,437.515H92.916L57.28,457.581c10.5,11.608,21.173,21.295,34.934,27.852H61.333c4.357-3.332,3.158-6,.449-8.456-3.944-3.582-7.822-7.255-11.992-10.557-1.224-.969-3.821-1.63-4.934-.977-1.648.966-3.5,3.2-3.561,4.952-.192,5.254-1.969,11.435,5.11,15H19.6c6.357-2.582,6.923-7.542,6.715-13.269-.285-7.822-.287-15.669,0-23.491.187-5-1.467-8.377-6.295-10.89H47.916c-10.784,5.775-5.124,14.653-6.172,22.635,4.289-2.242,8.628-4.395,12.854-6.749,4.5-2.508,8.983-5.081,13.327-7.854C72.994,442.537,72.887,441.31,67.642,437.515Z"/><path class="cls-2" d="M205.363,469.9c0-8.377.683-15.6-.3-22.594-.47-3.353-4.083-6.265-6.417-9.582h20.934c-6.733,3.541-7.369,9.247-7.151,15.785.343,10.289.091,20.6.091,32.73-3.631-1.65-6.614-2.348-8.753-4.085-12.536-10.184-24.871-20.615-37.284-30.95-1.375-1.145-2.816-2.212-5.066-3.972,0,10.61-.573,20.373.348,29.992.278,2.9,4.7,5.412,7.384,8.274H146.466c6.748-3.137,8.316-8.258,7.8-14.941a108.733,108.733,0,0,1,.006-17.478c.584-6.937-1.136-12.138-8.531-14.231.6-.658.818-1.093,1.014-1.083,9.138.457,18.476-2.87,26.742,5.372C182.972,452.589,194,460.49,205.363,469.9Z"/><path class="cls-2" d="M330.077,485.47H302.389c14.135-8.826,19.6-22.871,28.723-33.9,3.477-4.2,6.447-8.827,9.907-13.617,12.714,15.331,21.364,33.457,36.549,47.391H351.287c4.883-3.5,8.133-6.674,3.916-11.254a8.613,8.613,0,0,0-5.36-2.544c-6.141-.315-12.318.1-18.459-.2-3.67-.184-6.218,1.371-6.536,4.55-.209,2.089,1.644,4.48,2.858,6.57.52.895,1.766,1.367,2.682,2.032Zm10.439-32.358-10.755,14.169h21.3c-3.04-4.225-5.643-7.866-8.277-11.484C342.207,455,341.515,454.285,340.516,453.112Z"/><path class="cls-2" d="M732.879,437.751c-12.555,6.712-21.439,16.431-29.68,26.683-4.535,5.642-.4,15.981,7.321,20.909H679.192l-.189-.695c1.344-.679,2.717-1.306,4.027-2.046,5.664-3.2,7.075-12.258,2.847-17.228-5.925-6.965-11.637-14.112-17.624-21.021-2-2.309-4.568-4.129-7.407-6.643h26.822c-5.205,3.829-3.886,7.08-.585,10.867,3.588,4.116,6.743,8.61,10.449,13.407,5.607-5.4,11.173-10.338,16.221-15.76,3.6-3.871-.3-5.7-4.311-8.473Z"/><path class="cls-2" d="M594.985,484.745c6.6-2.866,7.9-7.307,7.571-12.966a180.919,180.919,0,0,1,0-20.488c.345-6.145-1.029-10.855-7.413-13.686H624.9q.46.55.92,1.1c-8.664,1.392-9.094,7.14-8.847,13.7.329,8.785.081,17.592.081,27.152,13.53-1.208,27.435,3.856,39.384-6.972v12.156Z"/><path class="cls-2" d="M418.207,483.437v-8.644c5.512,2.255,10.906,5.439,16.695,6.541,5.193.987,10.943.251,16.2-.874,2.278-.487,5.13-3.673,5.486-5.98.264-1.7-2.714-4.937-4.909-5.794-7.106-2.773-14.532-4.716-21.806-7.067-8.315-2.687-12.275-6.862-11.765-12.223.541-5.683,6.1-10.856,14.041-11.274,7.191-.379,14.461.8,21.7,1.241,3.29.2,6.586.3,10.258.458V449.5c-6.28-6.561-13.974-8.345-22.187-8.291a19.8,19.8,0,0,0-7.768,1.414c-1.709.762-3.756,2.833-3.892,4.466-.132,1.586,1.613,4.246,3.172,4.892,5.97,2.474,12.219,4.265,18.32,6.433,3.742,1.33,7.663,2.44,11.055,4.419,8.747,5.1,8.449,14.43-.57,19.146-8.968,4.69-18.5,4.575-28.244,2.848C428.913,483.922,423.679,483.888,418.207,483.437Z"/><path class="cls-2" d="M543.414,479.58c13.652-1.245,27.56,3.875,39.427-7.01v12.1H520.988c8.525-2.848,7.985-8.92,7.863-14.931-.133-6.5-.275-13.007.043-19.489.28-5.686-1.31-9.83-7.11-12.51h29.284c-8.463,2.556-7.826,9.186-7.695,15.754C543.541,461.946,543.414,470.4,543.414,479.58Z"/><path class="cls-2" d="M480.982,437.574H508.67c-5.635,2.816-6.807,7.154-6.591,12.671.305,7.814.23,15.652.022,23.472-.132,4.966,1.33,8.765,6,11.72H481.715c5.617-3.277,6.083-8.315,5.911-13.867-.226-7.319-.251-14.658.009-21.974C487.822,444.335,486.312,440.469,480.982,437.574Z"/><path class="cls-2" d="M133.164,485.585H106.912c6.133-3.76,6.2-9.431,6.022-15.374-.2-6.652-.3-13.328.033-19.97.288-5.683-1.539-9.7-6.966-12.6h27.976c-5.481,2.524-6.962,6.491-6.75,11.956.316,8.144.072,16.31.085,24.466C127.322,479.956,128.147,481.423,133.164,485.585Z"/><path class="cls-2" d="M426.475,513.49l2.811,2.939c5.731-4.249,8.424-4.147,13.439.8.962-.755,1.9-1.617,2.961-2.3,5.205-3.371,11.307-.944,12.092,5.2.608,4.758.338,9.64.229,14.462-.016.711-1.3,1.394-2,2.09-.608-.786-1.7-1.545-1.743-2.362-.207-3.82-.049-7.658-.17-11.485-.106-3.333-1.371-6.137-5.18-6.01-3.569.12-5.206,2.717-5.366,6.078-.165,3.49.093,7-.171,10.483-.085,1.127-1.232,2.173-1.894,3.256-.554-1.025-1.521-2.024-1.586-3.079-.215-3.485.031-7-.156-10.485-.172-3.209-1.311-6.292-5.059-6.27-3.787.022-5.462,2.781-5.538,6.407-.078,3.663.108,7.337-.138,10.985-.058.871-1.373,1.657-2.111,2.482-.571-.824-1.622-1.638-1.639-2.474-.136-6.643-.076-13.29-.076-19.936Z"/><path class="cls-2" d="M391.249,521.29c-.51-4.512-.51-4.512-11.929-4.379,2.676-3.693,6.043-3.607,9.28-3.331,4.21.359,6.774,2.934,7.022,7.078.305,5.106.073,10.244.073,14.841-3.779.516-7.512,1.674-11.073,1.28a9.124,9.124,0,0,1-6.253-4.4c-1.535-3.265.026-6.726,3.465-8.286C384.78,522.753,388.08,522.2,391.249,521.29Zm.051,3.847c-6.414-.315-9.267,1.35-9.147,5.116.1,3.049,1.926,3.969,4.622,3.74C390.657,533.663,392.077,530.968,391.3,525.137Z"/><path class="cls-2" d="M355.093,504.808c5.3,0,10.077-.083,14.849.083.78.027,1.521,1.153,2.28,1.771-.882.5-1.744,1.373-2.649,1.421-3.281.173-6.577.068-10.155.068V519h11.739l.173,1.621c-3.148,3.315-7.756.265-12.218,2.134,0,3.377.123,7.284-.089,11.172-.052.95-1.2,1.841-1.848,2.759-.694-.865-1.978-1.721-1.991-2.6C355.039,524.493,355.093,514.9,355.093,504.808Z"/><path class="cls-2" d="M197.128,314.112l-3.384-1.435c3.878-4.418,6.829-9.655,14.1-7.742.838-7.193,6.615-8.484,11.916-10.262.558,2.65.358,2.187-2.541,3.435a14.351,14.351,0,0,0-6.481,5.293c-.632,1.064,1.141,4.355,2.653,5.719,2.757,2.486,6.712.75,9.477-3.39a5.1,5.1,0,0,1,3.556-1.926c-3.149,4.859-6.342,9.8-13.5,8.239-.824,7-6.571,8.178-12.074,10.044-1.167-2.457-2.515-5.294-3.86-8.129.989.8,2.409,1.4,2.887,2.432,2,4.323,4.864,2.348,7.352,1.022,3.031-1.614,4.175-4.375,2.41-7.524-1.6-2.851-4.347-4.794-7.36-2.595C200.077,308.9,198.811,311.792,197.128,314.112Z"/><path class="cls-2" d="M417.581,514.216c-.674,1.04-1.183,2.8-2.05,3-4.611,1.055-5.481,4.24-5.383,8.241a62.019,62.019,0,0,1-.078,7.952c-.12,1.146-1.183,2.193-1.818,3.285-.751-1.151-2.1-2.274-2.15-3.456-.24-5.3-.18-10.612-.064-15.917a12.38,12.38,0,0,1,1.113-3.414l2.979,2.6,6.135-3.574Z"/><path d="M247.608,481.04V441.687c10.552.008,20.722.725,28.716,8.47,6.78,6.569,6.328,16.117-.781,22.377C267.715,479.428,258.267,481.237,247.608,481.04Z"/><path d="M340.516,453.112c1,1.173,1.691,1.888,2.271,2.685,2.634,3.618,5.237,7.259,8.277,11.484h-21.3Z"/><path d="M391.3,525.137c.777,5.831-.643,8.526-4.525,8.856-2.7.229-4.525-.691-4.622-3.74C382.033,526.487,384.886,524.822,391.3,525.137Z"/><path d="M197.128,314.112c1.683-2.32,2.949-5.212,5.151-6.819,3.013-2.2,5.764-.256,7.36,2.595,1.765,3.149.621,5.91-2.41,7.524-2.488,1.326-5.354,3.3-7.352-1.022-.478-1.034-1.9-1.632-2.887-2.432Z"/><rect x="755.145" y="439.082" width="21" height="111"/></g></g></svg>