<svg xmlns="http://www.w3.org/2000/svg" viewBox="0 0 1280 623.109"><defs><style>.cls-1{fill:#828484;}.cls-2{fill:#fff;}</style></defs><title>logo</title><g id="Layer_2" data-name="Layer 2"><g id="Layer_1-2" data-name="Layer 1"><g id="Layer_1-2-2" data-name="Layer 1-2"><rect y="476.147" width="1280" height="146.898"/><path class="cls-1" d="M805.824,238.907s-3.34-17.327,0-18.657,82.827,18.657,82.827,18.657L894,249.57l4.675,7.331s7.348,4,12.024,8.663,14.027,15.994,16.7,16.662,8.683,1.333,10.019,6.664,2,5.5,0,11.411-8.015,5.916-8.683,9.249-13.36-.667-18.7,0-22.711,4-34.734,4.664-18.035-2.666-26.719,4.665-18.7,19.327-18.7,23.992,2.672,17.327-2.672,23.324-13.359,12.663-19.37,14.667-60.381,58.643-60.381,58.643H643.276l-84.7-79.649,101.25-82.562,50.626-26.227,12.03.23s39.627-1.929,48.809-4.339,21.525.331,28.029-3.857Z"/><path d="M1029.1,623.109H150.4c.091-9.049.283-18.1.256-27.147Q150.5,545,150.235,494.046c-.056-13.469,8.235-24.924,21.8-28.2,8.3-2.008,12.244-7.312,14.845-14.432,4.958-13.574,13.9-23.522,26.65-30.305a19.939,19.939,0,0,0,6.589-5.8,56.132,56.132,0,0,1,29.335-21.167,14.853,14.853,0,0,0,6.684-4.557,60.437,60.437,0,0,1,21.048-16.854,18.339,18.339,0,0,0,6-4.775c7.112-8.71,15.618-15.713,26.534-18.492,5.864-1.5,8.044-4.874,10.34-9.678,12.94-27.1,28.17-52.571,55.257-68.143,8.6-4.941,17.755-9.535,27.251-12.072,6.528-1.74,8.49-3.717,8.513-10.229.02-5.369.87-11.534,8.677-12.5,1.568-.194,3.219-2.367,4.212-4,2.265-3.728,3.566-8.171,6.3-11.453,5.366-6.429,12.285-11.7,11.917-21.385-.078-2.06,1.259-4.39,2.475-6.241,2.985-4.554,2.443-8.71-.213-13.214-1.969-3.341-4.537-7.077-4.561-10.653-.049-7.075.449-14.483,2.548-21.182,6.135-19.575,13.565-38.748,19.642-58.34a26.963,26.963,0,0,1,12.11-15.464c11.133-7.084,22.441-13.885,33.579-20.952,1.785-1.134,3.831-2.816,4.425-4.669,1.442-4.5,2.1-9.246,3.209-14.532l-28.89-1.518c4.139-7.482,7.032-9.245,17.387-11.074,4.217-.747,9.764-.136,12.28-2.6,2.477-2.429,1.481-8.107,2.8-12.1.736-2.241,2.91-5.48,4.7-5.663C534.019.737,544.429.216,554.824,0c6.832-.138,11.3,4.39,12.669,10.919.367,1.752,2.176,3.592,3.813,4.589,1.859,1.135,4.246,1.46,6.44,1.986,10.718,2.567,16.65,9.763,19.5,19.954,1.157,4.14.149,7.132-4.6,7.682-7.3.853-14.6,1.812-21.935,2.218-3.2.178-5.659.727-4.929,4.244,2.2,10.615-3.092,17.818-10,24.819-3.769,3.822-7.206,8.523-3.862,14.531,4.269,7.67,7.767,15.963,13.13,22.79,11.712,14.908,27.112,22.687,46.709,20.269,4.489-.555,9.087-1.3,13.533-.87,5.56.529,9.361-1.588,12.986-5.354,1.186-1.232,3.5-1.379,5.3-2.022.618,1.841,1.284,3.668,1.843,5.528.924,3.078.809,7.329,2.853,9.039,5.169,4.327,11.156,7.446,18.5,7.432,11.986-.025,22.023-4.606,31.128-11.839,8.42-6.684,16.4-14.04,25.386-19.848,3.092-1.995,9.784-1.9,12.844.164,8.561,5.786,16.848,7.628,26.589,3.936,4.364-1.655,8.8-2.419,13.367.976,2.078,1.545,6.706,2.045,8.611.74,1.7-1.164,1.471-5.448,1.675-8.381.248-3.571.059-7.173.059-11.984,1.88,1.585,2.525,1.856,2.676,2.3,4.193,12.208,8.1,14.626,21.127,13a4.548,4.548,0,0,1,1.681-.17c7.438,2.2,10.6-2.323,13.388-8.039,1.592-3.257,3.994-6.121,6.031-9.163l1.445.872c-.7,3.44-2.493,7.105-1.845,10.271,1.025,5,5.025,3.707,8.718,1.352,1.482,2.634,2.922,4.819,3.992,7.171a8.45,8.45,0,0,1-3.665,11.391q-.366.188-.748.339c-2.232,1.019-4.625,1.686-6.945,2.513,1.852,2.095,3.71,4.191,5.547,6.295.243.279.335.691.58.968,9.1,10.276,18.262,20.486,27.273,30.835,2.8,3.212,4.99,6.955,7.838,10.115,1.3,1.445,3.614,3.046,5.306,2.885,6.269-.6,8.518.852,7.6,7.276-.7,4.938.968,8.392,4.048,11.721,5.755,6.219,11.516,12.434,17.182,18.733,3.678,4.09,3.983,8.755.458,12.824-2.572,2.972-3.146,5.679-2.094,9.264,1.029,3.5.012,6.272-3.7,7.749a16.063,16.063,0,0,0-3.827,2.4c-7.3,5.73-14.8,5.846-21.948.12-1.752-1.4-3.045-3.4-4.851-4.707a5.2,5.2,0,0,0-4.092-.931c-.816.3-1.387,2.352-1.388,3.623-.007,7.566-.612,14.653-5.594,21.193-3.413,4.479-7.537,6.707-12.041,4.974-5.3-2.039-9.884-.675-14.874-.12-3.665.407-7.734.651-11.125-.5-18.93-6.409-37.659-13.41-56.56-19.91-10.142-3.492-20.419-6.658-30.809-9.287-1.893-.478-6.3,2-6.664,3.713-1.215,5.793-1.284,11.852-1.5,17.819-.283,7.712,3.477,15.619-1.5,23.186-.58.881,1.1,4.707,2.378,5.106,10.766,3.363,21.517,7.364,32.595,9.014,16.959,2.526,27.185,10.444,31.962,27.194a25.909,25.909,0,0,0,4.348,8.48c5.986,7.769,12.594,15.073,18.348,23,2.983,4.109,4.784,9.1,6.912,13.784a72.366,72.366,0,0,1,4.349,11.206,15.551,15.551,0,0,1-.229,7.334,23.36,23.36,0,0,1-2.357,5.272c6.908,4.312,13.94,7.038,18.5,12.018s6.643,12.2,10.11,19.023c.553-.061,2.221-.3,3.9-.422,12.033-.9,23.831,5.576,28.4,16.695,1.89,4.6,4.837,5.607,8.876,6.219,46,6.974,90.291,19.926,133.157,37.913,3.588,1.506,4.674,3.323,4.593,7.094C1030.535,542.717,1029.843,582.914,1029.1,623.109ZM374.033,355.834l-.16-.174,4.384,9.208c6.248-2.113,12.772-3.452,13.708-11.374,8.126,1.771,11.751-3.829,15.326-9.333a5.8,5.8,0,0,0-4.037,2.182c-3.139,4.689-7.629,6.656-10.759,3.839-1.716-1.543-3.729-5.272-3.012-6.476a16.28,16.28,0,0,1,7.358-6c3.291-1.415,3.518-.89,2.885-3.891-6.019,2.014-12.577,3.477-13.528,11.624-8.255-2.167-11.6,3.765-16.008,8.769ZM637.57,369.043c3.765,7.755,7.3,14.377,10.221,21.259a22.372,22.372,0,0,0,12.16,12.067c14.188,6.095,28.349,12.455,43.017,17.172,11.342,3.647,23.359,5.527,35.22,7.13,7.7,1.042,12.464-4.09,12.415-11.949a62.791,62.791,0,0,0-1.562-13.341c-1.767-7.818,1.61-13.038,9.222-14.6,2.867-.587,6.244-2.2,7.915-4.446,5.575-7.476,1.345-19.271-7.494-22.947-4.841-2.011-9.8-4.075-14.078-7.019-6.311-4.338-12.788-4.927-19.954-3.3Q704.225,353.7,683.724,358c-9.019,1.872-18.178,3.1-27.146,5.178C650.073,364.679,643.779,367.092,637.57,369.043Zm193.588-117.4c4.659-.591,11.272-1.108,17.72-2.429,2.077-.425,3.72-2.962,5.561-4.533-1.311-1.41-2.416-3.13-3.976-4.168-4.044-2.694-8.2-5.249-12.492-7.527-2.034-1.08-4.693-2.351-6.692-1.9-8.8,2.011-16.015-1.843-20.679-7.821-6.255-8.016-14.248-10.63-23.318-12.14-8.219-1.368-16.652-2.315-24.124,2.044-4.292,2.5-7.58,6.72-11.32,10.165,3,2.546,5.614,5.965,9.068,7.476,10.7,4.677,21.824,8.381,32.589,12.929A101.057,101.057,0,0,0,831.158,251.647ZM407.016,496.876c7.355,2.983,8.549,8.6,8.157,15.435a186.385,186.385,0,0,0-.009,20.375c.363,6.961-.489,13.07-9.462,16.771,12.523,0,23.1.009,33.679-.007a29.745,29.745,0,0,0,6.227-.211c9.531-2.082,19.48-3.224,28.406-6.847a20.9,20.9,0,0,0,11.031-27.964c-3.731-8.447-11.2-12.549-19.66-14.879C446.274,494.287,426.72,496.975,407.016,496.876ZM254.943,549.969c-15.76-7.61-27.745-18.525-39.686-31.616l40.263-22.6H226.15c2.47,2.681,8.443,3.792,3.974,6.885-10.262,7.1-21.394,12.959-33.208,19.931,0-6.361-.618-10.984.184-15.348.721-3.929,3-7.573,4.634-11.447H172.856c6.761,4.6,7.156,5.269,7.169,13.348.013,8.87-.306,17.759.107,26.607.3,6.377-1.227,11.141-7.673,14.2h31.746c-6.582-4.432-9.432-13.46-7.16-19.694,1.048-2.875,6.431-4.749,8.72-2.794,5.166,4.412,10.209,8.973,15.207,13.574,2.909,2.679,3.355,5.558-1.641,8.956Zm61.667-.061h27.477c-10.26-5.839-10.71-6.639-10.709-17.325V506.5c2.741,2.151,4.386,3.379,5.963,4.689q21.135,17.559,42.229,35.171c2.87,2.408,5.672,4.29,9.941,2.2,0-11.234.195-22.536-.068-33.828-.176-7.519-.351-14.743,7.98-18.845H375.248c2.875,3.358,7.157,6.071,7.528,9.239,1,8.567.344,17.328.344,26.95-12.7-10.5-25.155-19.52-36.019-30.162-9.372-9.179-19.932-5.752-30.356-5.986-.184,0-.379.512-.9,1.264,8.292,2.39,10.2,8.27,9.54,16.141a126.473,126.473,0,0,0,0,20.925c.594,7.237-1.923,12.008-8.775,15.642Zm208.292-.016.487-1.084c-1.045-.735-2.463-1.249-3.059-2.25-1.406-2.359-3.555-5.059-3.326-7.421.344-3.559,3.171-5.424,7.374-5.218,7.16.35,14.36-.1,21.523.229a8.592,8.592,0,0,1,5.542,2.822c3.752,4.489,3.174,6.3-3.593,12.844h29.435c-17.884-15.564-27.29-36.422-41.93-53.7-8.5,11.783-16.583,23.346-25.076,34.606-5.008,6.64-10.67,12.788-16.052,19.174Zm396.226.022h37.231c-1.7-1.177-2.1-1.518-2.547-1.758-10.048-5.336-12.143-16.693-4.647-25.3,9.01-10.339,18.43-20.2,30.96-27.15H955.442c4.275,3.11,9.261,5.051,5.307,9.452-5.709,6.353-12.2,12.005-18.609,18.2-4.219-5.457-7.624-10.468-11.66-14.908s-5.278-8.176.467-12.77H900.232c3.351,2.955,6.387,5.1,8.76,7.826q10.029,11.508,19.547,23.454a14.969,14.969,0,0,1,2.655,6.4C932.757,541.628,928.885,546.645,921.128,549.914Zm-25.5-14.732c-13.769,12.421-29.541,6.689-44.876,8.043,0-10.853.291-20.831-.095-30.784-.289-7.432.235-13.9,10.084-15.472l-1.111-1.243H825.9c6.837,3.18,8.832,8.063,8.41,14.959a213.366,213.366,0,0,0-.021,23.207c.308,6.46-.723,11.912-8.545,15.2h69.894ZM677.2,498.631c-5.264-.576-10.166-.7-14.877-1.71-10.414-2.237-20.652-2.894-30.34,2.374-9.339,5.077-9.615,15.18-.521,20.571,3.349,1.984,7.252,3.1,10.99,4.357,7.148,2.394,14.488,4.29,21.467,7.093,2.173.872,4.928,4.138,4.741,6.048-.232,2.352-2.85,5.2-5.181,6.435-2.864,1.518-6.468,1.978-9.8,2.221a36.808,36.808,0,0,1-28.456-9.8v11.459c6.043.418,11.664.238,17.039,1.3,11.049,2.178,21.753,2.274,32.1-2.7,4.721-2.269,8.1-5.787,8.413-11.189.322-5.637-3.285-9.269-7.929-11.351-5.478-2.456-11.318-4.112-17.012-6.086-4.99-1.728-10.168-3.046-14.909-5.288-1.986-.94-4.5-4.072-4.187-5.724.4-2.152,3.087-4.39,5.331-5.54,2.224-1.14,5.121-1.327,7.721-1.322,9.372.019,18.206,1.863,25.408,9.608Zm99.356-1.531-.658-1.262H742.58c6.861,3.129,8.441,8.125,8.1,14.7-.381,7.34-.309,14.724-.023,22.074.265,6.805.2,13.218-8.74,16.421h70.029V535.283c-13.445,12.4-29.262,6.51-44.787,8.019,0-11.335.283-21.864-.1-32.369-.259-7.061,1.362-12.336,9.493-13.833Zm-79.365,52.738h29.841c-5.032-3.293-6.9-7.295-6.77-12.771.219-9.047.329-18.114-.034-27.151-.25-6.228,1.238-11.012,7.4-14.232H696.2l-.778,1.246c7.846,1.807,8.574,7.3,8.4,13.588-.238,8.481-.283,16.979.018,25.456C704.046,541.828,702.37,546.31,697.191,549.838Zm-395.882.243c-5.155-3.576-6.815-7.832-6.617-13.493.3-8.474.256-16.972.018-25.449-.179-6.379-.031-12.324,7.328-15.448h-31.48c6.891,3.354,8.214,8.692,7.919,15.308-.344,7.715-.366,15.471.008,23.183.313,6.471-1.146,11.761-6.983,15.9ZM626.755,172.122q.078-1.323.158-2.648c-2.149-.716-4.25-1.821-6.453-2.089-15.167-1.848-30.395-3.236-45.52-5.358-8.965-1.258-17.78-3.585-26.686-5.435-.074,4.39.2,9.689,6.4,11.773,6.521,2.195,12.52,4.815,18.108,9.224,6.517,5.143,14.615,5.255,22.729,2.9C605.854,177.5,616.33,174.894,626.755,172.122ZM733.032,243.6c1.92.293,3.851.6,5.784.881,11.545,1.7,23.459,2.162,34.542,5.428,13.129,3.871,25.681,9.853,38.222,15.5,10.263,4.621,20.041,2.38,30.078-.805a25.781,25.781,0,0,0-8.25-1.378c-6.753-.377-13.925.581-20.182-1.374-19.3-6.033-37.306-15.13-54.737-25.422-16.534-9.762-15.837-9.589-25.235,5.434-.174.278-.1.711-.222,1.738Zm-80.344,342.06c-5.575-5.332-8.129-5.464-15.27-.8l-2.894-2.739c-.547,1.166-1.542,2.322-1.567,3.5-.14,6.409-.142,12.828.074,19.235.036,1.051,1.392,2.057,2.137,3.083.743-1.029,2.055-2.021,2.126-3.093.263-3.944.088-7.915.126-11.872.04-4.071,1.718-7.342,6.029-7.515,4.638-.185,5.831,3.537,6.035,7.364.2,3.762-.123,7.557.168,11.308.1,1.306,1.35,2.524,2.074,3.783.658-1.327,1.784-2.619,1.883-3.991.271-3.753-.013-7.543.154-11.309.179-4.028,2.006-7.175,6.4-7.156,4.338.019,5.524,3.375,5.624,7.084.112,4.146-.1,8.309.177,12.441.069,1.032,1.468,1.974,2.256,2.957.7-.883,1.977-1.753,2-2.652a127.174,127.174,0,0,0-.205-15.824c-.573-5.664-5.309-8.986-10.43-7.533C657.148,582.61,655.014,584.358,652.688,585.655Zm-53.229,22.98c0-7.244.264-13.063-.083-18.847-.281-4.689-3.191-7.611-7.97-8.018-3.676-.313-7.5-.41-10.538,3.771,12.962-.142,12.962-.142,13.542,4.961-3.6,1.028-7.358,1.633-10.683,3.173-4.146,1.922-5.427,5.846-3.95,10.01,1.373,3.872,4.922,5.369,8.746,4.456,3.577-.859,6.9-3.051,10.936.489Zm-41.3-33.024c4.392,0,8.152.127,11.892-.088.962-.055,1.861-1.192,2.789-1.833-.951-.623-1.885-1.753-2.855-1.784-5.393-.176-10.794-.085-16.616-.085,0,11.455-.059,22.149.089,32.85.016,1.1,1.273,2.18,1.954,3.268.841-1.122,2.324-2.2,2.4-3.376.294-4.244.116-8.52.116-12.456,4.87-1.946,10.176.974,13.915-2.12l-.359-2.26h-13.33Zm57.739,9.507-3.266-3c-.5,1.051-1.4,2.1-1.419,3.157-.125,6.572-.152,13.152.063,19.72.033,1.008,1.48,1.97,2.273,2.954.777-1,2.133-1.935,2.224-2.987a96.248,96.248,0,0,0,.1-10.135c-.084-4.363,1.08-7.682,5.936-8.916,1.036-.265,1.632-2.247,2.43-3.437l-1.75-1.41Z"/><path class="cls-2" d="M407.016,496.876c19.7.1,39.258-2.594,58.369,2.673,8.463,2.33,15.929,6.432,19.66,14.879a20.9,20.9,0,0,1-11.031,27.964c-8.926,3.623-18.875,4.765-28.406,6.847a29.813,29.813,0,0,1-6.227.211c-10.578.016-21.156.007-33.679.007,8.973-3.7,9.825-9.81,9.462-16.771a186.134,186.134,0,0,1,.009-20.375C415.565,505.476,414.371,499.859,407.016,496.876Zm24.331,48.038c11.725.236,22.271-1.7,31.144-9.138,9.145-7.663,9.224-19.733-.039-27.281-8.973-7.31-19.775-8.195-31.105-8.223Z"/><path class="cls-2" d="M254.943,549.969H219.331c5-3.393,4.55-6.277,1.641-8.956-5-4.6-10.041-9.162-15.207-13.574-2.289-1.955-7.672-.081-8.72,2.794-2.272,6.234.578,15.265,7.16,19.694H172.459c6.446-3.06,7.971-7.824,7.673-14.2-.413-8.851-.094-17.737-.107-26.607-.013-8.082-.408-8.746-7.169-13.348h28.878c-1.635,3.874-3.913,7.518-4.634,11.447-.8,4.364-.184,8.987-.184,15.348,11.814-6.972,22.946-12.827,33.208-19.931,4.469-3.093-1.5-4.206-3.974-6.885h29.37l-40.263,22.605C227.2,531.444,239.183,542.355,254.943,549.969Z"/><path class="cls-2" d="M316.61,549.908c6.852-3.634,9.369-8.4,8.774-15.638a126.473,126.473,0,0,1,0-20.925c.665-7.871-1.248-13.752-9.54-16.141.522-.752.717-1.268.9-1.264,10.424.23,20.984-3.193,30.356,5.986,10.864,10.642,23.321,19.665,36.019,30.162,0-9.622.66-18.383-.344-26.95-.371-3.168-4.653-5.881-7.528-9.239h24.175c-8.331,4.1-8.156,11.326-7.98,18.845.263,11.292.068,22.594.068,33.828-4.269,2.08-7.071.2-9.941-2.205Q360.518,528.708,339.34,511.2c-1.577-1.31-3.222-2.538-5.963-4.69v26.072c0,10.686.449,11.486,10.709,17.325Z"/><path class="cls-2" d="M524.9,549.892H496.227c5.382-6.386,11.044-12.534,16.052-19.174,8.493-11.257,16.573-22.824,25.076-34.607,14.64,17.281,24.046,38.139,41.93,53.7H549.85c6.767-6.545,7.345-8.355,3.593-12.845a8.6,8.6,0,0,0-5.542-2.821c-7.163-.329-14.363.121-21.523-.229-4.2-.206-7.03,1.659-7.374,5.217-.229,2.363,1.92,5.063,3.326,7.421.6,1,2.014,1.516,3.059,2.251Zm24.075-20.263L537,513.086,524.36,529.629Z"/><path class="cls-2" d="M921.128,549.914c7.757-3.268,11.629-8.286,10.066-16.555a14.969,14.969,0,0,0-2.655-6.4q-9.526-11.925-19.547-23.455c-2.373-2.722-5.409-4.87-8.76-7.825h30.715c-5.745,4.594-4.493,8.34-.467,12.77s7.441,9.451,11.66,14.908c6.407-6.192,12.9-11.844,18.609-18.2,3.954-4.4-1.032-6.342-5.307-9.452h26.683c-12.53,6.946-21.95,16.811-30.96,27.15-7.5,8.6-5.4,19.96,4.647,25.3.452.24.851.581,2.547,1.758Z"/><path class="cls-2" d="M895.633,535.182V549.09H825.739c7.822-3.286,8.853-8.738,8.545-15.2a213.366,213.366,0,0,1,.021-23.207c.422-6.9-1.573-11.779-8.41-14.959h33.74l1.111,1.243c-9.849,1.57-10.373,8.04-10.084,15.472.386,9.953.095,19.931.095,30.784C866.092,541.871,881.864,547.6,895.633,535.182Z"/><path class="cls-2" d="M677.2,498.631v10.751c-7.2-7.745-16.036-9.589-25.408-9.608-2.6,0-5.5.182-7.721,1.322-2.244,1.15-4.926,3.392-5.331,5.54-.311,1.652,2.2,4.789,4.187,5.724,4.741,2.245,9.919,3.563,14.909,5.288,5.694,1.971,11.534,3.627,17.012,6.086,4.644,2.082,8.251,5.714,7.929,11.351-.309,5.4-3.692,8.92-8.413,11.189-10.351,4.977-21.055,4.881-32.1,2.7-5.375-1.06-11-.88-17.039-1.3V536.22a36.809,36.809,0,0,0,28.456,9.8c3.334-.243,6.938-.7,9.8-2.221,2.331-1.236,4.949-4.083,5.181-6.435.187-1.91-2.568-5.176-4.741-6.049-6.979-2.8-14.319-4.689-21.467-7.092-3.738-1.254-7.641-2.373-10.99-4.357-9.094-5.388-8.818-15.5.521-20.571,9.688-5.265,19.926-4.611,30.34-2.374C667.03,497.932,671.932,498.057,677.2,498.631Z"/><path class="cls-2" d="M776.552,497.1c-8.131,1.5-9.748,6.772-9.492,13.833.382,10.5.1,21.034.1,32.369,15.525-1.509,31.342,4.385,44.787-8.019V549.04h-70.03c8.936-3.2,9-9.616,8.74-16.421-.286-7.35-.358-14.734.023-22.074.341-6.58-1.239-11.573-8.1-14.705h33.314Z"/><path class="cls-2" d="M697.191,549.838c5.179-3.532,6.855-8.014,6.648-13.86-.3-8.481-.256-16.976-.018-25.456.177-6.285-.551-11.781-8.4-13.588l.778-1.246h31.429c-6.165,3.22-7.653,8-7.4,14.232.363,9.037.253,18.1.034,27.151-.133,5.472,1.738,9.478,6.77,12.771Z"/><path class="cls-2" d="M301.309,550.085H271.5c5.837-4.138,7.3-9.428,6.983-15.9-.374-7.712-.352-15.464-.008-23.183.3-6.616-1.028-11.954-7.919-15.307h31.48c-7.359,3.123-7.507,9.068-7.328,15.447.238,8.48.278,16.975-.018,25.449C294.494,542.255,296.154,546.509,301.309,550.085Z"/><path class="cls-2" d="M652.688,585.655c2.326-1.3,4.46-3.04,6.894-3.73,5.121-1.453,9.857,1.869,10.43,7.533a127.174,127.174,0,0,1,.205,15.824c-.022.9-1.3,1.769-2,2.652-.788-.982-2.187-1.925-2.256-2.957-.276-4.132-.065-8.295-.177-12.441-.1-3.71-1.286-7.066-5.624-7.084-4.392-.019-6.219,3.128-6.4,7.156-.167,3.766.117,7.556-.154,11.31-.1,1.366-1.225,2.658-1.883,3.99-.724-1.259-1.973-2.477-2.074-3.783-.291-3.751.032-7.546-.168-11.308-.2-3.827-1.4-7.549-6.035-7.364-4.311.173-5.989,3.444-6.029,7.515-.038,3.961.137,7.932-.126,11.872-.071,1.075-1.383,2.067-2.126,3.093-.745-1.026-2.1-2.032-2.137-3.083-.216-6.407-.214-12.826-.074-19.235.025-1.179,1.02-2.335,1.567-3.5l2.894,2.739C644.559,580.186,647.113,580.318,652.688,585.655Z"/><path class="cls-2" d="M599.459,608.63c-4.038-3.54-7.361-1.348-10.936-.5-3.824.913-7.373-.584-8.746-4.456-1.477-4.164-.2-8.088,3.95-10.01,3.325-1.54,7.086-2.145,10.683-3.173-.58-5.1-.58-5.1-13.542-4.961,3.039-4.181,6.862-4.084,10.538-3.771,4.779.407,7.689,3.326,7.97,8.018C599.723,595.567,599.459,601.386,599.459,608.63Zm-4.994-13.779c-7.289-.348-10.52,1.539-10.38,5.8.114,3.457,2.2,4.49,5.254,4.229,4.407-.373,6.016-3.433,5.126-10.034Z"/><path class="cls-2" d="M558.154,575.61v12.116h13.33l.359,2.261c-3.739,3.092-9.045.173-13.915,2.119,0,3.936.178,8.212-.116,12.456-.081,1.175-1.564,2.254-2.4,3.376-.681-1.088-1.938-2.17-1.954-3.268-.148-10.7-.089-21.395-.089-32.85,5.822,0,11.223-.09,16.616.085.97.031,1.9,1.161,2.855,1.784-.928.641-1.827,1.778-2.789,1.833C566.306,575.737,562.546,575.61,558.154,575.61Z"/><path class="cls-2" d="M374.033,355.834l-3.843-1.624c4.4-5,7.753-10.936,16.008-8.769.951-8.147,7.509-9.61,13.528-11.624.633,3,.406,2.477-2.885,3.891a16.274,16.274,0,0,0-7.358,5.995c-.717,1.2,1.3,4.933,3.012,6.476,3.13,2.817,7.62.85,10.759-3.839a5.8,5.8,0,0,1,4.037-2.182c-3.575,5.5-7.2,11.1-15.326,9.333-.936,7.924-7.46,9.263-13.708,11.374-1.325-2.783-2.854-6-4.381-9.206,1.122.906,2.734,1.583,3.277,2.753,2.269,4.9,5.521,2.66,8.347,1.158,3.441-1.828,4.739-4.955,2.736-8.523-1.813-3.228-4.935-5.429-8.356-2.939C377.38,349.932,375.943,353.207,374.033,355.834Z"/><path class="cls-2" d="M615.893,585.117l6.592-4.056,1.75,1.41c-.8,1.19-1.394,3.173-2.43,3.437-4.856,1.239-6.02,4.553-5.936,8.916a96.248,96.248,0,0,1-.1,10.135c-.091,1.052-1.447,2-2.224,2.987-.793-.983-2.24-1.946-2.273-2.954-.215-6.568-.188-13.148-.063-19.72.02-1.061.924-2.106,1.419-3.157Z"/><path d="M431.347,544.914V500.272c11.33.028,22.132.913,31.105,8.223,9.263,7.548,9.184,19.618.039,27.281C453.618,543.21,443.072,545.149,431.347,544.914Z"/><path d="M548.977,529.629H524.362l12.644-16.543Z"/><path d="M594.465,594.851c.89,6.6-.719,9.657-5.126,10.034-3.056.261-5.14-.772-5.254-4.229C583.945,596.39,587.176,594.5,594.465,594.851Z"/><path d="M374.033,355.834c1.91-2.627,3.347-5.9,5.847-7.723,3.421-2.494,6.543-.289,8.356,2.939,2,3.568.7,6.695-2.736,8.523-2.826,1.5-6.078,3.738-8.347-1.158-.543-1.17-2.155-1.847-3.277-2.753Z"/></g></g></g></svg>