<svg xmlns="http://www.w3.org/2000/svg" viewBox="0 0 230 175"><title>sales</title><g id="Layer_2" data-name="Layer 2"><g id="Layer_1-2" data-name="Layer 1"><path d="M131.252,6.236l-6.139,3.693c-.631,4.7-1.165,8.689-1.774,13.23,7.336,2.563,11.17,9.342,15.6,16.175,3.118,4.813,8.805,8.279,13.686,11.949,5.185,3.9,10.771,7.328,15.88,10.759H203.07l6.988,3.233,2.883-3.516c.467.154.967.183,1.036.361,3,7.637,5.877,15.315,8.948,22.926A101.765,101.765,0,0,0,228.6,97.507c2.244,3.934,1.853,8.852-1.671,11.822-1.7,1.431-3.341,2.919-5,3.429L208.8,114.475c-.825-.927-1.919-2.8-3.592-3.923-6.107-4.091-12.407-7.931-18.633-11.865l-4.021-1.2v15c1.2,2.926,2.2,6.972,4.369,10.361a243.764,243.764,0,0,0,15.337,21.711c5.49,6.8,11.878,12.971,17.73,19.529a37.133,37.133,0,0,1,3.453,5.5c-7.089,3.949-10.4,2.474-12.96-3.868-1.424-3.528-4.683-6.511-7.488-9.425-5.4-5.612-11.014-11.055-16.671-16.447a34.1,34.1,0,0,0-4.9-3.35l-7.153,7.968,5.633,8.624,3.663-3.7,1,.761-.175,2.711,6.244,3.269,6.128-2.138-1.4,4.424c-5.663.279-6.768,3.743-6.647,8.245l5.267,1.366-3.481,2.887,30.975,2.644L221.414,175l-78.167-3.965c.515,1.205.819,1.916,1.094,2.557L.043,168.978,0,168.29c1.837-.173,3.851.04,5.466-.613,2.2-.887,5.661-2.26,5.847-3.729.978-7.708,7.881-10.306,12.907-14.61,2.933-2.512,5.328-5.567,8.056-8.3,1.3-1.306,2.815-2.429,4.725-4.055l.323-3.953,6.594-.7c5.292-7.7,14.291-3.679,21.306-6.72C67.639,106.5,79.508,92.5,95.217,79.824l-.877-1.559,4.2-3.043C97.4,69.366,96.283,63.647,95.49,59.578L78.479,50.525c4.318-6.623,7.355-13.26,12.28-18.273,4.789-4.875,11.512-8.085,17.425-12.052-.413-.358-.605-.659-.872-.736-2.535-.728-5.083-1.418-7.628-2.119.829-2.612.936-5.784,2.645-7.712a59.9,59.9,0,0,1,10.688-8.9c1.172-.817,4.47-.991,4.962-.307C121.173,4.873,126.037,5.19,131.252,6.236Zm71.667,96.475c5.994,2.845,10.385,8.949,18.977,8.175-2.284-1.051-4.129-1.54-5.469-2.592-2.811-2.208-5.04-5.177-8.083-6.987-4.795-2.852-10.224-4.723-11.444-10.967-.169-.865-3.276-1.227-5.023-1.822l-.428,1.313c2.3,2.969,9.175,9.911,11.47,12.88-3.194-2.861-10.972-9.695-14.408-12.773l-3.584,3.051c6.888,8.083,14.694,14.246,25.612,17.625Zm-69.994-52.8c-1.171-.554-2.369-1.06-3.785-1.691-1.126,4.9-2.12,9.224-3.23,14.056l4.249,2.266c.358-2.339.581-3.794.844-5.507l4.691-.93c-.727,2.273-1.2,3.744-1.655,5.175,9.065,3.331,16.936,3.505,24.347.107a70.716,70.716,0,0,0-6.967-4.632m12.806,70.006c-3.362-.826-5.893-1.874-8.465-1.969a27.036,27.036,0,0,0-9.135,1.151c-.955.309-1.974,3.841-1.332,4.494,2.725,2.77,6.062,5.011,9.031,7.332Zm14.952,5.6-6.171-6.6L164.989,138.8l.87,1.152Z"/></g></g></svg>