<svg xmlns="http://www.w3.org/2000/svg" viewBox="0 0 220 175"><defs><style>.cls-1{fill:#fff;}</style></defs><title>showPen</title><g id="Layer_2" data-name="Layer 2"><g id="Layer_1-2" data-name="Layer 1"><path d="M27.767,161.586a1,1,0,0,1,.034-1.256c.164-.228.067-.409-.078-.6-.584-.778-1.14-1.581-1.736-2.346a15.3,15.3,0,0,1-2.382-4.669c-.417-1.262-.872-2.511-1.364-3.738-.333-.83-.8-1.592-1.137-2.42a13.621,13.621,0,0,1-1.052-3.448,11.889,11.889,0,0,1-.014-2.168c.074-1.2.21-2.386.306-3.58.192-2.369.345-4.742.579-7.1a4.11,4.11,0,0,1,.408-1.783,1.368,1.368,0,0,0,.09-.477,11.469,11.469,0,0,0,.02-3.278,2.87,2.87,0,0,1,.676-2.252c.773-1.03,1.582-2.027,2.331-3.077a4.045,4.045,0,0,1,1.324-1.087c.356-.215.726-.409,1.065-.654a120.9,120.9,0,0,0,9.551-7.484c.869-.769,1.67-1.636,2.5-2.459a2.767,2.767,0,0,0,.2-.22c.763-.946.776-1.072.274-2.222a37.181,37.181,0,0,1-2.4-8.189c-.229-.049-.27.17-.363.306-1.713,2.524-3.4,5.067-5.144,7.568a68.813,68.813,0,0,1-4.48,5.835q-1.236,1.425-2.483,2.838a.746.746,0,0,0-.232.758c.282.273.747.067,1.04.569a2.163,2.163,0,0,1-.611.1,1.712,1.712,0,0,0-1.8.8,3.864,3.864,0,0,1-.492.5,1.291,1.291,0,0,0-.395.788,1.718,1.718,0,0,1-.7,1.211,1.3,1.3,0,0,1-1.784-.221c-.452-.457-.85-.981-1.3-1.438a13.907,13.907,0,0,0-1.176-1.026c-.389-.314-.793-.605-1.2-.894a4.669,4.669,0,0,0-.525-.272,3.339,3.339,0,0,1,.14.679,2.184,2.184,0,0,1-.777,1.771,4.864,4.864,0,0,0-1.316,1.567,1.139,1.139,0,0,1-1.171.651,1.34,1.34,0,0,0-1.185.531,3.1,3.1,0,0,1-1.771.939,7.026,7.026,0,0,1-2.646.14,5.752,5.752,0,0,1-2.636-1.381,2.42,2.42,0,0,0-.685-.37c-.419-.158-.849-.279-1.275-.414a2.884,2.884,0,0,1-1.683-1.693,1.972,1.972,0,0,1-.07-1.277c.136-.643.36-1.266.458-1.915.342-2.263.68-4.528.953-6.8.224-1.864.413-3.738.509-5.614a35.8,35.8,0,0,0-.049-5.718,6.538,6.538,0,0,0-.741-2.13c-.261-.548-.548-1.082-.826-1.62a3.205,3.205,0,0,1-.314-2.563,10.6,10.6,0,0,0,.189-3.738A18.854,18.854,0,0,1,1.85,77.292,4.376,4.376,0,0,1,.9,75.31c-.144-.745-.27-1.5-.37-2.248-.062-.469-.04-.951-.1-1.421a3.58,3.58,0,0,0-.24-.748c-.034-.095-.1-.173-.14-.268A1.027,1.027,0,0,1,.212,69.7c.258-.227.484-.074.708.094.553.415,1.1.84,1.666,1.234a3.818,3.818,0,0,1,1.149,1.317c.4.719.814,1.428,1.227,2.149a12.2,12.2,0,0,0,3.276-1.937,22.838,22.838,0,0,1,3.87-2.761c.678-.422,1.393-.777,2.048-1.239,1-.7,1.937-1.5,2.935-2.2a21.211,21.211,0,0,1,3.3-2.027c.976-.444,1.934-.934,2.906-1.387,1.056-.491,2.11-.992,3.183-1.433.653-.269,1.345-.42,2.014-.646a27.407,27.407,0,0,1,4.5-.967c.784-.125,1.556-.345,2.339-.481,1.078-.187,2.17-.277,3.238-.511a36.113,36.113,0,0,1,7.759-.473c.551,0,1.1-.033,1.651,0a1.2,1.2,0,0,0,1.095-.494c1.339-1.577,2.734-3.095,4.109-4.635.078-.089.161-.172.235-.265a1.478,1.478,0,0,1,1.613-.681,18.906,18.906,0,0,1,1.224-3.19,3.605,3.605,0,0,1,1.9-1.95c.931-.5,1.838-1.06,2.746-1.613a3.977,3.977,0,0,0,.707-.577,5.136,5.136,0,0,1,1.526-.8,1.659,1.659,0,0,1,.643-.105c.569-.033,1.14-.038,1.71-.077a6.242,6.242,0,0,0,.82-.139,2.222,2.222,0,0,0,1.116-.5,10.352,10.352,0,0,1,1.432-1.148,2.4,2.4,0,0,1,1.108-.306c.863-.049,1.73-.012,2.6-.039a6.357,6.357,0,0,0,1.155-.152c.918-.2,1.836-.414,2.746-.659A4.1,4.1,0,0,0,78.446,39.8a12.706,12.706,0,0,1,1.083-1.058,2.162,2.162,0,0,1,1.093-.563,2.277,2.277,0,0,0,.742-.4c.16-.1.293-.261.458-.344a2.186,2.186,0,0,0,1.058-1.448,7.884,7.884,0,0,1,1.151-2.25c.178-.264.335-.545.5-.819.217-.357.414-.732.655-1.068a3.663,3.663,0,0,0,.793-1.583,1.969,1.969,0,0,1,.572-.95c.75-.765,1.552-1.466,2.308-2.225.687-.689,1.354-1.407,2.006-2.139a3.85,3.85,0,0,1,2.149-1.316c.435-.085.87-.164,1.38-.259l-.154-.841c-.428-.048-.849-.087-1.268-.145a6.358,6.358,0,0,1-2.038-.561,1.35,1.35,0,0,1-.792-1.176q-.087-1.176-.122-2.355c-.02-.621,0-1.242,0-1.837l-1.159-.794a1.342,1.342,0,0,1,.339-.921q.525-.764,1.07-1.508a1.387,1.387,0,0,0,.234-1.319,3.848,3.848,0,0,1,.077-2.286A41.982,41.982,0,0,1,84.318,7.8a3.713,3.713,0,0,1,1.289-1.448,5.645,5.645,0,0,1,3.118-.962,11,11,0,0,1,3.471.352,1.021,1.021,0,0,0,.223,0c.094-.217.2-.453.3-.69a20.588,20.588,0,0,1,2.064-3.967A2.326,2.326,0,0,1,97.063.017,10.592,10.592,0,0,1,99.83.878c1.307.517,2.608,1.055,3.917,1.568a7.836,7.836,0,0,1,3.472,2.683,1.942,1.942,0,0,1,.33,1.559,9.537,9.537,0,0,1-1,3.011c-.093.179-.189.356-.316.6.19.152.375.313.572.454a19.568,19.568,0,0,1,3.669,3.4,7.565,7.565,0,0,1,1.728,3.282c.054.255.072.521.1.754a.652.652,0,0,1-.734.1c-1.021-.359-2.047-.7-3.053-1.108-.92-.371-1.817-.815-2.787-1.256-.171.7-.35,1.408-.508,2.119-.022.1.062.222.086.337.095.46.208.917.271,1.383.085.632.135,1.27.194,1.906.026.287.038.576.06.909.092.059.2.135.311.2,1.126.624,2.233,1.3,3.385,1.856,1.389.673,2.819,1.238,4.225,1.868,1.009.452,2.008.933,3.009,1.407.374.177.74.375,1.114.554a1.949,1.949,0,0,1,1.2,2.062,5.963,5.963,0,0,0,.182,1.768c.405,1.688,1.061,3.263,1.613,4.884.6,1.76,1.247,3.5,1.871,5.25q.9,2.533,1.8,5.069c.136.384.3.759.4,1.153a1.315,1.315,0,0,1,.029.717,2.875,2.875,0,0,0-.01,1.7c.151.638.281,1.283.455,1.913a4.191,4.191,0,0,1-.28,3.058,6.617,6.617,0,0,0-.229.751,5.062,5.062,0,0,1-.365.966,4.727,4.727,0,0,1-2.056,2,3.248,3.248,0,0,1-.866.192,1.021,1.021,0,0,0-.728.392,2.663,2.663,0,0,1-1.124.878c-.614.26-1.1.764-1.686,1.057a7.517,7.517,0,0,0-1.87,1.569,8.092,8.092,0,0,0-1.6,2.715,1.208,1.208,0,0,0-.078.957.646.646,0,0,1,.037.244c-.055,1.288.28,2.551.18,3.846a2.521,2.521,0,0,1-.321,1.278,2.676,2.676,0,0,0-.168.372,3.533,3.533,0,0,0,1.421.623,3.014,3.014,0,0,1,1.708.958,2.347,2.347,0,0,1,.314.634c.12.319.216.65.318.977.146.463.288.927.446,1.439a12.714,12.714,0,0,1,3.091,2.226,1.316,1.316,0,0,0,.378.25,4.154,4.154,0,0,1,2.008,2.194,1.159,1.159,0,0,0,.317.409q3.01,2.381,6.03,4.746c.121.095.256.166.379.259a1.564,1.564,0,0,1,.623.909c.184.734.422,1.45.639,2.173.018.059.065.116.063.171-.045,1.121.709,1.558,1.405,2.007a13.308,13.308,0,0,1,3.02,2.612,1.85,1.85,0,0,0,.428.384,12.091,12.091,0,0,1,3.723,3.663c.286.431.613.827.92,1.241a11.149,11.149,0,0,1,1.478,2.692,33.026,33.026,0,0,1,1.788,5.346,23.809,23.809,0,0,1,.649,4.964c-.015.908,0,1.817,0,2.771a2.975,2.975,0,0,0,2.984-.588,2.569,2.569,0,0,1,1.3-.583,5.524,5.524,0,0,0,2.512-.911c.046-.035.108-.049.144-.092.306-.36.618-.488,1.009-.127.156.144.343.055.512-.07a1.084,1.084,0,0,1,1.013-.15.906.906,0,0,0,.27.07,1.338,1.338,0,0,1,1.285.675c.1.155.39.185.6.215a3.67,3.67,0,0,0,.608-.03c.583-.013.82.575.536,1.074a3.034,3.034,0,0,1-.537.785,2.575,2.575,0,0,0-.756,1.044,1.485,1.485,0,0,1-.242.332c.03.215.113.324.3.21a4.307,4.307,0,0,1,.419-.3,2.482,2.482,0,0,1,.776-.269c.58-.048.962.3,1.031.949.046.434.164.7.579.755a.709.709,0,0,1,.383.239,3.543,3.543,0,0,0,.939.756c.153.085.241.335.334.526.041.082-.011.222.031.3.072.135.171.315.284.341a.414.414,0,0,0,.355-.208,1.007,1.007,0,0,1,1.219-.6c.288.059.44-.083.543-.383a.974.974,0,0,1,.314-.4.35.35,0,0,1,.545.068.442.442,0,0,1-.008.609c-.06.079-.127.151-.189.228a.413.413,0,0,0-.025.51c.11.192.252.32.458.252a3.723,3.723,0,0,0,.5-.245c.574-.3.881-.149,1.1.536.043.133.094.264.166.465a1.465,1.465,0,0,0,.318-.225c.122-.15.195-.353.325-.49a.727.727,0,0,1,1.1-.014c.14.133.269.281.443.464.137-.095.277-.18.406-.283a.908.908,0,0,1,1.509.259c.232.351.285.353.547.042a4.263,4.263,0,0,1-.458-.889,4.376,4.376,0,0,1-.017-1.018c-.143.025-.23.01-.278.052-.5.446-1.018.253-1.518.018a.7.7,0,0,1-.365-.651,1.376,1.376,0,0,1,.842-1.258.725.725,0,0,1,.555.171,3.909,3.909,0,0,1,.525.71c.1.143.178.3.274.465.24-.17.43-.323.636-.444s.467-.229.418-.571a1.079,1.079,0,0,0-.456-.874c-.1-.056-.212-.077-.312-.129a.615.615,0,0,1-.323-.659c.033-.292.189-.529.454-.549a1.371,1.371,0,0,1,.687.135,8.353,8.353,0,0,1,.856.558.841.841,0,0,1,.317,1.112,2.985,2.985,0,0,0-.4,1.324c0,.189-.222.408-.385.556a.492.492,0,0,0-.178.628c.307.791.3.8-.305,1.328a.591.591,0,0,0-.088.146c.3.415.365.431.711.195.548-.374.735-.3.988.381a2.16,2.16,0,0,0,.229.485.351.351,0,0,0,.534.136.77.77,0,0,1,.74-.1.514.514,0,0,0,.373-.065.7.7,0,0,1,.989.253,2.436,2.436,0,0,0,.277.246,11.758,11.758,0,0,0,.872-1.09c.438-.7.813-.827,1.427-.384a1.021,1.021,0,0,0,.783.2c.56-.072.68.038.9.64.168.455.4.559.781.275.31-.23.572-.34.9-.049.1.086.279.07.421.065a10.1,10.1,0,0,1,1.214-.056,1.657,1.657,0,0,1,.764.312.962.962,0,0,0,1.33.032.612.612,0,0,1,.628-.138,1.1,1.1,0,0,0,.438-.011.54.54,0,0,1,.654.408c.068.253-.069.448-.39.656a4.279,4.279,0,0,0-.762.6c-.224.231-.183.395.087.583.392.272.788.54,1.184.8.492.328.745.214.826-.431a.6.6,0,0,1,.342-.519.514.514,0,0,1,.333.56.633.633,0,0,0,.088.352c.274.459.563.907.872,1.4.2-.19.365-.374.553-.521a.655.655,0,0,1,.4-.166.432.432,0,0,1,.252.723,1.074,1.074,0,0,0-.2,1.078c.151.432.211.488.6.4a3,3,0,0,1,.695-.067c.258,0,.419-.124.386-.379-.029-.227-.117-.4-.373-.266-.045.024-.13.04-.154.012-.069-.079-.173-.195-.158-.272s.2-.229.215-.219c.423.425.794-.172,1.218-.023.035-.174.053-.313.091-.446.1-.35.326-.559.593-.553a.7.7,0,0,1,.616.533,1.1,1.1,0,0,1-.143,1.091c.077.074.126.154.156.146a1.828,1.828,0,0,0,1.2-.614c.316-.449.484-.523.934-.264a7.317,7.317,0,0,1,.789.572c.369.283.372.293.708-.023.237-.223.469-.391.8-.266a.747.747,0,0,0,.38-.04,1.384,1.384,0,0,1,1.672.488l.265-.146a1.116,1.116,0,0,1,1.611.763.953.953,0,0,1-.345,1.027,1.291,1.291,0,0,1-1.548.076,3.578,3.578,0,0,1-.529,1.28c-.07.081-.033.308,0,.459.085.474.063.592-.288.826-.152.1-.354.185-.19.386.086.1.325.067.493.061.056,0,.121-.094.162-.161a4.409,4.409,0,0,1,1.289-1.16.689.689,0,0,1,.931-.055,1.081,1.081,0,0,1,.326,1c-.033.406-.2.587-.567.62-.185.016-.372-.008-.556.008a.519.519,0,0,0-.524.524,1.287,1.287,0,0,1-.486,1.169.2.2,0,0,0-.054.106.988.988,0,0,0,0,.174c.121-.019.24-.028.355-.057a2.623,2.623,0,0,1,.584-.164c.335,0,.481-.184.6-.515.249-.694.892-.843,1.33-.322a1.431,1.431,0,0,1,.207.488,1.379,1.379,0,0,1,.01.31c.011.209.1.4.289.369a.448.448,0,0,0,.248-.337,2.4,2.4,0,0,1,.371-1.131c.653.027.78.117.964.792.086.315.236.437.522.412a2.96,2.96,0,0,1,1.472.234c.56.248.634.5.275,1.03-.055.082-.14.169-.145.258a.46.46,0,0,0,.1.325c.058.049.255.023.282-.034.282-.6.729-.469,1.161-.332.566.179,1.126.383,1.685.591a1.2,1.2,0,0,0,1.337-.293c.642-.589,1.285-.332,1.52.563a4.575,4.575,0,0,1,.125.542c.077.57-.079.855-.573,1.02-.239.08-.463.161-.548.458-.127.448-.036.629.436.877,0,1.666,1.1,3.829,2.844,3.964a2.531,2.531,0,0,1,.273.65,2.961,2.961,0,0,0,.606,1.3c3.933,5.83,2.065,14.274-3.848,17.355a12.256,12.256,0,0,0-2.381,1.573,2.4,2.4,0,0,1-1.686.617c-6.39-.029-12.781-.008-19.171-.011q-9.254,0-18.507-.02c-2.981,0-5.963.018-8.944.017q-12.782,0-25.564-.014-10.7,0-21.4.007-6.864,0-13.728,0-6.946,0-13.894.008c-3.316,0-6.631-.009-9.947-.008q-7.864,0-15.729.008h-.585c-.2-.913.056-1.3.8-1.409q1.95-.279,3.892-.624c1.161-.208,2.329-.4,3.468-.718a4.089,4.089,0,0,0,2.133-.969.913.913,0,0,1,.552-.236,10.338,10.338,0,0,1,1.385-.058,1.849,1.849,0,0,0,1.461-.756,8.375,8.375,0,0,0,1.338-2.337.937.937,0,0,0,.1-.353,10.187,10.187,0,0,0-.072-2.22c-.118-.5-.192-1.011-.26-1.522a1.777,1.777,0,0,1,.422-1.428.957.957,0,0,0,.259-.891,1.025,1.025,0,0,1,.282-.9c.256-.295.552-.547.83-.819.3-.3.615-.587.9-.905a.458.458,0,0,0,.067-.378.418.418,0,0,0-.376-.136,2.6,2.6,0,0,0-.612.388c-.2.151-.362.359-.569.487-.3.187-.6.006-.642-.385a1.361,1.361,0,0,1,.25-1.105.949.949,0,0,0,.165-.5c.008-.078-.116-.173-.18-.26-.077.073-.2.13-.225.222a1.989,1.989,0,0,1-.578.965.667.667,0,0,1-.725.172c-.381-.153-.773-.278-1.144-.459-.553-.269-.62-.511-.36-1.107a1.034,1.034,0,0,0-.369-1.317,1.045,1.045,0,0,1-.595-1.124.945.945,0,0,0-.067-.285.553.553,0,0,0-.175-.058c-.571.034-1.142.1-1.712.105a1.27,1.27,0,0,1-1.289-1.379,1.344,1.344,0,0,0-.279-.847.7.7,0,0,1-.059-.8c.212-.479.379-.983.59-1.463a1.912,1.912,0,0,1,.364-.538,1.325,1.325,0,0,0,.414-1.32,4.707,4.707,0,0,1-.1-.92,1.423,1.423,0,0,1,.091-.6.6.6,0,0,0-.167-.761,2.81,2.81,0,0,1-.42-.49.779.779,0,0,1,.092-1.1,1.728,1.728,0,0,0,.5-.86.415.415,0,0,1,.667-.286,2.709,2.709,0,0,0,1.067.459c.194.022.381.3.543.5a1.193,1.193,0,0,0,1.409.288.973.973,0,0,0,.282-.486c.127-.405.284-.53.658-.447.073.016.142.049.213.069.452.126.459.129.649-.352a.683.683,0,0,1,.74-.515c.107.009.216,0,.341,0a1.013,1.013,0,0,0,.092-.3,1.238,1.238,0,0,1,.886-1.268c.413-.176.857-.256,1.284-.393a6.113,6.113,0,0,0,1.354-.576q-1.226-.613-2.452-1.226-4.607-2.307-9.212-4.616c-.488-.245-.955-.551-1.456-.751a13.519,13.519,0,0,0-1.543-.443c-.107-.029-.224-.017-.329-.051q-1.671-.538-3.338-1.087a1.8,1.8,0,0,0-1.238-.113,2.03,2.03,0,0,1-1.555-.236c-.4-.17-.785-.354-1.174-.543a.552.552,0,0,0-.769.208,4.49,4.49,0,0,1-1.13.98,5.319,5.319,0,0,0-1.777,1.733c-1.595,2.466-3.256,4.883-4.763,7.415-2.309,3.881-4.516,7.838-6.753,11.773-.386.68-.691,1.417-1.05,2.116-.155.3-.353.574-.534.858a6.878,6.878,0,0,1-.4.6,5.114,5.114,0,0,1-.666.73,3.539,3.539,0,0,1-.863.544,3.192,3.192,0,0,0-1.374,1.566,2.353,2.353,0,0,0-.141.762,3.115,3.115,0,0,1-.1.7q-2.068,4.958-4.161,9.9c-.314.748-.624,1.5-.948,2.278-.375-.094-.563.117-.773.427a27.268,27.268,0,0,1-1.672,2.226,2.054,2.054,0,0,1-1.727.691,1.406,1.406,0,0,0-.932.308c-.72.546-1.445,1.082-2.215,1.658.06.305.113.624.187.938a8.262,8.262,0,0,1,.208,1.963,1.115,1.115,0,0,1-.708,1.135c-.587.247-1.187.458-1.785.672a4.4,4.4,0,0,1-2.566.121c-1.464-.349-2.95-.581-4.409-.951a15.819,15.819,0,0,1-2.188-.871,1.549,1.549,0,0,1-.424-.289c-.369-.337-.4-.6-.061-.988a13.065,13.065,0,0,1,1.239-1.24c1.042-.9,2.111-1.754,3.156-2.646a13.077,13.077,0,0,1,2.41-1.387c.714-.39,1.429-.78,2.154-1.145a4.572,4.572,0,0,0,1.231-1.145C26.272,163.373,26.986,162.5,27.767,161.586ZM96.083,54.208c0-.785,0-1.542,0-2.3a.606.606,0,0,0-.072-.234,9.977,9.977,0,0,1-.6-2.763A1.823,1.823,0,0,0,94.93,47.9a10.671,10.671,0,0,1-.784-.957,10.835,10.835,0,0,1-1.47-3.051,9.163,9.163,0,0,0-.409-.953c-.434.351-.833.677-1.235,1-.345.276-.7.536-1.039.823a14.264,14.264,0,0,1-2.975,1.908,26.845,26.845,0,0,1-2.5.982c-.964.359-1.936.7-2.9,1.059-.452.171-.889.39-1.339.57a3.705,3.705,0,0,1-.839.268c-.439.061-.888.027-1.327.091-.376.055-.831-.005-1.09.351a1.152,1.152,0,0,1-1.4.428,6.146,6.146,0,0,0-2.844.109c-.38.069-.766.1-1.15.139-.4.039-.809.041-1.209.1-.55.077-1.094.2-1.643.278a2.237,2.237,0,0,1-.55-.044c-.673-.071-1.282-.422-1.975-.481a15.5,15.5,0,0,1-2.709-.572,1.316,1.316,0,0,0-1.474.561,6.612,6.612,0,0,1-.923.872,7.641,7.641,0,0,1-2.075.845c-.475.2-.5.223-.226.713a1.091,1.091,0,0,1-.813,1.73c-.219.013-.438,0-.68,0a2.436,2.436,0,0,1-.58,1.607c-.443.583-.852,1.2-1.272,1.8-.074.107-.132.229-.213.372.9.125,1.755.231,2.605.366,1.169.185,2.337.375,3.5.593,1.2.225,2.4.459,3.594.742.719.171,1.421.442,2.129.674a.7.7,0,0,0,.634-.011.8.8,0,0,1,.851.064,8.279,8.279,0,0,1,1.1.715,1.762,1.762,0,0,0,1.462.358,6.373,6.373,0,0,1,1.762.028,9,9,0,0,0,2,.429.554.554,0,0,1,.16.049q1.66.475,3.321.949c.14.04.28.073.437.113.048-.12.082-.215.122-.3.4-.888.777-1.784,1.194-2.659a1.523,1.523,0,0,1,1.305-.913,11.574,11.574,0,0,0,1.153-.172c.525-.106,1.05-.223,1.569-.363a.946.946,0,0,0,.658-.689c.269-.859.548-1.714.819-2.572a.77.77,0,0,0-.12-.688,9.385,9.385,0,0,1-.792-1.489c-.222-.56.029-.859.555-.7a4.243,4.243,0,0,1,1.866,1.179.829.829,0,0,1,.089,1.243,1.137,1.137,0,0,0-.215.674c-.024.807-.07,1.612-.1,2.419a1.719,1.719,0,0,0,.35,1.371,4.868,4.868,0,0,1,.6.964,8.383,8.383,0,0,1,1.275,4.288c.438.4.877.846,1.36,1.221a8.441,8.441,0,0,0,1.216.73c.1.054.316.064.354,0a1.37,1.37,0,0,1,.912-.645c.077-.019.146-.121.2-.2a8.493,8.493,0,0,0,1.272-2.593,5.975,5.975,0,0,1,.956-2.35c.03-.035.017-.117.013-.079-.452-.5-.873-.945-1.263-1.418a1.021,1.021,0,0,1-.15-1.041,4.71,4.71,0,0,1,.248-.5,2.507,2.507,0,0,1-.146-.748c.04-.315.262-.61.272-.919a2.646,2.646,0,0,1,.059-.969,2.01,2.01,0,0,0,.112-.582c.031-.383.147-.544.5-.619C95.4,54.334,95.709,54.279,96.083,54.208ZM32.2,152.57c.127-.213.21-.343.285-.478.5-.9,1-1.793,1.483-2.7a7.619,7.619,0,0,0,.514-1.164c.413-1.239.823-2.482,1.189-3.739a19.316,19.316,0,0,1,1.446-3.213,57.123,57.123,0,0,0,2.855-6.589c1.272-3.628,2.379-7.32,3.422-11.036.226-.8.446-1.61.683-2.465-.657.183-1.256.381-1.865.515a55.273,55.273,0,0,1-7.593.965,10.531,10.531,0,0,0-1.924.209,14.615,14.615,0,0,0-2.2.855,2.4,2.4,0,0,0-.817.612c-.754.883-1.481,1.8-2.2,2.711a1.353,1.353,0,0,0-.261.588,29.276,29.276,0,0,0-.3,4.7c-.023,3.339.027,6.679.065,10.019a5.4,5.4,0,0,0,.362,2.357,1.193,1.193,0,0,1,.069.6,2.433,2.433,0,0,1-.62,1.805c.1.245.183.45.263.655a.661.661,0,0,0,.792.474,7.833,7.833,0,0,1,1.6.025,1.443,1.443,0,0,1,1.38,1.05c.061.193.168.367.246.554C31.442,150.74,31.8,151.6,32.2,152.57ZM21.336,109.726a.078.078,0,0,0,0,.058c.007.018.026.029.059.062.855-.493,1.721-1,2.59-1.49.239-.136.466-.356.762-.2.065.316-.171.347-.315.446-1.087.747-2.18,1.485-3.266,2.233a1,1,0,0,0-.317.33c-.306.568-.757,1.092-.509,1.855a.51.51,0,0,1,0,.186A1.214,1.214,0,0,1,19,114.434a1.48,1.48,0,0,1-.92-.529c-.243-.256-.468-.533-.71-.789a4.429,4.429,0,0,0-1.387-1.066,4.911,4.911,0,0,0,1.069,1.652,2.951,2.951,0,0,0,3.2,1.161,3.986,3.986,0,0,1,1.284.123,4.022,4.022,0,0,0,1.292-1.281c.193-.286.441-.572.783-.484.318.082.484-.077.669-.291.721-.835,1.456-1.654,2.166-2.5.9-1.071,1.813-2.129,2.659-3.251,2.636-3.5,5.011-7.222,7.477-10.868a1.1,1.1,0,0,0,.138-.808c-.188-1.827-.346-3.658-.514-5.488a1.483,1.483,0,0,0-1.078-1.867,9.055,9.055,0,0,0-2.4-.78m-13.3,24.144q6.063-11.949,12.174-24a.827.827,0,0,0,.053-.175.106.106,0,0,0-.013-.058c-.006-.018-.015-.036-.027-.063a6.8,6.8,0,0,0-3,.416,10.976,10.976,0,0,0-4.835,3.817,1.109,1.109,0,0,0-.243.837c.055.7.1,1.4.1,2.106a10.183,10.183,0,0,1-.811,3.96,10.753,10.753,0,0,1-4.081,4.94,1.087,1.087,0,0,0-.468.573c-.234.653-.495,1.294-.745,1.939-.551,1.424-1.1,2.847-1.634,4.227C16.714,111.574,17.961,111.781,19.433,111.512Zm35.91-58.029A.964.964,0,0,0,54,53.725c-1.293,1.508-2.629,2.97-3.947,4.451a2.073,2.073,0,0,0-.151.235h2.448Zm-1.928,4.872a.81.81,0,0,0,1.092-.386c.526-.845,1.131-1.63,1.7-2.442.406-.579.348-.935-.236-1.367ZM21.274,117.306c-.668-.448-.493-1.125-.412-1.8-.39,0-.742-.029-1.088.006-.582.059-.814.55-.581,1.157a2.531,2.531,0,0,0,.8,1.007C20.548,118.151,20.924,118.047,21.274,117.306Zm-2.469-5.177a2.51,2.51,0,0,0-.341.041c-.458.12-.592.392-.367.845a2.494,2.494,0,0,0,.506.636c.225.223.489.409.8.207a.841.841,0,0,0,.359-.891A1.153,1.153,0,0,1,18.805,112.129Zm190.858,28.029a9.648,9.648,0,0,0,.834.727.293.293,0,0,0,.465-.282,3.036,3.036,0,0,0-.2-.823c-.19-.443-.389-.462-.709-.109C209.936,139.8,209.836,139.938,209.663,140.158Zm-.708-1.568a.709.709,0,0,0-.363.776.276.276,0,0,0,.182.185c.067.009.2-.076.209-.134C209.01,139.169,209.187,138.915,208.955,138.59Zm-5.278-1.516-.171-.042a2.342,2.342,0,0,0-.262.421c-.072.188-.014.4.173.427.095.014.278-.141.3-.254A1.788,1.788,0,0,0,203.677,137.074Zm2.387-.289a1.905,1.905,0,0,0-.339.436c-.053.148.194.383.363.371a.3.3,0,0,0,.3-.35C206.364,137.1,206.209,136.979,206.064,136.785Zm-4.728-5.713c.216-.39.216-.39-.142-.593A.379.379,0,0,0,201.336,131.072Zm-11.43-1.506-.077-.14a1.81,1.81,0,0,0-.251.156,1.24,1.24,0,0,0,.084.19Zm4.489.13.072-.138-.26-.2-.092.187Z"/><path d="M153.945,112.517c.1-.363.19-.7.284-1.031.022-.078.044-.2.091-.218.4-.14.424-.531.5-.889.056-.289.179-.518.459-.535a.58.58,0,0,1,.572.411,2.633,2.633,0,0,1,.212,1.505c-.022.117-.048.233-.081.4a4.182,4.182,0,0,1,.478.144.668.668,0,0,1,.344.805.462.462,0,0,1-.721.286.6.6,0,0,0-.811.083.83.83,0,0,1-.19.127c-.345.188-.561.091-.681-.3A1.227,1.227,0,0,0,153.945,112.517Z"/><path d="M189.552,125.831a1.086,1.086,0,0,1-1.1-1.175,1.1,1.1,0,0,1,1.208-1.192,1.179,1.179,0,0,1,.974,1.2C190.626,125.418,190.239,125.839,189.552,125.831Z"/><path d="M175.406,122.95a2.637,2.637,0,0,1-.667-.33.739.739,0,0,1-.012-1.163,1.029,1.029,0,0,1,1.6.279.747.747,0,0,1-.338,1.072A3.642,3.642,0,0,1,175.406,122.95Z"/><path d="M184.7,121.216a1.413,1.413,0,0,1,1.238.655.846.846,0,0,1,.119.56.412.412,0,0,1-.473.342,9.236,9.236,0,0,1-1.242-.289.591.591,0,0,1-.37-.569.609.609,0,0,1,.346-.586A1.425,1.425,0,0,1,184.7,121.216Z"/><path d="M205.461,135.031a5.94,5.94,0,0,1-.849-.356.806.806,0,0,1-.346-.893.63.63,0,0,1,.808-.429,1.783,1.783,0,0,1,.378.083.686.686,0,0,1,.373.852A5.581,5.581,0,0,1,205.461,135.031Z"/><path d="M205.862,129.983a.775.775,0,0,1-.835.775.675.675,0,0,1-.679-.654.943.943,0,0,1,.892-.905A.694.694,0,0,1,205.862,129.983Z"/><path d="M180.4,121.965a.657.657,0,0,1-.618-.644.547.547,0,0,1,.517-.522.7.7,0,0,1,.682.649A.558.558,0,0,1,180.4,121.965Z"/><path d="M157.38,111.607c-.215.007-.434-.272-.429-.545.007-.357.306-.72.583-.709a.54.54,0,0,1,.442.543A.787.787,0,0,1,157.38,111.607Z"/><path d="M158.016,112.624a2.235,2.235,0,0,1,.341.427.815.815,0,0,1-.268.754.355.355,0,0,1-.21.049c-.206-.021-.346-.287-.339-.623A.571.571,0,0,1,158.016,112.624Z"/><path d="M196.311,127.092c-.136.261-.241.582-.554.482a.579.579,0,0,1-.279-.451.6.6,0,0,1,.316-.427C196.076,126.587,196.2,126.848,196.311,127.092Z"/><path d="M188.623,123.013c-.128.246-.242.529-.536.4a.541.541,0,0,1-.277-.4.621.621,0,0,1,.316-.427C188.379,122.488,188.515,122.72,188.623,123.013Z"/><path d="M211.17,136.856c-.351.509-.446.508-.8-.01C210.7,136.288,210.818,136.289,211.17,136.856Z"/><path d="M165.282,117.1a1.468,1.468,0,0,1,.21.481c0,.088-.187.244-.3.263-.083.014-.241-.129-.274-.237C164.828,117.329,165.023,117.222,165.282,117.1Z"/><path d="M159.131,111.606c-.378-.315-.409-.4-.249-.616.127-.171.27-.2.424-.053C159.481,111.107,159.445,111.251,159.131,111.606Z"/><path d="M162.905,120.082c.185.154.419.258.2.562a.206.206,0,0,1-.368.011C162.5,120.362,162.728,120.246,162.905,120.082Z"/><path class="cls-1" d="M209.663,140.158c.173-.22.273-.361.387-.487.32-.353.519-.334.709.109a3.036,3.036,0,0,1,.2.823.293.293,0,0,1-.465.282A9.648,9.648,0,0,1,209.663,140.158Z"/><path class="cls-1" d="M208.955,138.59c.232.325.055.579.028.827-.007.058-.142.143-.209.134a.276.276,0,0,1-.182-.185A.709.709,0,0,1,208.955,138.59Z"/><path class="cls-1" d="M203.677,137.074a1.788,1.788,0,0,1,.044.552c-.026.113-.209.268-.3.254-.187-.028-.245-.239-.173-.427a2.342,2.342,0,0,1,.262-.421Z"/><path class="cls-1" d="M206.064,136.785c.145.194.3.312.325.457a.3.3,0,0,1-.3.35c-.169.012-.416-.223-.363-.371A1.905,1.905,0,0,1,206.064,136.785Z"/><path class="cls-1" d="M201.336,131.072a.379.379,0,0,1-.142-.593C201.552,130.682,201.552,130.682,201.336,131.072Z"/><path class="cls-1" d="M189.906,129.566l-.244.206a1.24,1.24,0,0,1-.084-.19,1.81,1.81,0,0,1,.251-.156Z"/><path class="cls-1" d="M194.4,129.7l-.28-.154.092-.187.26.2Z"/></g></g></svg>