<svg xmlns="http://www.w3.org/2000/svg" viewBox="0 0 30.25 30.25"><defs><style>.cls-1,.cls-2{fill:#fff;}.cls-1,.cls-3{stroke:#000;stroke-miterlimit:10;}.cls-1{stroke-width:0.25px;}.cls-3{fill:none;stroke-width:0.75px;}</style></defs><title>togglerFinal</title><g id="Layer_2" data-name="Layer 2"><g id="Layer_1-2" data-name="Layer 1"><rect class="cls-1" x="0.125" y="0.125" width="30" height="30" rx="2.301" ry="2.301"/><path d="M12.833,19.342c-.146-.182-.27-.337-.4-.492-.038-.045-.106-.083-.118-.132-.135-.532-.477-1.035-.362-1.6a7.232,7.232,0,0,1,.354-1.039c.06-.161.171-.309.217-.473A2.529,2.529,0,0,1,13.3,14.2c.063-.052.067-.168.08-.257.037-.239.052-.482.1-.718.013-.057.125-.121.2-.137a6.36,6.36,0,0,0,2.3-.918c.4-.272.746-.606,1.116-.911l-.036-.106a4.977,4.977,0,0,0-.7-.065.531.531,0,0,1-.536-.254q-.164-.272-.329-.543l.1-.044c.1.155.215.308.312.466a.447.447,0,0,0,.4.211,5.935,5.935,0,0,1,2.241.572,1.49,1.49,0,0,1,.74,1.242,1.106,1.106,0,0,1-.022.235c-.008.125.02.209.2.19a.248.248,0,0,1,.2.092.218.218,0,0,1-.042.2.267.267,0,0,0,.136.479,4.8,4.8,0,0,0,.766.085l.049-.083c-.108-.179-.224-.355-.32-.54s-.158-.352-.234-.529c-.037-.085-.045-.191-.11-.253a2.092,2.092,0,0,1-.523-1.14.938.938,0,0,0-.558-.657,5.863,5.863,0,0,1-1.8-1.385.3.3,0,0,1-.078-.173l1.2.984.3-.45c.1.222-.077.344-.14.524a2.509,2.509,0,0,0,.371.06c.4.009.792,0,1.187.008.541.009.632.066.823.508a3.23,3.23,0,0,1,.217.569,1.239,1.239,0,0,1-.011.5c-.026.128-.017.2.129.253.171.056.2.127.033.233a.285.285,0,0,0,.052.538,4.934,4.934,0,0,0,.663.161l.057-.058c-.059-.164-.116-.33-.178-.494-.038-.1-.131-.2-.121-.3a1.783,1.783,0,0,0-.313-.981c-.158-.318-.215-.675-.354-1a.759.759,0,0,0-.584-.371c-.514-.12-1.024-.257-1.534-.389a1.529,1.529,0,0,1-.194-.079c.214-.45-.032-.792-.327-1.122-.01-.011-.019-.023-.03-.034a2.844,2.844,0,0,1-.9-2.034c0-.064-.018-.128-.019-.192-.008-.337-.053-.619-.531-.717-.279-.058-.4-.335-.484-.582-.017-.051.024-.117.1-.172a.411.411,0,0,1,.048.108.8.8,0,0,0,1.068.639,7.331,7.331,0,0,1,.713-.2,2.87,2.87,0,0,1,.61.043l.352-.258c-.021-.181-.041-.422-.086-.659-.007-.041-.117-.081-.187-.1a1.233,1.233,0,0,1-.815-.485.41.41,0,0,0-.144-.108c-.242-.128-.491-.247-.73-.38a1.252,1.252,0,0,1-.2-.183c-.1-.087-.194-.171-.334-.293V3.1a1.758,1.758,0,0,1-.511.08,2.911,2.911,0,0,1-.461-.21c.159.354-.124.551-.273.8a4.889,4.889,0,0,0-.585,2.005c-.043.378-.071.757-.1,1.137a1.167,1.167,0,0,1-.381.768c-.23.229-.43.481-.644.723a8,8,0,0,1-2.851,2.176,2.56,2.56,0,0,0-1.448,3.6c.033.057.062.117.1.173.348.542.353.916-.234,1.549a.6.6,0,0,0-.156.682c.142.425.269.855.375,1.289a.855.855,0,0,1-.1.861c.267.212.258.3-.044.475-.18.1-.165.361.064.476a5.361,5.361,0,0,0,.705.24l.08-.065a4.327,4.327,0,0,0-.159-.542.4.4,0,0,1,.039-.5.28.28,0,0,0,.035-.215c-.079-.524-.2-1.046-.242-1.572a1.7,1.7,0,0,1,.407-1.04c.42-.636.846-1.27,1.251-1.913a4.233,4.233,0,0,0,.295-.659.255.255,0,0,1,.288-.172c.246.01.493,0,.756,0-.1.158-.275.122-.424.134a1.378,1.378,0,0,0-.4.058c-.223.361-.448.72-.665,1.084a.31.31,0,0,0-.008.164,7.6,7.6,0,0,1,.057.986,1.851,1.851,0,0,1-.22.645.388.388,0,0,0-.019.36c.2.477.363.962.541,1.444a.152.152,0,0,1,.013.085.548.548,0,0,0,.073.57c.037.047-.028.178-.078.254-.1.148-.051.25.107.314A1.422,1.422,0,0,0,12.833,19.342ZM18.9,4.62c-.028.023-.1.112-.133.1-.132-.033-.319-.076-.359-.161s.083-.22.143-.351l.266.169c-.156-.015-.3-.058-.353.187Zm-2.187-.67c.363-.18.448-.178.6.044Z"/><path d="M8.421,12.669l.115.314.034-.007v-.228l.054-.011.323.927a3.78,3.78,0,0,0,0-.434,2.879,2.879,0,0,1-.088-.465A.937.937,0,0,1,9,12.352c.105-.179.245-.343.376-.523a1.36,1.36,0,0,0-1.756.665,5.116,5.116,0,0,0-.244,1.091,2.086,2.086,0,0,1-1.109,1.662l.523-.2c-.275.462-.854.534-1.162.89a2.1,2.1,0,0,1,.943-.346l.049.062a6.638,6.638,0,0,1-.589.372c-.213.107-.449.177-.708.276a2.854,2.854,0,0,0,1.285-.326,1.638,1.638,0,0,1-.849.626l.593-.094a1.626,1.626,0,0,1-.72.526,1.944,1.944,0,0,0,1.011-.472A4,4,0,0,0,8.348,13.27c-.007-.2,0-.4,0-.6Z"/><path d="M15.654,2.9c.322-.006.535.394.9.114l-.4-.242.067.175-.843-.261.219.281-.472.028.421.2H14.058l.774.254-1.138.339,0,.036L14.829,3.7l.015.035-.628.287.01.027.311-.041-.945.972.034.044L14,4.818l.026.017-.606.593.534-.15a1.83,1.83,0,0,1-1.082.661l.027.078.908-.165-.936.6,0,.026.737-.2-.234.321.031.027.489-.41.055.037L13.26,7.1l.01.022.525-.376.037.017-.549.754.015.022.75-.565.053.038-.849.938.013.015.652-.429.057.052a2.339,2.339,0,0,1-.549.735,2.065,2.065,0,0,0,.238-.154c.256-.218.511-.437.757-.664a1.06,1.06,0,0,0,.26-.788,8.668,8.668,0,0,1,.3-2.127,2.31,2.31,0,0,1,.616-1.15c.043-.036.048-.116.052-.177C15.659,3.147,15.654,3.033,15.654,2.9Z"/><path class="cls-2" d="M18.9,4.62l-.436-.053c.054-.245.2-.2.353-.187l-.266-.169c-.06.131-.181.27-.143.351s.227.128.359.161C18.806,4.732,18.875,4.643,18.9,4.62Z"/><path class="cls-2" d="M16.716,3.95l.6.044C17.164,3.772,17.079,3.77,16.716,3.95Z"/><line class="cls-3" x1="8.404" y1="21.233" x2="19.798" y2="21.233"/><line class="cls-3" x1="8.404" y1="24.672" x2="19.798" y2="24.672"/><line class="cls-3" x1="8.404" y1="28.112" x2="19.798" y2="28.112"/></g></g></svg>