<svg xmlns="http://www.w3.org/2000/svg" viewBox="0 0 30.25 30.25"><defs><style>.cls-1{fill:#fff;}</style></defs><title>toggle1</title><g id="Layer_2" data-name="Layer 2"><g id="Layer_1-2" data-name="Layer 1"><rect class="cls-1" x="0.125" y="0.125" width="30" height="30" rx="2.301" ry="2.301"/><path d="M27.824,30.25H2.427A2.429,2.429,0,0,1,0,27.824V2.426A2.429,2.429,0,0,1,2.427,0h25.4A2.428,2.428,0,0,1,30.25,2.426v25.4A2.428,2.428,0,0,1,27.824,30.25ZM2.427.25A2.179,2.179,0,0,0,.25,2.426v25.4A2.179,2.179,0,0,0,2.427,30h25.4A2.178,2.178,0,0,0,30,27.824V2.426A2.178,2.178,0,0,0,27.824.25Z"/><rect x="9.428" y="18.797" width="11.395" height="0.75"/><rect x="9.349" y="22.236" width="11.394" height="0.75"/><rect x="9.349" y="25.676" width="11.394" height="0.75"/><path d="M19.033,11.851l.068.3h.732l-.106-.488.339.394.287-.39c.012.167-.029.36.049.436s.269.015.4.015c-.283.295-.283.295.021.606-.475-.029-.481-.091-.385.428-.331-.274-.331-.274-.629.019.081-.474.037-.517-.47-.374l.179-.187c-.014-.009-.028-.026-.042-.027-.251-.016-.5-.028-.754-.044-.158-.01-.233.053-.226.216.013.279.023.558.022.837a.308.308,0,0,1-.082.169,12.422,12.422,0,0,1-.826.96,1.147,1.147,0,0,1-.6.307c-.505.067-1.019.072-1.53.1-.2.01-.264-.086-.252-.284.023-.4-.105-.5-.5-.354a5.57,5.57,0,0,1-1.871.473,4.514,4.514,0,0,1-3.413-1.233c-.1-.1-.21-.367-.172-.4a1.275,1.275,0,0,1,.631-.384,4.109,4.109,0,0,1,1.082.135c.337.065.664.225,1.011.055a1.977,1.977,0,0,0,.563-.306,4.974,4.974,0,0,0,.83-1.026,5.483,5.483,0,0,0,.5-1.388c.049-.214-.109-.471-.161-.712a7.339,7.339,0,0,1-.486-2.222,11.647,11.647,0,0,0-.087-1.685.483.483,0,0,0-.014-.143c-.231-.622.147-1.011.586-1.31A9.768,9.768,0,0,1,15.016,3.7c.133-.064.344-.014.363-.253,0-.03.115-.08.173-.075.306.027.628-.133.916.157.114.114.386.074.586.1a2.1,2.1,0,0,1,1.518.85.554.554,0,0,1,.1.311c-.054,1.546-.109,3.092-.185,4.636-.025.519-.128,1.034-.157,1.552a2.918,2.918,0,0,0,.082.9c.031.115.252.2.4.251C18.843,12.152,18.945,11.972,19.033,11.851Z"/></g></g></svg>