<svg xmlns="http://www.w3.org/2000/svg" viewBox="0 0 22.182 22.182"><defs><style>.cls-1{fill:#fff;stroke:#000;stroke-miterlimit:10;stroke-width:0.182px;}</style></defs><title>toggle2</title><g id="Layer_2" data-name="Layer 2"><g id="Layer_1-2" data-name="Layer 1"><path class="cls-1" d="M20.327,22.091H1.856A1.766,1.766,0,0,1,.091,20.327V1.855A1.766,1.766,0,0,1,1.856.091H20.327a1.766,1.766,0,0,1,1.764,1.764V20.327A1.766,1.766,0,0,1,20.327,22.091ZM1.856.273A1.584,1.584,0,0,0,.273,1.855V20.327a1.584,1.584,0,0,0,1.583,1.582H20.327a1.584,1.584,0,0,0,1.582-1.582V1.855A1.584,1.584,0,0,0,20.327.273Z"/><rect x="5.433" y="7.276" width="11.395" height="0.75"/><rect x="5.354" y="10.716" width="11.394" height="0.75"/><rect x="5.354" y="14.155" width="11.394" height="0.75"/></g></g></svg>