<svg xmlns="http://www.w3.org/2000/svg" viewBox="0 0 30.25 30.25"><defs><style>.cls-1{fill:#fff;stroke-width:0.25px;}.cls-1,.cls-2{stroke:#000;stroke-miterlimit:10;}.cls-2{fill:none;stroke-width:0.75px;}</style></defs><title>toggle</title><g id="Layer_2" data-name="Layer 2"><g id="Layer_1-2" data-name="Layer 1"><rect class="cls-1" x="0.125" y="0.125" width="30" height="30" rx="2.301" ry="2.301"/><line class="cls-2" x1="9.428" y1="19.172" x2="20.822" y2="19.172"/><line class="cls-2" x1="9.348" y1="22.612" x2="20.742" y2="22.612"/><line class="cls-2" x1="9.348" y1="26.051" x2="20.742" y2="26.051"/><path d="M19.113,12.694l.067.3h.733l-.106-.489.339.395.287-.39c.012.166-.029.359.049.436s.269.015.4.015c-.283.295-.283.295.021.6-.475-.029-.481-.09-.386.429-.33-.274-.33-.274-.628.019.08-.475.037-.517-.47-.374l.179-.187c-.014-.01-.028-.027-.043-.027L18.8,13.38c-.158-.01-.234.054-.226.216.013.279.023.558.022.838a.306.306,0,0,1-.082.168,12.438,12.438,0,0,1-.826.961,1.154,1.154,0,0,1-.6.307c-.5.067-1.019.071-1.529.1-.2.01-.264-.087-.253-.284.024-.4-.105-.5-.5-.355a5.607,5.607,0,0,1-1.872.474,4.515,4.515,0,0,1-3.412-1.233c-.1-.1-.21-.367-.172-.4a1.259,1.259,0,0,1,.631-.384,4.149,4.149,0,0,1,1.082.134c.337.066.664.226,1.011.056a1.971,1.971,0,0,0,.562-.306,5,5,0,0,0,.83-1.026,5.461,5.461,0,0,0,.5-1.388c.049-.214-.11-.472-.161-.712a7.37,7.37,0,0,1-.487-2.222,11.8,11.8,0,0,0-.086-1.686.512.512,0,0,0-.015-.142c-.23-.622.148-1.012.587-1.31A9.817,9.817,0,0,1,15.1,4.547c.134-.064.345-.014.363-.253,0-.031.116-.08.174-.075.3.027.627-.133.916.157.113.114.386.074.586.1a2.1,2.1,0,0,1,1.518.849.557.557,0,0,1,.1.312c-.054,1.545-.11,3.091-.185,4.636-.026.519-.128,1.034-.158,1.552a2.912,2.912,0,0,0,.083.9c.031.115.252.2.4.252C18.923,13,19.025,12.814,19.113,12.694Z"/></g></g></svg>