<svg xmlns="http://www.w3.org/2000/svg" viewBox="0 0 220 175"><title>training</title><g id="Layer_2" data-name="Layer 2"><g id="Layer_1-2" data-name="Layer 1"><path d="M220,157.79a4.577,4.577,0,0,1-3.417-1.491c-.055.678-.1,1.18-.135,1.682a3.521,3.521,0,0,1-.043.686c-.151.508-.343.991-.518,1.483l-.785-.9c-.967.259-.95.249-1.359-1.313a3.694,3.694,0,0,0-.564-1.183c-.29-.405-.621-.6-.794.232-.035.17-.214.387-.327.388s-.293-.2-.345-.373a3.7,3.7,0,0,1-.124-.917c-.048-1.3-.053-2.6-.133-3.889a4.881,4.881,0,0,0-.362-1.152,4.449,4.449,0,0,0-.43,1.128c-.159,1.6-.253,3.207-.379,4.811a5.039,5.039,0,0,1-.147,1.009c-.061.2-.254.484-.36.461a.727.727,0,0,1-.439-.476,23.71,23.71,0,0,1-.4-9.669,38.371,38.371,0,0,0,.306-6.521,7.526,7.526,0,0,0-.97-2.986c-.73-1.434-1.595-2.726-2.406-4.073a.585.585,0,0,0-.24-.253,5.579,5.579,0,0,0-.661-.148c-.012.358-.134.892-.017,1.045.555.725.614,1.837,1.165,2.64a11.777,11.777,0,0,1,1.055,3.4,2.657,2.657,0,0,1-.169.928c-.2-.129-.446-.189-.589-.4-1.024-1.5-2.02-3.045-3.043-4.55a1.843,1.843,0,0,0-.686-.642c-2.181-1-3.444-3.2-4.081-6.28a45.85,45.85,0,0,1-.724-8.56c-.012-.72-.064-1.438-.1-2.157-.026-.459-.225-.654-.49-.431a2.889,2.889,0,0,0-.8.955,7.591,7.591,0,0,0-.395,1.528c-.6,2.775-1.2,5.547-1.768,8.334a10.856,10.856,0,0,0-.307,2.454c.09,2.814.263,5.623.405,8.434.076,1.486.232,2.974.2,4.456a7.787,7.787,0,0,1-.491,3.078c-.8,1.551-.734,3.748-1.908,4.981a2.927,2.927,0,0,0-.335,1.08,5.542,5.542,0,0,1-1.2,2.9c-.116.1-.152.391-.229.59-.776,2.015-1.525,4.054-2.345,6.032A6.587,6.587,0,0,1,186.954,166a4.265,4.265,0,0,1-1.51,1.1,1.6,1.6,0,0,0-1.081,1.569c-.083.781-.341,1.52-.489,2.291a18.648,18.648,0,0,0-.282,1.928c-.051.613-.244.9-.661,1.035-.52.168-1.02.464-1.534.672a3.847,3.847,0,0,1-3.749-.157,8.662,8.662,0,0,0-.833-.482c-.832-.413-.912-.457-.789-1.727a19.139,19.139,0,0,1,.582-3.148,2.788,2.788,0,0,1,1.626-1.839,13.827,13.827,0,0,0,2.823-2.188,2.935,2.935,0,0,0,.458-1.507c.205-1.883.718-3.45,2.032-4.13a6.67,6.67,0,0,0,2.046-2.194.551.551,0,0,0,.134-.274c0-1.167.655-1.795,1.017-2.667a12.241,12.241,0,0,0,.971-4.846c0-2.461.277-4.929.5-7.381a4.572,4.572,0,0,0-.258-2.369,18.249,18.249,0,0,1-.641-2.389c-.07-.26-.169-.5-.259-.754-.124-.342-.253-.679-.378-1.021a2.743,2.743,0,0,0-.247-.677,8.886,8.886,0,0,1-1.347-3.773,3.674,3.674,0,0,0-.356-.826c-.043-.09-.149-.127-.18-.22q-.49-1.435-.961-2.884c-.252-.779-.452-1.6-.745-2.344-.251-.637-.685-.86-1.194-.63a4.134,4.134,0,0,0-.677.342c-1.045.721-2.1,1.411-3.12,2.2a22.761,22.761,0,0,1-4.426,2.641,18.9,18.9,0,0,1-2.826.958c-.709.207-1.138.861-1.384,1.924a50.991,50.991,0,0,1-1.273,4.979,15.35,15.35,0,0,0-.369,4.05c-.04,1.056.074,2.122.07,3.184a2.123,2.123,0,0,1-.9,1.886,5.238,5.238,0,0,1-1.345.714,13.68,13.68,0,0,0-4.952,3.2,35.523,35.523,0,0,0-3.84,4.111,9.387,9.387,0,0,0-1.07,2.23c-.446,1.053-.809,2.185-1.3,3.188a1.493,1.493,0,0,1-1.534.97c-1.641-.235-2.5,1.359-2.483,3.629a6.841,6.841,0,0,1-1.145,4.287,1.8,1.8,0,0,1-.967.736c-.962.163-1.952.373-2.8-.647-.157-.188-.409-.215-.618-.31a2.725,2.725,0,0,1-1.535-2.557,3.484,3.484,0,0,1,1.463-2.913,19.6,19.6,0,0,0,2.25-1.395,3.9,3.9,0,0,0,1.225-1.463c.5-1.141.829-2.439,1.277-3.635a6.1,6.1,0,0,1,.738-1.265c.12-.179.316-.247.458-.4q2.382-2.617,4.759-5.247c.047-.053.117-.1.135-.167.385-1.458,1.342-1.975,2.146-2.758a8.789,8.789,0,0,0,2.326-3.765.96.96,0,0,1,.115-.3,4.673,4.673,0,0,0,.572-4.067,41.261,41.261,0,0,1-.7-6.205c-.1-1.581-.365-1.838-1.454-2.107a6.388,6.388,0,0,1-1.741-.788,2.515,2.515,0,0,0-2.514-.225,5.178,5.178,0,0,0-1.319.814,13.947,13.947,0,0,1-4.138,2.377,7.665,7.665,0,0,0-1.233.668c-1.88,1.258-3.752,2.54-5.628,3.809a3.4,3.4,0,0,0-1.522,2.578,4.351,4.351,0,0,1-.687,1.68,5.6,5.6,0,0,0-.8,2.357c-.122.89-.382,1.738-.544,2.619-.334,1.817-.642,3.645-.965,5.467-.129.72-.227,1.461-.416,2.148a17.277,17.277,0,0,0-.521,5.342,19.172,19.172,0,0,1-.23,3.314,2.288,2.288,0,0,1-1.031,1.685c-.921.6-1.554,2.461-1.366,3.907.136,1.048.3,2.089.427,3.139a1.784,1.784,0,0,1-.652,1.784c-1.676,1.467-3.435,1.039-5.194.7-.811-.154-1.388-.886-1.637-2.034a3.492,3.492,0,0,1,.648-2.878c.5-.708,1-1.415,1.522-2.091a1.843,1.843,0,0,1,.609-.509c1.085-.555,1.626-1.565,1.656-3.219.023-1.241.011-2.483.021-3.724a2.543,2.543,0,0,1,.727-2.107,2.827,2.827,0,0,0,.758-1.5c.586-3.191,1.164-6.39,1.616-9.624a25.737,25.737,0,0,0-.022-3.784c-.021-1.717-.151-3.45-.025-5.144a5.5,5.5,0,0,1,1.4-3.313,21.526,21.526,0,0,0,1.443-1.659c.984-1.315,1.957-2.649,2.891-4.037a2.249,2.249,0,0,0,.406-1.366,1.3,1.3,0,0,0-.958-.776c-1.573-.161-2.922-1.28-4.376-1.946a1.456,1.456,0,0,0-1.34.009,6.493,6.493,0,0,1-2.233.873,38.6,38.6,0,0,0-4.267,1.331,24.664,24.664,0,0,0-2.921,1.247,3.19,3.19,0,0,0-1.412,1.978,5.21,5.21,0,0,1-2.422,2.833,2.617,2.617,0,0,0-1.181,2c-.12.713-.175,1.5-.705,1.914a.218.218,0,0,0-.072.133c-.179,2.078-1.283,3.673-1.452,5.746a21.92,21.92,0,0,0-.086,2.92,6.635,6.635,0,0,1-1.018,4.575,1.894,1.894,0,0,0-.071,2.535,21.1,21.1,0,0,0,2.522,3.15c1.407,1.37,1.659,1.939,1.386,4.352-.033.285-.076.567-.113.85-.473,3.651-3.245,5.181-5.331,2.937a4.236,4.236,0,0,1-1.051-1.268,18.333,18.333,0,0,1-1.021-3.592,5.845,5.845,0,0,1,.394-2.134,4.011,4.011,0,0,0,.032-2.174c-.21-.774-.319-1.6-.482-2.405a4.542,4.542,0,0,0-.3-1.211,4.793,4.793,0,0,1-.332-3.292,12.23,12.23,0,0,1,.976-3.74c.683-1.149,1.138-2.466,1.725-3.671a11.159,11.159,0,0,0,.676-2.652,6.556,6.556,0,0,1,.741-2.679c.162-.227.117-.755.18-1.14a49.192,49.192,0,0,0,.792-5.047,18.108,18.108,0,0,1,.963-4.932,2.155,2.155,0,0,1,.947-1.175c.775-.354,1.606-.442,2.4-.721a6.142,6.142,0,0,0,3.408-2.6c1.081-1.7,2.268-3.257,3.442-4.827,1.136-1.519,1.252-2.346.729-4.437a19.007,19.007,0,0,1-.095-7.673,6.527,6.527,0,0,0-.067-3.369,3.49,3.49,0,0,0-.977-1.427c-.613-.494-1.167-.128-1.492.78-.508,1.419-.989,1.678-2.09,1.482a13.638,13.638,0,0,0-3.114-.214c-1.927.106-2.971-1.464-3.7-3.747a18.748,18.748,0,0,1-.581-1.8,6.2,6.2,0,0,1-.2-1.98,78.755,78.755,0,0,0,.075-18.426,41.1,41.1,0,0,1,.113-9.646,45.6,45.6,0,0,0,.147-8.88c-.088-1.487-.33-2.953-.461-4.437a17.914,17.914,0,0,1-.053-2.329c.049-1.148.344-1.343.977-.675.353.373.661.836.988,1.259.507.654.991,1.349,1.525,1.953.832.942,1.77,1.264,2.744.513,1.156-.893,2.26-.546,3.418-.009a4.2,4.2,0,0,0,1.93.334c.362-.015.717-.421,1.073-.659.716-.479,1.429-.97,2.147-1.444.306-.2.625-.367.933-.565a8.8,8.8,0,0,1,1.086-.713c.487-.215.751.073.741.791a15.594,15.594,0,0,1-.642,4.8c-.254.75.017,1.154.561,1.358.916.344,1.786.933,2.691,1.352a11.358,11.358,0,0,1,3.107,2.7,5.624,5.624,0,0,0,1.759.915c.179.092.428.158.508.353a3.483,3.483,0,0,0,2.345,1.95,5.427,5.427,0,0,1,3.156,2.28c.118.2.371.227.521.405a17.6,17.6,0,0,1,1.643,2.072c.449.726.772,1.019,1.39.641a3.831,3.831,0,0,0,1.769-3.549c-.046-.858-.1-1.723-.227-2.564a21.535,21.535,0,0,0-.651-3.471c-.324-.992-.41-2.19-1.107-2.948a2.581,2.581,0,0,1-.307-1.339,17.661,17.661,0,0,1,.054-2.763,11.011,11.011,0,0,1,.6-2.4,11.858,11.858,0,0,1,1.037-2.117c.433-.7.947-1.3,1.427-1.947a3.276,3.276,0,0,0,.428-.589,14.869,14.869,0,0,0,.8-1.963c.342-1.176.627-2.39.9-3.6.363-1.6.714-3.214,1.033-4.837.3-1.516.549-3.051.818-4.579.054-.307.1-.618.146-.927.405-2.516,1.4-4.182,3.19-4.857a4,4,0,0,0,2.376-3.615,11.263,11.263,0,0,0-.169-2.726c-.211-1.481-.5-2.939-.794-4.632a7.526,7.526,0,0,0-1,.007c-1.415.165-2.533-.858-3.654-1.87a1,1,0,0,1-.332-.484,3.8,3.8,0,0,1-.163-1.443,1.007,1.007,0,0,1,.77-.611c.736-.089,1.481-.018,2.221-.054a3.575,3.575,0,0,0,1.123-.214,2.042,2.042,0,0,0,1.119-1.554c.477-1.949.965-3.892,1.449-5.838H169.9c.122.3.234.614.368.905.267.579.589,1.114.806,1.728a11.081,11.081,0,0,1,.276,1.5c.161.82.519,1.235,1.136,1.243a21.331,21.331,0,0,1,2.459.164,2.425,2.425,0,0,1,2.028,1.736c.254.668.13,1.06-.333,1.358-.508.326-.991.736-1.5,1.055a20.361,20.361,0,0,1-2.161,1.234,1.166,1.166,0,0,0-.676.949c-.172.788-.417,1.542-.624,2.314a6.676,6.676,0,0,0-.391,1.614,4.283,4.283,0,0,0,.332,1.99,12.274,12.274,0,0,1,1.215,3.134,11.63,11.63,0,0,0,1.133,2.7c.6,1,1.365,1.778,2.007,2.726a7.741,7.741,0,0,1,1.165,2.162,22.26,22.26,0,0,1,.754,8.137c-.136,1.514-.247,3.033-.394,4.545-.1,1.041-.245,2.073-.369,3.109-.041.34-.095.679-.117,1.022-.053.832-.082,1.667-.136,2.5-.217,3.368-.733,6.545-2.561,8.982a3.114,3.114,0,0,0-.165,1.507c.025.772.186,1.536.2,2.308.065,2.739.068,5.482.153,8.22a4.874,4.874,0,0,0,.417,2.171c.992,1.534,2.044,3.043,3.608,3.356a2.351,2.351,0,0,1,.614.338c1.013.584,2.027,1.166,3.039,1.757.258.151.508.328.761.5a8.21,8.21,0,0,0,1.685,1.084,11.009,11.009,0,0,1,3.311,1.7c.81.617,1.7,1.037,2.472,1.728a23.4,23.4,0,0,1,2.48,2.682c.684.839,1.265,1.849,1.934,2.716a35.33,35.33,0,0,1,2.946,5.53,3.666,3.666,0,0,1,.127.573,2.434,2.434,0,0,0,.26.762,3.874,3.874,0,0,1,.589,2.359,24.914,24.914,0,0,0,.2,3c.453,2.67,1.275,5.215,1.288,8.034a2.34,2.34,0,0,0,.064.422c.248,1.3.543,2.586.738,3.9a11.957,11.957,0,0,0,2.574,6.2c3.264,3.9,6.362,8.1,9.567,12.1,1.488,1.861,2.147,4.339,2.892,6.848.89,3,.789,6.268,1.492,9.315.454,1.968.515,4.121.785,6.182a10.071,10.071,0,0,0,.42,1.779c.2.6.488,1.144.7,1.741s.358,1.212.534,1.819ZM152.926,58.346q.138.927.276,1.853c.219,1.46.479,1.612,1.341.771.094-.091.143-.28.238-.366.278-.253.555-.62.857-.678a4.734,4.734,0,0,1,1.424.085c.525.061.943-.051,1.092-.941.131-.781.312-1.547.5-2.308a6.468,6.468,0,0,0-.065-4.108c-.544-1.4-.763-1.662-1.6-.539-.952,1.269-1.811,2.683-2.721,4.019a2.4,2.4,0,0,1-.655.72A1.538,1.538,0,0,0,152.926,58.346ZM128.2,87.107l-.222-.036a7.087,7.087,0,0,0-.379,1.03,3.362,3.362,0,0,1-.724,1.907,1.163,1.163,0,0,0-.2.685,4.011,4.011,0,0,0,.93,2.931,1.043,1.043,0,0,0,1.784-.245,2.509,2.509,0,0,0-.051-2.576,7.558,7.558,0,0,1-.552-1.489C128.573,88.591,128.4,87.844,128.2,87.107Z"/><path d="M0,92.838c.7,0,1.4.024,2.094-.03.187-.014.511-.27.513-.424a2.273,2.273,0,0,0-.3-.837c-.028-.065-.12-.073-.148-.138-.2-.462-.4-.932-.593-1.4a3.554,3.554,0,0,1,.934-.344,6.054,6.054,0,0,1,3.248.615c.566.287,1.24.1,1.838.3A11.746,11.746,0,0,1,9.72,91.6a19.924,19.924,0,0,1,2.161,1.444c1.446,1.11,2.931,2.162,3.458,4.714a8.776,8.776,0,0,0,.713,2.085,6.58,6.58,0,0,1,.691,3.311,16.39,16.39,0,0,0,.082,1.725,3.1,3.1,0,0,0,.855,2.186c1.215,1.047,2.446,2.07,3.715,2.969a2.422,2.422,0,0,0,1.529.31,21.166,21.166,0,0,0,3.814-.388c1.23-.288,1.93-1.491,2.089-3.331a6.812,6.812,0,0,1,.395-1.272c.083-.284.143-.583.2-.88.213-1.07.394-2.154.638-3.209.334-1.443.709-2.866,1.079-4.29a4.5,4.5,0,0,1,.3-.732A9.412,9.412,0,0,1,35.515,92c1.076-.659,2.261-.959,3.318-1.667a3.02,3.02,0,0,1,2.785-.55,8.8,8.8,0,0,1,2.628,1.411,6.944,6.944,0,0,0,3.827,1.561,12.632,12.632,0,0,1,4.305,1.375c1.015.489,2.111.616,3.143,1.041,1.94.8,3.975,1.248,5.649,3.091.488.538,1.059.919,1.581,1.4a4.168,4.168,0,0,1,.656.73c1.051,1.545,2.113,3.078,3.124,4.677a21.5,21.5,0,0,1,1.272,2.494c.837,1.825,1.618,3.7,2.483,5.5.439.91,1.014,1.683,1.521,2.527a4.08,4.08,0,0,1,.174.445c.3.681.6,1.349.888,2.04.241.587.43,1.222.689,1.79.175.381.4.865.664.963.217.081.585-.254.779-.55.716-1.094,1.012-1.153,1.925-.488a2.971,2.971,0,0,0,1.266.425,15.283,15.283,0,0,1,5.363,1.94,6.019,6.019,0,0,1,2.468,3.3,2.977,2.977,0,0,0,.955,1.244c.626.493,1.364.715,1.955,1.273,1.28,1.207,2.728,2.039,3.84,3.635a3.083,3.083,0,0,1,.564,1.914,17.675,17.675,0,0,1-.316,2.718c-.208,1.083-.628,1.5-1.4,1.547a16.966,16.966,0,0,1-2.042.008,1.064,1.064,0,0,1-.617-.4c-.627-.713-1.219-1.491-1.856-2.183-.159-.174-.509-.262-.643-.126s-.137.6-.145.922c-.018.712-.021,1.428,0,2.14a10.559,10.559,0,0,0,.154,1.267c.214,1.342.426,2.685.661,4.02a25.771,25.771,0,0,0,.528,2.554,11.969,11.969,0,0,1,.247,4.343,1.376,1.376,0,0,1-.455.735,3.446,3.446,0,0,1-2.491,1.044c-1.594,0-1.764.28-1.407,2.537a13.552,13.552,0,0,0,.861,3.014,16.392,16.392,0,0,1,.962,6.488,6.479,6.479,0,0,0,.315,2.725c.534.956.786,2.076,1.245,3.044a2.256,2.256,0,0,1,.154,1.78c-.408,1.195-.975,2.112-1.991,2.172-1.414.084-2.807.117-3.967-1.379a3.207,3.207,0,0,1-.43-3.521,14.623,14.623,0,0,1,.806-1.5c.561-1.008.324-2.078-.557-2.325-.442-.124-.638-.52-.678-1.045a10.249,10.249,0,0,1,.016-2.058,6.608,6.608,0,0,0-.223-2.866c-.274-.9-.48-1.834-.76-2.725-.756-2.407-1.874-3.136-3.679-2.685-1.614.4-3.248.653-4.877.915-1.519.244-1.73.875-1.033,2.873a26.048,26.048,0,0,1,1.188,4.219,7.687,7.687,0,0,1-1.5,6.043,1.54,1.54,0,0,1-1.094.538,4.862,4.862,0,0,0-2.964.84,2.864,2.864,0,0,1-1.46.394c-1,.147-1.253.606-1.056,2.021.21,1.506-.039,2-1.091,2.2a9.646,9.646,0,0,1-6.13-1.125,2,2,0,0,1-1-1.582,3.981,3.981,0,0,0-1.662-2.688,9.339,9.339,0,0,1-1.016-.733,3.309,3.309,0,0,1-1.051-3.26,11.189,11.189,0,0,0,.03-1.983,2.217,2.217,0,0,0-.167-.814c-2.231-4.875-5.352-8.472-8.4-12.192a4.1,4.1,0,0,1-.754-1.972,6.424,6.424,0,0,1,.668-4.222,1.14,1.14,0,0,0-.05-.787c-1.53-2.283-3.059-4.568-4.641-6.774a5.862,5.862,0,0,0-1.618-1.44c-.2-.13-.627.069-.8.327a42.091,42.091,0,0,1-2.491,3.818,10.185,10.185,0,0,0-2.257,6.241c-.03.449-.162.881-.231,1.327-.328,2.1-.73,4.191-.953,6.318-.217,2.071-.261,4.182-.355,6.277a4.161,4.161,0,0,1-.533,2.364,3.742,3.742,0,0,0-.308,1.965c.095,1.513.267,3.025.493,4.51.239,1.56.219,1.7-.779,2.346a4.5,4.5,0,0,1-4.219.52c-.745-.278-.993-.676-.931-1.782a10.367,10.367,0,0,1,.639-3.891c.291-.63.357-1.466.87-1.94.12-.11.142-.515.148-.787.018-.865-.043-1.74.023-2.595a22.427,22.427,0,0,1,.375-2.231c.069-.389.135-.78.22-1.161.2-.891.43-1.767.608-2.665a15.449,15.449,0,0,0,.358-2.347c.056-1.287.029-2.586-.014-3.876a3.393,3.393,0,0,0-.3-1.205,10.062,10.062,0,0,1-.676-5.393,6.488,6.488,0,0,1,.828-2.422,16.566,16.566,0,0,0,2.384-8.12c.037-.935.258-1.854.38-2.784a17.223,17.223,0,0,0,.344-3.053c-.143-2.7-.427-5.376-.649-8.063-.052-.628-.291-.9-.716-.928-1.378-.1-2.761-.131-4.132-.343A7.01,7.01,0,0,1,19.9,113.7c-1.595-1.233-3.313-2.428-4.36-4.739-.552-1.217-1.186-1.99-2.245-1.783a.652.652,0,0,1-.355-.072c-2.046-.839-4.128-1.5-5.813-3.625-.867-1.092-1.935-1.847-2.831-2.9-.984-1.154-1.874-2.474-2.805-3.722l.062-.363a11.952,11.952,0,0,1,1.29-.115,7.492,7.492,0,0,0,1.122.124c.174-.026.322-.41.482-.632-.147-.141-.281-.341-.442-.412-1.011-.445-2.025-.879-3.047-1.273A4.064,4.064,0,0,0,0,94.05Zm50.219,54.823a5.325,5.325,0,0,0,.18,3.087,20.239,20.239,0,0,1,1.206,2.673,25.1,25.1,0,0,0,2.343,4.725,45.349,45.349,0,0,1,3.292,6.862,2.123,2.123,0,0,0,.741,1.074c1.381.862,2.78,1.722,4.272.388a1.348,1.348,0,0,1,.635-.232,3.808,3.808,0,0,0,2.495-1.686,3.4,3.4,0,0,0,.191-3.969c-.369-.714-.719-1.448-1.082-2.168q-.347-.684-.709-1.35c-.277-.513-.552-1.03-.85-1.518a3.452,3.452,0,0,0-.8-1.121c-1.386-.827-2.8-1.555-4.208-2.3a3.673,3.673,0,0,0-.531-.13c-.153-.054-.354-.089-.437-.242-.657-1.209-1.693-1.37-2.579-1.844a17.113,17.113,0,0,1-3.82-2.1A1.207,1.207,0,0,0,50.219,147.661Z"/><path d="M208.019,143.76l-.617.877a4.442,4.442,0,0,1-.365-1.1c-.018-.257.218-.552.34-.829Z"/></g></g></svg>