<svg xmlns="http://www.w3.org/2000/svg" viewBox="0 0 30 30"><defs><style>.cls-1{fill:#fff;}</style></defs><title>twitter</title><g id="Layer_2" data-name="Layer 2"><g id="Layer_1-2" data-name="Layer 1"><path d="M30,15A15,15,0,1,1,15,0,15,15,0,0,1,30,15Z"/><path class="cls-1" d="M23.4,9.79a6.879,6.879,0,0,1-1.98.542,3.454,3.454,0,0,0,1.516-1.906,6.937,6.937,0,0,1-2.189.836,3.449,3.449,0,0,0-5.873,3.144,9.781,9.781,0,0,1-7.1-3.6,3.45,3.45,0,0,0,1.066,4.6,3.436,3.436,0,0,1-1.561-.431v.043A3.449,3.449,0,0,0,10.04,16.4a3.451,3.451,0,0,1-1.557.059,3.452,3.452,0,0,0,3.22,2.394,6.966,6.966,0,0,1-5.1,1.427A9.8,9.8,0,0,0,21.69,12.02c0-.15,0-.3-.01-.446A7,7,0,0,0,23.4,9.79Z"/></g></g></svg>